{"glyphs":{"0":{"ha":642,"x_min":79,"x_max":564,"o":"m 374 965 q 385 961 382 960 q 392 956 388 958 q 400 954 397 954 q 407 951 403 951 q 414 949 411 951 q 422 942 415 942 q 431 938 428 936 q 435 932 433 933 q 436 929 436 931 q 440 926 438 928 q 446 921 443 924 q 447 919 449 921 q 449 918 446 918 q 453 913 453 913 q 456 910 453 913 q 460 905 458 907 q 465 899 463 903 q 466 895 467 896 q 468 889 465 894 q 472 886 472 889 q 474 881 471 883 q 482 874 475 881 q 483 868 482 869 q 488 864 485 867 q 490 856 488 858 q 489 853 492 853 q 493 847 490 851 q 496 839 496 842 q 500 829 503 839 q 503 825 501 828 q 506 817 506 822 q 510 813 507 814 q 513 804 513 811 q 516 799 515 801 q 514 794 517 796 q 519 788 517 790 q 518 781 521 786 q 522 774 521 778 q 525 768 522 769 q 526 754 528 761 q 530 747 529 751 q 533 740 531 743 q 534 733 533 736 q 535 724 535 731 q 537 717 536 722 q 540 708 538 713 q 541 703 542 706 q 540 696 540 701 q 542 690 543 693 q 544 679 542 686 q 546 672 546 676 q 547 664 546 668 q 549 658 547 661 q 550 651 551 654 q 551 635 551 646 q 552 627 550 631 q 553 618 554 624 q 556 612 554 615 q 557 603 557 608 q 557 594 556 600 q 556 585 558 588 q 558 577 558 582 q 560 568 558 572 q 559 560 557 565 q 561 550 561 554 q 561 535 556 543 q 563 514 560 525 q 560 501 560 508 q 558 482 564 489 q 559 472 560 475 q 561 465 558 469 q 560 453 563 458 q 560 444 557 449 q 559 438 560 442 q 561 428 558 433 q 559 419 558 424 q 561 413 560 415 q 558 406 558 410 q 557 399 558 401 q 558 391 560 393 q 556 383 556 389 q 556 377 558 381 q 556 369 554 374 q 554 364 554 365 q 551 358 554 363 q 553 351 554 353 q 551 344 551 349 q 553 338 554 342 q 553 332 553 335 q 551 324 553 326 q 547 319 549 322 q 546 304 546 314 q 544 299 546 303 q 543 292 543 296 q 542 279 540 282 q 539 268 539 275 q 533 253 539 261 q 533 246 533 247 q 531 242 532 244 q 527 233 528 235 q 526 226 526 231 q 524 217 525 222 q 521 208 524 213 q 518 201 518 204 q 515 192 518 197 q 514 184 514 189 q 511 174 514 179 q 508 165 508 167 q 504 160 507 163 q 501 149 503 153 q 501 143 499 144 q 497 136 499 140 q 490 128 494 132 q 489 121 492 124 q 485 113 486 118 q 478 103 481 104 q 475 95 476 97 q 471 89 474 93 q 468 82 471 85 q 465 79 467 81 q 456 67 461 68 q 453 63 453 65 q 450 57 453 61 q 445 53 449 54 q 442 47 442 53 q 438 44 439 44 q 435 40 436 43 q 429 36 432 39 q 425 35 426 33 q 419 28 421 31 q 414 28 418 26 q 404 19 411 24 q 396 17 404 14 l 382 8 l 369 1 l 351 3 l 332 -3 q 324 -1 329 0 q 314 -1 319 -3 q 300 0 306 1 q 281 7 289 3 q 274 8 275 7 q 269 8 271 8 l 240 15 l 229 25 l 222 36 l 208 47 l 200 57 l 186 67 l 175 75 l 171 94 l 165 106 l 158 118 q 151 135 154 131 q 147 141 150 138 q 144 147 144 144 q 142 153 143 149 q 140 158 142 157 q 138 165 138 161 q 135 172 138 169 q 132 185 129 178 q 124 196 124 190 q 123 203 122 199 q 122 211 124 208 q 117 217 118 214 q 114 222 117 221 q 113 231 113 226 q 110 238 113 235 q 111 244 113 242 q 108 251 110 247 q 106 260 108 256 q 106 269 104 265 q 103 275 106 272 q 103 281 101 278 q 99 300 99 296 q 96 307 96 304 q 93 317 96 310 l 90 331 l 90 347 l 86 367 l 82 382 l 81 396 l 85 411 l 81 429 l 82 446 l 83 457 l 83 475 l 81 489 l 79 504 l 81 521 l 81 536 l 85 550 l 82 568 l 81 581 l 82 596 l 81 613 l 81 628 l 83 644 l 90 661 l 90 678 l 93 696 q 96 706 94 701 q 99 717 97 710 q 101 724 100 719 q 100 732 103 728 q 103 738 103 735 q 107 747 104 742 q 106 753 107 750 q 107 764 106 757 q 111 776 113 771 q 114 782 114 779 q 117 790 114 785 q 119 794 117 792 q 124 800 121 797 q 124 807 122 804 q 126 813 125 810 q 132 825 124 817 q 133 831 133 828 q 136 835 133 833 q 138 842 136 840 q 139 849 139 844 q 145 855 144 851 q 149 865 146 858 q 153 871 151 868 q 160 878 156 874 q 164 883 163 881 q 168 890 165 886 q 176 900 171 897 q 181 909 179 907 q 188 914 182 911 q 194 924 188 917 q 206 931 201 933 q 213 937 208 936 q 219 940 217 938 q 224 945 222 943 q 228 949 225 947 q 234 952 231 950 q 240 953 238 954 l 256 961 l 275 968 l 293 972 l 310 972 q 319 972 317 974 q 328 971 321 971 q 336 974 333 974 q 346 974 339 974 q 350 971 347 969 q 358 969 353 972 q 367 968 363 967 q 376 967 372 969 l 374 965 m 257 940 q 252 939 254 939 q 247 936 250 939 q 233 926 239 931 q 228 924 231 925 q 224 919 226 922 l 221 918 q 217 917 218 917 q 214 915 217 917 q 210 909 211 913 q 204 904 208 906 q 201 900 204 901 q 194 894 199 899 q 194 889 197 892 q 190 883 192 886 q 186 878 188 881 q 182 875 185 876 q 176 868 178 872 q 174 861 174 864 q 167 847 169 858 q 163 842 165 844 q 157 835 160 839 q 151 818 157 825 q 149 811 150 815 q 144 804 147 807 q 142 797 143 801 q 139 789 142 792 q 133 772 143 785 q 133 763 136 767 q 131 756 131 760 q 130 747 131 751 q 125 735 129 743 q 125 726 128 732 q 124 710 126 715 q 122 704 121 707 q 119 696 122 701 q 120 689 119 693 q 118 682 121 685 q 118 676 119 679 q 118 671 117 672 q 117 661 118 665 q 114 654 115 657 l 114 638 q 113 633 111 635 q 113 625 114 631 q 113 613 110 613 q 110 603 110 610 q 108 594 110 597 q 108 588 108 592 q 110 582 107 583 q 108 574 107 578 q 108 564 110 569 q 106 551 108 554 q 108 542 108 546 q 110 536 107 538 q 108 527 107 532 q 106 519 108 522 q 107 510 108 515 q 106 503 106 506 q 107 490 110 497 q 106 472 108 478 q 107 464 107 468 q 108 457 107 460 q 108 450 108 454 q 110 444 107 446 q 110 434 111 438 q 108 425 108 431 q 111 413 108 417 q 112 403 113 408 q 114 393 111 399 q 113 389 114 392 q 113 381 113 386 q 117 365 117 375 q 115 350 115 361 q 118 344 118 349 q 118 338 118 340 q 119 329 117 331 q 121 324 121 328 q 121 306 124 313 q 124 299 124 303 q 122 294 124 296 q 126 287 126 289 q 129 281 126 285 q 128 274 128 278 q 128 268 128 269 q 131 260 132 263 q 131 253 129 257 q 134 246 135 250 q 138 239 133 242 q 138 234 138 238 q 140 225 138 231 q 140 222 142 224 q 140 213 139 219 q 145 207 144 210 q 147 203 146 204 q 149 197 149 201 q 146 192 149 193 q 149 186 149 188 q 154 181 150 185 q 158 169 151 171 q 157 164 156 167 q 157 160 158 161 q 164 150 165 150 q 166 144 164 147 q 169 138 168 140 q 172 134 171 135 q 175 129 172 133 q 177 120 175 124 q 179 115 179 117 q 183 108 182 111 q 188 100 185 104 q 193 92 190 93 q 197 88 196 90 q 200 82 197 83 q 206 78 203 81 q 210 69 207 71 q 213 64 213 67 q 225 57 215 60 q 229 51 228 53 q 232 47 231 50 q 239 42 238 44 q 244 38 240 40 l 258 29 l 271 24 l 292 22 l 308 21 q 325 22 317 19 q 342 19 332 19 q 351 22 347 22 q 358 24 356 22 q 368 25 369 24 l 392 32 l 410 46 l 422 60 q 427 64 425 63 q 432 68 429 65 q 440 76 435 78 q 444 82 443 79 q 449 90 444 85 q 457 97 449 92 q 459 103 457 100 q 461 110 461 107 q 469 125 461 117 q 472 131 471 128 q 476 135 472 133 q 478 143 479 142 q 478 151 478 144 q 483 158 481 153 q 485 167 486 164 q 488 174 488 169 q 490 181 489 178 q 499 199 494 188 q 499 206 499 201 q 501 218 499 211 q 503 223 501 219 q 506 229 504 226 q 506 235 507 232 q 508 240 506 238 q 510 249 511 246 q 513 254 510 251 q 514 267 514 257 q 515 272 515 269 q 514 279 514 274 q 519 289 519 283 q 521 304 522 301 q 522 310 522 307 q 522 315 521 313 q 524 326 522 324 q 524 333 524 331 q 524 340 525 336 q 529 353 526 350 q 526 363 528 358 q 528 369 525 367 q 528 376 526 372 q 529 383 529 381 l 529 399 q 530 407 529 401 q 531 414 531 413 l 531 433 q 528 450 528 436 q 529 460 529 453 q 529 471 529 467 q 531 493 528 478 l 528 506 l 531 519 l 531 538 l 529 553 l 531 565 l 529 581 l 531 596 l 528 613 l 525 626 l 525 639 l 519 657 l 521 669 q 517 681 518 676 q 514 692 515 686 q 514 700 513 694 q 515 708 515 706 q 512 719 513 715 q 507 728 511 724 q 507 735 508 732 q 506 744 506 738 q 504 751 506 747 q 501 758 503 756 q 499 776 503 765 q 494 788 494 783 q 490 798 492 794 q 486 806 489 801 q 485 811 485 807 q 483 818 485 815 q 482 824 483 821 q 481 828 482 825 q 472 840 475 839 q 468 847 469 844 q 469 856 467 849 q 464 859 467 857 q 460 867 461 861 q 457 872 460 869 q 456 872 454 874 q 451 879 451 876 q 450 886 450 882 q 444 888 447 885 q 443 890 442 892 q 439 898 439 896 q 436 901 439 900 q 429 910 428 907 q 421 915 424 915 q 410 922 411 922 q 400 931 400 931 q 396 934 397 933 q 393 936 394 935 q 389 936 390 936 q 379 941 382 940 q 374 944 376 942 q 367 944 371 942 q 358 943 364 946 q 354 947 358 946 q 349 950 350 947 q 340 949 343 947 q 331 949 338 950 q 323 951 328 951 q 315 950 318 950 l 296 950 l 279 953 l 258 942 l 257 940 z "},"1":{"ha":326,"x_min":39,"x_max":290,"o":"m 44 0 l 58 6 l 75 11 q 83 12 79 10 q 86 13 86 14 q 100 18 99 17 q 107 19 103 17 q 114 22 111 21 q 124 22 121 22 q 129 25 126 22 q 142 29 136 25 q 150 33 149 31 q 153 38 151 35 q 161 51 157 49 q 164 65 160 56 q 167 81 161 72 q 167 89 168 83 q 164 100 165 94 q 165 106 165 103 q 168 114 165 110 q 168 119 169 115 q 169 129 167 124 q 172 133 172 131 q 172 142 171 136 q 172 149 169 146 q 172 157 174 151 q 172 171 171 167 q 172 179 171 176 q 171 188 174 182 q 172 194 171 190 q 174 201 172 199 q 172 211 171 206 q 175 219 174 217 q 174 226 172 222 q 172 233 175 229 q 173 240 174 236 q 175 250 172 244 q 175 256 175 253 q 174 265 175 258 q 174 272 174 268 q 176 278 174 275 q 174 287 174 282 q 172 294 175 292 q 173 301 172 297 q 174 308 174 306 q 174 314 176 311 q 175 321 172 317 q 174 327 172 324 q 174 338 176 331 q 173 342 175 339 q 171 350 171 346 q 174 356 174 353 q 174 364 174 358 q 174 371 175 367 q 171 378 172 375 q 172 385 172 382 q 174 392 172 389 q 172 398 171 393 q 169 406 172 403 q 170 413 171 408 q 169 419 169 417 q 172 427 171 424 q 174 432 174 431 q 170 441 171 438 q 169 447 169 444 q 169 453 168 450 q 171 463 171 457 q 169 474 169 468 q 171 481 169 476 q 169 488 172 485 q 170 497 169 494 q 169 506 171 500 q 171 512 172 508 q 169 517 169 515 q 170 526 171 522 q 169 532 169 529 q 167 543 169 543 q 169 552 168 549 q 169 563 171 556 q 168 567 167 564 q 169 572 169 569 q 169 586 175 586 q 170 594 171 589 q 172 603 169 600 q 174 617 172 610 q 173 624 172 619 q 174 632 174 629 q 172 638 171 636 q 174 643 172 640 q 171 652 171 650 q 171 661 171 654 q 174 667 174 664 q 172 674 174 671 q 175 689 175 675 q 176 704 172 696 q 175 710 174 706 q 176 718 176 715 q 178 732 175 722 q 176 737 176 732 q 175 744 176 742 l 174 754 l 175 768 q 172 774 172 771 q 168 779 171 776 q 163 783 164 781 q 156 782 161 785 q 138 781 143 782 q 133 779 135 779 q 129 776 132 779 q 121 776 125 779 q 110 772 117 774 q 105 772 110 774 q 97 768 100 771 q 91 765 93 767 q 83 761 89 764 q 77 759 82 761 q 68 757 72 757 q 60 753 64 754 q 53 751 57 753 l 39 743 l 51 756 q 60 759 57 756 q 64 764 63 763 q 72 772 71 768 q 78 774 74 775 q 82 778 79 776 q 86 783 85 781 q 94 789 90 788 q 100 796 97 790 q 104 801 101 799 q 106 807 107 804 q 113 812 111 810 q 118 817 114 814 q 123 823 121 821 q 126 826 125 825 q 131 834 128 832 q 136 842 133 836 q 143 853 136 846 q 147 858 146 856 q 150 863 147 861 q 152 873 150 869 q 154 879 154 876 q 158 885 158 882 q 161 892 158 888 q 168 906 161 899 q 172 917 167 914 q 174 925 174 922 q 175 931 175 928 q 176 947 179 942 l 179 963 l 182 968 l 188 969 q 189 963 190 965 q 188 958 188 961 q 190 951 190 954 q 192 944 189 947 q 190 934 192 938 q 186 926 189 931 q 190 922 189 924 q 192 914 192 921 q 189 908 190 911 q 188 901 188 906 q 190 886 190 893 q 192 875 188 881 q 189 866 190 868 q 190 861 188 864 q 190 851 192 854 q 188 844 188 849 q 190 838 189 842 q 186 831 190 833 q 190 823 189 826 q 192 815 192 819 q 190 810 190 813 q 189 803 190 807 q 189 796 190 799 q 188 792 188 793 q 190 781 189 785 q 190 776 190 778 q 189 767 188 769 q 190 760 190 764 q 190 747 188 757 q 189 740 188 744 q 189 733 190 736 q 188 721 192 722 q 189 707 192 714 q 191 697 190 700 q 192 689 192 693 q 192 675 188 685 q 190 670 189 672 q 188 665 190 668 q 190 649 190 654 q 189 642 190 646 q 190 633 188 638 q 189 628 188 632 q 190 622 190 624 q 190 613 190 615 q 188 608 189 611 q 190 601 189 606 q 192 593 190 596 q 190 586 189 589 q 189 579 190 583 q 189 564 192 569 q 190 558 192 563 q 188 550 189 553 q 188 544 189 547 q 188 536 188 540 q 190 529 190 532 q 190 522 189 526 q 188 516 188 518 q 188 510 189 514 q 190 502 190 504 q 189 493 190 500 q 190 488 189 490 q 192 479 192 486 q 191 473 190 476 q 190 467 192 469 q 188 460 189 463 q 189 454 188 458 q 190 446 190 451 q 190 442 190 443 q 190 432 192 435 q 192 425 189 429 q 190 419 189 422 q 192 414 190 415 q 189 397 189 408 q 190 390 192 394 q 190 383 188 386 q 192 367 189 381 q 188 361 189 365 q 190 354 188 357 l 190 344 q 190 336 190 340 q 188 328 190 332 q 188 315 194 319 q 189 308 189 313 q 190 299 189 303 q 190 292 189 294 q 190 288 192 290 l 190 272 q 192 258 188 268 q 191 251 192 253 q 188 244 190 249 q 190 237 190 242 q 189 229 189 232 q 190 224 192 226 q 189 217 189 221 q 190 208 192 210 q 190 201 189 206 q 190 194 192 199 q 188 186 189 189 q 190 172 192 179 q 191 168 189 171 q 192 163 193 165 q 190 153 190 156 q 193 144 189 150 q 192 142 192 143 q 190 133 190 139 q 190 126 188 131 q 193 117 192 122 q 192 103 192 111 q 192 88 189 97 q 192 84 192 86 q 190 76 193 82 q 190 63 189 71 q 192 57 189 60 q 193 50 194 54 q 196 44 196 47 q 199 35 196 40 q 203 31 200 32 q 208 29 207 29 q 215 24 213 26 q 225 18 218 22 l 240 15 l 257 13 l 272 3 l 290 0 l 268 3 l 247 1 l 231 3 l 217 1 l 197 1 l 183 1 l 165 -1 l 150 0 l 135 1 l 118 -1 l 104 0 l 92 -3 l 74 -3 l 60 -3 l 42 -1 l 44 0 z "},"2":{"ha":493,"x_min":49,"x_max":443,"o":"m 50 24 q 51 29 49 26 q 50 36 53 32 q 51 46 50 43 q 51 50 53 49 q 56 60 54 56 q 57 68 57 64 q 60 81 60 74 q 63 86 63 83 q 64 94 63 89 q 63 99 63 94 q 67 106 64 103 q 67 112 67 110 q 68 121 68 114 q 72 133 76 125 q 76 139 75 135 q 81 144 78 143 q 81 152 79 147 q 82 157 83 157 q 86 165 85 161 q 90 172 88 169 q 94 180 93 178 q 96 188 96 182 q 97 191 96 189 q 101 200 99 193 q 103 206 100 201 q 104 214 106 210 q 110 226 107 217 q 113 233 111 229 q 117 239 115 236 q 122 251 118 247 q 125 258 125 254 q 129 267 125 261 q 132 275 129 272 q 140 289 140 283 q 150 300 146 300 q 154 314 153 311 q 158 320 156 317 q 161 328 161 324 q 166 333 164 331 q 171 336 168 335 q 173 342 171 339 q 176 350 175 346 q 181 354 179 351 q 186 357 183 357 q 196 369 192 367 q 199 376 196 374 q 203 383 201 378 q 207 389 204 386 q 213 393 210 392 q 221 406 217 397 q 225 410 221 408 q 232 415 229 413 q 234 420 232 418 q 238 425 236 422 q 244 431 240 429 q 249 433 247 433 q 253 440 251 436 q 257 446 254 444 q 268 456 265 449 q 276 467 269 461 q 281 473 278 471 q 288 478 285 475 q 290 484 289 481 q 296 488 292 488 q 301 494 299 492 q 304 499 304 497 q 313 511 310 503 q 324 522 319 519 q 335 535 326 531 q 343 549 336 536 q 346 553 344 550 q 351 556 349 556 q 355 562 353 558 q 357 568 357 565 q 362 573 360 571 q 367 579 364 575 q 367 588 365 585 q 369 593 368 590 q 375 599 372 596 q 379 603 378 603 q 380 610 378 606 q 383 619 382 614 q 389 629 389 621 q 392 636 390 632 q 393 643 393 640 q 397 651 394 647 q 399 658 399 654 q 401 664 401 661 q 404 668 401 667 l 404 685 q 406 690 404 688 q 408 697 408 693 q 409 704 411 701 q 407 713 407 707 q 410 719 408 715 q 408 726 411 724 q 412 736 411 733 q 410 743 413 739 q 410 751 410 747 q 411 758 411 756 q 410 771 411 771 q 409 779 408 775 q 411 790 410 783 q 410 803 408 797 q 406 819 410 814 q 404 835 407 825 q 404 840 406 836 q 403 850 403 844 q 399 860 397 858 q 392 874 396 872 q 390 882 392 881 q 386 889 388 883 q 385 894 388 892 q 381 901 383 896 q 376 906 378 904 q 372 910 375 907 q 367 917 369 915 q 363 925 365 918 q 358 928 363 928 q 351 933 354 929 q 346 935 349 932 q 340 939 343 939 q 332 949 336 942 q 317 953 321 946 q 309 951 314 950 q 300 951 304 953 q 292 953 297 953 q 281 957 286 954 q 269 956 279 951 q 263 951 265 953 q 256 953 261 950 q 251 949 254 951 q 246 950 247 947 q 238 945 240 949 q 229 942 235 942 q 223 942 226 943 q 215 939 219 940 q 211 933 213 936 q 207 932 210 931 q 199 925 203 928 q 192 919 194 922 q 187 918 189 919 q 181 914 185 917 q 176 909 178 911 q 169 904 174 907 q 164 897 167 899 q 158 893 161 894 q 153 887 156 890 q 150 883 151 883 q 145 876 147 881 q 140 869 143 872 q 135 865 138 867 q 131 860 133 863 q 126 852 126 856 q 124 846 125 849 q 114 832 117 839 q 104 821 107 829 q 99 814 101 818 q 97 808 97 810 q 94 801 97 804 q 89 793 92 797 q 88 788 88 790 q 86 778 88 785 q 79 769 81 774 q 76 761 78 765 q 75 756 75 757 q 72 742 72 750 q 64 718 64 729 q 63 727 64 722 q 65 736 63 732 q 66 744 67 739 q 67 751 65 749 q 69 758 69 756 q 69 763 68 761 q 69 772 69 767 q 72 779 69 776 q 71 786 71 782 q 71 794 71 790 q 74 799 74 796 q 76 806 74 803 q 79 821 75 813 q 79 829 78 824 q 81 838 81 835 q 80 842 78 840 q 81 851 82 844 q 82 858 81 856 q 83 867 83 860 q 86 872 85 869 q 86 878 88 875 q 87 886 85 885 q 86 892 89 888 q 90 906 92 904 q 92 915 93 913 q 92 922 90 918 q 94 928 93 925 q 97 935 96 931 q 101 929 100 932 q 107 925 101 926 q 113 919 110 921 q 118 915 115 918 q 131 911 126 910 q 140 910 136 910 q 147 911 144 911 q 153 916 150 913 q 158 921 156 919 q 166 922 163 919 q 169 926 169 924 q 181 933 175 931 q 189 939 186 936 q 197 947 194 940 q 213 951 204 951 q 219 954 215 954 q 226 957 222 954 q 233 960 231 960 q 238 964 235 961 q 247 965 244 963 q 256 967 250 967 q 266 967 263 965 q 278 965 269 968 q 285 967 281 968 q 293 968 290 965 q 300 965 297 967 q 307 963 303 963 q 315 961 310 961 q 326 961 321 961 q 333 956 329 957 q 340 950 338 954 q 346 947 344 949 q 350 946 347 944 q 357 939 353 942 q 361 933 361 936 q 374 924 371 933 q 382 914 382 918 q 388 908 385 911 q 392 901 390 904 q 395 896 393 899 q 397 890 397 893 q 401 882 399 883 q 406 878 403 881 q 410 860 411 867 q 414 856 413 858 q 418 847 415 853 q 419 841 418 843 q 424 832 421 839 q 424 826 424 829 q 426 821 424 822 q 427 813 428 817 q 428 806 426 810 q 430 796 429 799 q 433 789 431 793 q 433 778 431 785 q 433 760 435 769 q 435 753 436 757 q 436 747 433 749 q 436 732 439 740 q 435 724 436 728 q 438 713 435 721 q 436 700 433 711 q 434 690 436 694 q 435 682 432 686 q 432 676 432 679 q 432 669 432 672 q 428 654 428 661 q 426 648 428 651 q 424 642 425 644 q 417 625 426 632 q 417 615 414 619 q 412 609 413 613 q 410 599 411 606 q 407 595 408 597 q 403 590 406 593 q 397 578 403 582 q 394 572 394 575 q 389 568 393 568 q 385 560 386 561 q 381 556 383 558 q 380 549 382 551 q 375 547 378 547 q 368 536 375 539 q 365 530 367 533 q 360 526 363 526 q 356 520 358 522 q 351 515 354 518 q 347 510 349 513 q 343 506 346 508 q 338 500 342 501 q 332 496 335 499 q 326 489 329 492 q 322 483 324 486 q 314 472 317 479 q 307 468 310 469 q 303 461 304 467 q 290 453 297 460 q 281 444 289 447 q 275 438 278 442 q 269 433 272 433 q 262 426 264 431 q 257 419 260 422 l 246 408 q 238 403 243 403 q 234 395 235 399 q 231 389 233 392 q 225 383 228 386 q 219 378 222 381 q 208 368 211 369 q 204 362 206 365 q 197 356 203 358 q 195 351 199 353 q 192 343 192 350 q 186 339 189 343 q 181 333 183 335 q 176 324 176 324 q 172 317 174 319 q 167 307 169 314 q 163 301 164 304 q 158 294 161 297 q 156 291 157 292 q 153 285 156 290 q 150 278 151 281 q 149 271 149 275 q 140 257 144 263 q 138 252 138 254 q 135 247 138 250 q 133 239 133 242 q 132 233 132 236 q 128 228 129 231 q 126 221 126 225 q 122 213 124 217 q 118 204 119 210 q 114 192 118 203 q 113 185 114 186 q 114 176 111 183 q 110 172 111 174 q 106 165 108 169 q 103 151 106 156 q 101 144 103 149 q 100 135 100 140 q 97 122 101 132 q 96 117 96 119 q 93 107 96 114 q 92 96 92 104 q 90 88 89 92 q 88 82 92 85 q 87 74 88 79 q 86 65 86 68 q 86 61 86 64 q 85 53 86 57 q 91 56 88 56 q 97 56 94 56 q 104 56 100 56 q 111 56 108 57 q 119 53 114 53 q 125 53 124 53 q 134 53 131 51 q 142 51 138 54 q 149 53 144 54 q 157 51 154 51 q 163 52 161 53 q 168 53 165 51 q 185 51 182 53 q 192 50 189 49 q 199 50 196 51 q 214 50 208 47 q 222 48 219 49 q 228 47 225 47 q 236 48 233 50 q 240 47 239 46 q 251 48 247 49 q 257 50 256 47 q 274 50 265 44 q 281 48 276 49 q 288 50 285 47 q 303 53 297 47 q 308 53 307 51 q 315 56 310 54 q 326 60 321 58 q 338 67 329 58 q 349 74 342 64 q 356 77 353 75 q 361 81 358 79 q 367 88 364 83 q 375 94 371 92 q 381 106 375 100 q 385 114 383 110 q 393 121 388 118 q 394 127 392 124 q 399 133 397 131 q 404 140 401 136 q 410 147 407 143 q 412 154 411 150 q 413 160 413 158 l 422 176 l 429 193 l 439 210 l 442 224 q 443 213 443 222 q 441 208 440 213 q 438 200 442 204 q 438 196 438 199 q 435 190 438 193 q 435 183 438 186 q 435 178 432 181 q 431 169 432 174 q 429 164 429 165 q 426 144 426 150 q 423 135 425 140 q 418 128 421 131 q 416 119 417 124 q 417 111 415 114 q 413 103 414 108 q 410 96 413 99 q 409 87 411 92 q 406 78 407 82 q 405 69 407 72 q 400 60 403 67 q 399 53 399 56 q 396 46 399 50 q 394 37 396 42 q 393 29 393 32 q 390 21 392 25 q 386 13 388 17 q 383 0 386 8 q 378 -11 381 -10 q 376 -25 375 -21 q 374 -28 374 -28 q 371 -35 374 -29 q 368 -39 375 -42 q 367 -33 367 -36 q 363 -25 367 -31 q 360 -17 361 -21 q 353 -11 358 -14 q 349 -6 351 -8 q 346 -1 346 -3 q 332 7 340 7 q 326 9 331 10 q 321 11 322 8 q 307 18 310 13 q 297 20 300 21 q 286 22 293 19 q 281 22 283 19 q 276 21 279 24 q 267 22 269 21 q 258 24 264 22 q 254 24 257 26 q 246 22 251 22 q 235 23 239 22 q 229 25 232 24 q 222 24 225 24 q 213 25 218 25 q 202 24 207 24 q 193 22 197 24 q 185 24 189 24 q 181 25 182 24 l 163 26 l 151 25 l 136 22 l 119 26 l 108 21 l 92 21 l 76 22 l 64 25 l 50 22 l 50 24 z "},"3":{"ha":599,"x_min":63,"x_max":538,"o":"m 175 486 q 180 494 178 489 q 185 501 182 499 q 186 506 183 503 q 192 514 189 510 q 199 519 196 515 q 203 528 201 524 q 215 544 210 532 q 219 549 218 543 l 221 550 q 224 553 221 553 q 232 563 232 561 q 234 567 232 565 q 239 572 236 569 q 242 576 240 574 q 247 579 244 579 q 250 588 250 586 q 256 592 250 590 q 264 603 261 603 q 267 610 267 608 q 271 618 268 613 q 277 622 275 619 q 282 628 279 625 q 285 637 282 633 q 290 644 289 640 q 297 651 293 647 q 304 660 301 654 q 311 674 303 661 q 318 678 314 675 q 325 689 322 682 q 328 695 326 692 q 332 701 329 699 q 339 707 335 704 q 344 714 343 710 q 354 733 354 724 q 362 740 360 738 q 369 747 364 743 q 382 763 374 760 q 384 774 382 769 q 389 782 386 778 q 398 788 396 783 q 401 793 400 793 q 406 801 404 799 q 411 810 408 804 q 417 816 414 813 q 418 821 419 819 q 428 835 426 833 l 438 844 q 438 851 436 849 q 442 857 439 854 q 443 860 442 858 q 447 864 447 864 q 447 869 447 869 q 448 874 446 872 q 447 874 450 875 q 439 888 450 885 q 426 893 433 896 q 418 896 422 896 q 408 897 414 896 q 397 900 404 900 q 386 903 390 900 q 378 901 383 900 q 368 903 372 903 q 349 904 361 900 q 344 902 347 901 q 336 900 342 903 q 329 902 333 900 q 324 901 325 904 q 319 901 321 900 q 317 900 318 903 q 308 903 311 903 q 300 903 306 903 q 294 903 296 904 q 285 901 292 901 q 278 901 282 903 q 268 899 275 900 q 263 900 267 900 q 256 899 258 900 q 248 897 250 897 q 240 894 246 897 q 233 896 235 897 q 225 892 232 894 q 213 885 218 892 q 206 883 208 883 q 197 882 203 882 q 186 872 189 879 q 174 863 179 872 q 167 861 169 863 q 160 858 165 860 q 150 846 160 850 q 146 839 149 843 q 139 832 143 835 q 135 829 136 831 q 132 825 135 828 q 127 817 128 819 q 124 808 126 814 q 122 806 122 807 q 119 803 121 804 q 117 800 118 801 q 113 791 114 793 q 108 783 111 789 q 103 779 106 783 q 99 774 101 775 q 97 767 99 769 q 93 761 94 764 q 99 774 90 764 q 99 780 97 778 q 100 785 101 782 q 102 792 100 789 q 101 799 104 796 q 104 806 106 801 q 106 811 103 811 q 108 828 108 818 q 113 840 113 832 q 115 847 115 843 q 117 857 115 850 q 119 863 117 860 q 119 871 121 865 q 125 883 125 874 q 128 899 125 893 q 133 910 132 903 q 133 918 132 914 q 135 928 135 922 q 138 933 138 931 q 142 943 139 936 q 143 948 142 944 q 146 954 144 951 l 151 944 q 156 937 154 942 q 157 928 158 932 q 162 922 160 925 q 163 917 164 918 q 171 917 168 915 q 176 915 174 918 q 185 916 183 917 q 194 915 188 915 q 200 916 196 914 q 210 917 204 918 q 222 914 214 917 q 236 914 233 919 q 244 915 239 913 q 253 915 250 917 q 260 915 256 914 q 267 914 264 915 q 281 917 269 911 q 288 915 283 915 q 297 915 293 915 q 303 915 300 914 q 310 915 306 915 q 316 913 313 914 q 324 914 319 911 q 330 913 326 913 q 339 914 333 914 q 353 911 344 914 q 365 913 360 910 q 375 911 371 911 q 381 910 379 911 q 389 910 385 910 q 399 913 393 911 q 406 910 403 911 q 411 908 408 908 q 429 908 418 911 q 434 908 432 910 q 439 908 436 907 q 448 909 443 908 q 456 910 453 910 l 471 910 l 485 906 l 500 904 l 524 906 l 536 896 l 538 889 q 527 888 531 888 q 519 885 524 888 q 511 881 515 882 q 504 878 507 881 q 498 875 501 878 q 493 871 494 872 q 479 864 486 871 q 471 856 474 858 q 464 851 468 853 q 459 845 461 849 q 454 842 457 842 q 447 832 453 840 q 442 825 444 828 q 436 819 440 822 q 432 815 433 817 q 428 808 431 813 q 422 803 425 804 q 417 800 419 801 q 414 794 417 797 q 408 785 411 790 q 399 775 407 781 q 395 767 397 769 q 389 760 393 765 q 387 756 390 758 q 382 753 383 754 q 372 738 381 749 q 370 733 374 736 q 367 726 367 731 q 358 715 358 721 q 353 710 356 713 q 347 704 350 707 q 345 700 346 703 q 340 692 344 697 q 332 682 338 683 q 328 676 329 679 q 324 669 326 672 q 319 664 321 667 q 315 658 318 661 q 312 651 314 653 q 308 644 310 650 l 301 640 l 314 636 l 329 631 l 344 628 l 358 625 q 364 623 363 624 q 369 621 365 622 q 376 619 375 619 q 383 615 378 618 q 397 611 390 611 q 410 601 400 606 q 421 590 418 599 q 435 582 431 590 q 442 577 440 579 q 449 572 444 575 q 453 565 451 567 q 460 560 456 564 q 464 554 461 557 q 468 549 467 551 q 473 544 471 546 q 478 540 475 543 q 485 529 479 532 q 492 517 485 518 q 499 501 492 507 q 498 495 496 497 q 504 489 500 493 q 505 483 503 486 q 508 474 507 479 q 510 470 511 472 q 511 463 508 468 q 513 455 511 458 q 513 446 515 451 q 516 440 515 444 q 519 433 517 436 q 519 426 519 429 q 522 418 519 422 q 523 413 524 415 q 522 406 522 410 q 526 392 526 396 q 526 383 525 388 q 528 374 528 378 q 527 369 528 372 q 529 361 526 365 q 529 347 524 353 q 528 340 526 344 q 526 333 529 336 q 528 319 533 329 q 526 312 528 314 q 526 307 525 310 q 528 297 529 300 q 526 292 526 294 q 524 282 524 285 q 525 276 525 279 q 522 260 526 269 q 522 251 522 254 q 519 243 522 249 q 519 237 519 240 q 519 231 518 233 q 516 223 518 226 q 513 217 514 219 q 513 206 514 210 q 513 199 511 201 q 508 193 508 196 q 504 189 507 190 q 500 172 504 181 q 494 157 500 163 q 493 153 496 156 q 488 147 490 150 q 485 140 488 144 q 483 135 483 136 q 475 119 482 128 q 472 114 472 117 q 469 110 472 111 q 464 102 467 104 q 461 99 461 100 q 456 91 457 96 q 451 85 454 86 q 439 74 449 79 q 435 67 438 68 q 432 63 433 65 q 425 55 428 57 q 419 50 422 53 q 415 45 417 47 q 408 43 413 43 l 396 31 q 385 25 392 26 q 378 20 381 21 q 372 17 375 19 q 365 13 367 15 q 357 11 363 11 q 343 8 351 3 q 337 4 340 6 q 332 6 333 3 q 324 2 328 3 q 315 0 321 1 q 307 0 310 1 q 301 1 304 -1 q 293 0 296 1 q 286 -1 290 -1 q 280 2 282 1 q 276 4 278 3 q 260 8 263 6 q 253 10 256 10 q 246 14 251 11 q 241 15 243 14 q 233 19 239 17 q 231 24 233 21 q 222 26 228 26 q 210 36 222 29 q 201 49 206 40 q 197 51 199 50 q 190 54 194 53 q 184 60 188 58 q 178 65 181 63 q 174 74 175 69 q 168 78 172 78 q 164 86 167 85 q 161 90 161 88 q 154 96 158 93 q 149 103 150 99 q 139 113 144 110 q 137 119 139 117 q 132 125 135 122 q 124 133 128 133 q 110 150 115 140 q 97 158 99 154 q 90 161 94 158 q 83 164 86 164 q 73 158 78 163 q 63 150 68 154 q 63 161 67 161 q 65 170 65 167 q 65 176 64 174 q 67 183 68 179 q 67 194 65 188 q 69 199 69 196 q 71 204 68 201 q 74 217 71 214 q 75 232 71 224 q 76 249 75 242 q 79 255 79 251 q 82 263 79 258 q 81 267 83 264 q 82 274 79 269 q 85 280 83 276 q 88 288 88 283 q 86 294 85 290 q 88 301 88 299 q 88 306 88 304 q 89 310 89 308 q 90 313 89 311 q 92 309 92 311 q 94 301 92 307 q 93 296 94 297 q 94 292 92 294 l 94 275 q 98 269 97 272 q 100 264 99 267 q 101 251 100 253 q 103 242 103 246 q 106 235 103 238 q 107 228 107 232 q 110 219 107 224 q 111 213 113 217 q 113 207 110 208 q 117 193 113 200 q 119 185 119 188 q 124 179 119 183 q 126 172 122 175 q 131 164 129 169 q 132 158 132 160 q 136 151 132 156 q 138 144 135 147 q 142 139 140 142 q 147 124 147 131 q 154 114 149 118 q 158 107 154 110 q 160 101 161 104 q 166 96 165 99 q 171 89 167 93 q 175 85 174 88 q 179 81 176 82 q 183 75 182 76 q 188 71 185 74 q 196 60 190 65 q 206 50 196 54 q 210 50 208 51 q 218 47 213 49 q 224 41 221 42 q 231 39 228 40 q 238 38 235 39 q 243 35 240 36 q 249 32 246 32 q 256 29 253 32 q 267 28 263 29 q 275 26 271 28 q 281 27 278 29 q 289 26 285 25 q 294 27 293 28 q 303 25 296 26 q 309 24 306 25 q 315 24 313 24 q 324 24 318 25 q 332 26 329 24 q 343 29 338 26 q 353 30 349 31 q 361 32 357 29 q 368 31 364 31 q 375 32 372 32 q 380 36 378 35 q 389 39 382 38 q 394 42 392 42 q 400 46 397 43 q 411 53 407 46 q 415 58 414 56 q 421 61 417 60 q 426 67 424 64 q 432 71 428 69 q 442 79 439 78 q 444 85 442 82 q 447 92 446 88 q 456 103 456 97 q 467 114 460 110 q 468 119 468 117 q 471 124 468 122 q 476 140 476 129 q 481 144 479 140 q 485 150 482 147 q 487 158 485 156 q 490 163 489 161 q 491 171 492 167 q 493 179 490 175 q 497 194 497 188 q 499 204 501 199 q 501 213 501 210 q 504 219 501 215 q 506 227 506 222 q 510 235 506 232 q 510 242 510 238 q 508 247 510 246 q 510 256 510 253 q 508 264 511 260 q 512 269 511 267 q 514 276 513 272 q 513 289 514 286 q 517 304 513 299 q 515 314 514 311 q 515 318 515 317 q 517 324 518 322 q 517 329 515 326 q 514 347 519 338 q 515 353 513 350 q 515 361 517 357 q 514 365 515 363 q 514 374 513 368 q 514 381 515 376 q 514 388 513 385 q 513 394 513 390 q 510 403 513 399 q 507 417 510 414 q 507 432 504 426 q 503 439 503 435 q 500 444 503 443 l 500 457 q 494 475 492 465 q 490 481 492 478 q 488 486 488 485 q 485 492 485 489 q 483 500 485 496 q 480 506 481 503 q 475 515 479 510 q 472 519 474 518 q 471 528 471 521 q 465 533 468 529 q 463 539 463 536 q 457 544 460 542 q 451 549 454 547 q 447 560 447 557 q 440 565 440 563 q 438 569 439 567 q 431 575 433 574 q 425 581 428 576 q 419 585 422 583 q 415 589 415 588 q 404 597 404 596 q 398 602 401 600 q 392 606 394 604 q 384 609 389 608 q 375 613 379 610 q 363 618 367 613 q 356 619 358 621 q 350 621 353 618 l 325 624 q 321 623 322 625 q 317 622 319 621 q 308 619 313 619 q 301 619 304 619 q 286 610 293 613 q 271 600 285 604 q 260 586 271 593 q 254 580 256 582 q 249 575 253 578 q 244 565 246 569 q 236 556 242 560 q 232 550 235 554 q 229 543 229 546 q 222 538 225 542 q 217 532 219 535 q 213 524 213 525 q 210 519 213 522 q 197 506 201 511 q 194 500 197 503 q 193 499 192 497 l 176 486 l 175 486 z "},"4":{"ha":515,"x_min":31,"x_max":486,"o":"m 328 263 q 315 263 322 267 q 306 265 308 264 q 301 263 304 265 q 286 265 293 261 q 277 264 281 264 q 268 267 274 264 q 256 265 260 264 q 247 265 251 267 q 239 264 243 263 q 226 265 236 265 q 214 264 219 265 q 196 264 207 268 q 182 268 192 268 q 178 266 181 265 q 171 264 175 267 q 154 267 163 269 q 149 266 151 267 q 142 269 146 265 q 137 267 139 265 q 132 268 135 268 q 125 267 128 265 q 119 268 122 269 q 110 268 115 268 q 101 265 104 268 q 93 266 99 265 q 86 267 88 267 q 77 269 81 269 q 67 271 74 269 q 60 272 63 272 q 54 271 57 271 q 47 274 50 275 q 40 275 43 274 q 36 279 39 278 q 32 278 33 281 q 31 286 33 285 q 35 292 35 289 q 38 293 36 294 q 39 306 35 299 q 41 312 40 308 q 43 318 42 315 q 47 326 44 321 q 49 335 50 331 q 53 340 51 338 q 60 350 56 343 q 61 356 58 353 q 67 365 64 358 q 75 381 65 372 q 78 391 76 388 q 79 399 81 394 q 83 406 82 401 q 88 415 85 411 q 91 424 89 421 q 94 432 93 428 q 99 440 97 435 q 104 446 101 444 q 108 454 107 451 q 111 460 110 457 q 117 470 114 467 q 119 475 119 474 q 128 489 119 485 q 129 496 128 492 q 133 501 131 500 q 139 510 131 508 q 138 515 136 513 q 142 519 139 517 q 143 525 142 522 q 142 528 144 528 q 146 533 144 531 q 150 538 147 535 q 154 554 154 544 q 159 558 158 557 q 163 563 160 560 q 167 573 165 569 q 168 579 168 576 q 175 589 171 582 q 182 603 178 599 q 185 608 183 606 q 188 618 186 611 q 192 622 190 621 q 194 629 194 624 q 197 635 194 632 q 199 639 199 638 q 210 654 206 646 q 210 660 207 657 q 211 665 213 663 q 217 672 214 669 q 221 678 219 675 q 228 694 222 689 q 235 707 228 700 q 240 717 232 714 q 242 728 240 724 q 246 735 244 732 q 249 740 249 736 q 251 749 249 743 q 258 761 251 751 q 261 766 261 764 q 263 771 261 768 q 265 780 265 776 q 267 788 264 783 q 276 800 274 788 q 278 806 278 803 q 279 814 278 810 q 286 826 285 817 q 290 833 289 829 q 293 839 290 836 q 294 844 292 842 q 297 851 296 847 q 299 858 297 854 q 301 867 300 861 q 307 876 310 872 q 312 883 311 879 q 314 890 313 888 q 317 897 314 894 q 319 906 319 899 q 319 910 318 906 q 324 915 321 914 q 331 928 329 928 q 330 935 329 932 q 332 944 331 939 l 340 957 l 343 968 q 344 954 344 963 q 344 944 343 947 q 346 939 346 942 q 347 922 342 928 q 345 915 347 917 q 343 910 343 913 q 344 894 349 899 q 345 887 344 890 q 344 878 346 883 q 344 867 349 871 q 345 857 346 860 q 346 851 344 854 q 345 842 344 844 q 343 835 346 840 q 344 828 346 832 q 344 822 343 825 q 344 816 344 818 q 344 808 343 814 q 344 801 346 806 q 346 792 343 796 q 347 781 347 788 q 347 772 347 774 q 346 764 346 769 l 346 751 q 343 738 346 743 q 344 728 343 731 q 344 722 346 725 q 345 715 346 718 q 347 706 344 713 q 344 694 342 701 q 346 681 343 686 q 346 673 347 676 q 347 668 344 669 l 347 653 q 345 645 344 647 q 346 638 346 643 l 347 622 l 346 607 l 346 596 l 346 578 l 347 564 l 346 550 l 344 536 l 344 521 l 343 508 l 344 494 l 344 478 l 346 464 l 344 449 l 346 435 l 346 422 l 346 407 l 343 393 l 344 381 l 346 364 l 347 351 l 343 333 l 342 318 l 343 304 l 346 290 l 364 294 l 385 301 q 390 303 388 300 q 396 308 392 306 q 402 310 399 308 q 407 313 406 313 q 411 317 408 314 q 419 324 414 321 q 424 329 421 326 q 428 333 428 332 q 434 340 431 338 q 440 347 438 342 q 451 360 443 351 q 456 367 454 364 q 457 375 458 371 q 463 382 461 378 q 467 388 465 386 q 472 401 471 396 q 481 415 478 410 q 483 421 483 419 q 486 425 483 422 q 484 419 483 422 q 485 413 485 415 q 482 405 483 410 q 479 396 481 400 q 478 390 476 392 q 479 382 479 389 q 476 376 478 381 q 472 367 475 371 q 471 356 475 361 q 469 348 471 350 q 468 343 468 346 q 465 335 467 340 q 464 328 463 331 q 463 321 464 325 q 460 314 463 317 q 458 308 460 311 q 456 301 457 304 q 455 293 456 296 q 453 285 454 290 q 447 271 449 276 q 447 264 449 268 q 444 258 446 260 q 445 249 446 251 q 444 244 444 247 q 440 236 442 240 q 436 231 439 232 q 435 222 436 226 q 436 215 433 217 q 431 222 433 218 q 428 229 429 225 l 421 243 q 417 249 418 246 q 413 254 415 251 q 400 257 406 254 q 390 263 399 260 q 374 267 385 260 q 369 265 372 264 q 360 263 367 265 q 352 265 357 265 q 344 265 347 264 l 342 253 q 344 248 344 250 q 344 244 343 246 q 342 232 344 233 q 342 223 342 226 q 343 214 343 219 l 343 203 q 344 186 349 193 q 346 177 344 181 q 346 165 347 174 q 347 151 344 161 q 349 141 350 144 q 350 135 349 138 l 350 118 q 353 110 354 114 q 356 103 353 106 q 358 90 353 96 q 359 85 358 88 q 358 79 360 82 q 364 73 363 75 q 368 69 365 71 q 370 63 369 67 q 375 53 371 60 q 376 47 374 51 q 383 40 379 43 q 392 33 383 39 q 404 24 397 24 q 414 18 411 21 q 419 15 417 15 q 429 16 426 17 q 436 14 432 15 l 458 11 q 468 6 464 8 q 474 0 472 3 q 469 1 474 3 q 460 0 465 0 q 456 1 460 1 q 450 1 453 1 q 435 1 442 -1 q 428 0 432 1 q 422 0 424 -1 q 415 2 419 0 q 404 3 410 4 q 399 2 401 3 q 393 1 397 1 q 379 3 388 0 q 374 1 376 0 q 364 0 371 3 q 358 3 360 4 q 351 4 356 1 q 344 2 347 1 q 339 1 342 3 q 321 4 333 4 q 308 1 315 1 q 303 1 307 1 q 297 4 300 1 q 283 1 283 1 q 276 3 281 1 q 268 1 271 4 q 261 1 265 0 q 254 0 257 1 q 247 1 250 3 q 242 1 244 0 q 233 1 236 1 q 224 4 229 1 q 210 3 221 -1 q 205 1 207 0 q 199 1 203 3 l 211 6 l 228 15 q 235 17 233 17 q 242 21 238 18 q 249 22 244 22 q 257 24 253 22 q 261 28 260 26 q 265 32 263 31 q 279 40 275 32 q 285 42 283 39 q 288 47 286 46 q 294 54 293 53 q 299 58 296 56 q 306 64 304 61 q 311 69 307 67 q 313 78 313 75 q 314 85 313 82 q 317 92 315 88 q 318 103 318 96 l 319 107 q 322 114 322 113 q 324 131 322 124 q 324 138 326 135 q 325 150 322 142 q 324 155 325 151 q 324 161 322 158 q 326 170 324 168 q 325 178 328 172 l 324 193 l 325 206 l 329 221 l 326 235 l 326 249 l 326 264 l 328 263 m 56 297 l 64 299 q 79 296 74 290 q 85 291 82 292 q 92 289 89 290 q 102 290 99 292 q 111 290 106 288 q 122 289 118 285 q 129 285 125 286 q 136 282 133 285 q 146 284 143 282 q 153 286 149 286 q 169 285 156 281 q 174 283 172 282 q 183 281 176 283 q 196 282 185 285 l 213 281 l 226 282 l 242 282 l 253 282 l 268 283 l 285 283 l 299 279 l 311 285 l 325 283 l 326 290 q 326 306 322 297 q 326 313 325 308 q 326 319 328 317 q 326 327 326 322 q 328 335 326 332 q 326 341 326 339 q 324 347 326 343 q 325 355 325 353 q 328 360 325 357 q 326 367 325 364 q 325 375 328 371 q 326 383 324 378 q 328 390 328 388 q 326 397 325 394 q 326 403 326 400 q 324 410 324 406 q 322 419 325 415 q 326 429 322 425 q 322 444 324 443 q 324 451 325 447 q 325 458 322 456 q 323 465 322 461 q 324 474 324 469 q 323 480 325 476 q 321 486 321 483 q 325 499 325 490 q 323 508 322 506 q 324 517 324 510 q 322 522 321 518 q 325 526 322 526 q 321 540 319 536 q 322 549 321 544 q 319 556 322 554 q 322 563 322 558 q 322 571 322 568 q 321 582 322 582 q 322 590 322 586 q 321 597 321 594 q 323 604 324 600 q 325 614 322 608 q 322 626 325 621 q 325 640 325 632 q 326 651 319 651 q 326 660 328 656 q 328 668 325 664 q 326 675 325 671 q 328 681 326 679 q 328 688 328 683 q 329 699 328 692 q 328 702 328 699 q 326 710 329 706 q 328 717 329 714 q 331 724 328 719 q 331 731 329 728 q 329 738 332 735 q 331 744 332 740 q 332 751 329 747 q 331 761 332 758 q 332 767 329 764 q 331 774 332 771 q 333 779 331 778 q 333 787 333 782 q 329 796 332 792 q 329 800 329 797 q 331 805 331 803 q 333 810 332 807 q 331 817 331 813 q 331 824 332 821 l 326 840 l 318 846 q 312 845 317 849 q 308 842 307 842 q 303 838 304 842 q 300 832 303 835 q 299 826 301 829 q 296 821 297 824 q 290 810 292 811 q 287 801 288 807 q 283 792 286 796 q 274 779 276 785 l 268 765 l 261 753 l 257 740 l 249 728 l 243 714 q 242 710 244 713 q 240 706 239 707 q 240 701 240 704 q 233 696 233 699 q 232 691 233 692 q 228 685 231 690 q 224 676 226 685 q 224 670 225 674 q 222 663 222 667 q 214 651 214 657 q 212 645 214 649 q 208 638 210 642 q 205 631 206 633 q 200 625 204 628 q 198 619 201 622 q 196 613 194 615 q 192 606 193 610 q 188 599 190 601 q 181 582 185 589 q 178 577 179 579 q 175 572 178 575 q 172 568 174 569 q 163 547 171 557 q 157 533 164 543 q 153 526 156 529 q 147 518 151 524 q 144 510 146 515 q 140 503 143 504 q 137 492 138 496 q 133 486 136 489 q 125 465 125 474 q 120 458 122 463 q 115 449 118 454 q 112 439 114 443 q 108 432 110 435 q 105 422 106 428 q 101 411 104 417 q 93 394 96 406 q 85 381 93 392 q 83 374 85 378 q 83 368 82 371 q 78 360 81 364 q 72 353 75 357 q 68 338 75 349 q 67 329 68 333 q 64 322 64 324 q 61 319 64 319 q 60 313 60 315 q 58 307 60 311 q 58 306 58 306 q 58 300 58 303 q 54 300 57 297 l 56 297 z "},"5":{"ha":631,"x_min":33,"x_max":599,"o":"m 35 90 q 35 94 33 93 q 35 99 36 96 q 38 114 35 111 q 39 128 40 118 q 41 133 40 131 q 44 140 42 135 q 43 149 43 143 q 46 158 43 154 q 47 165 49 161 q 50 171 46 169 q 51 180 50 178 q 54 188 53 182 q 54 196 53 192 q 56 207 56 200 q 57 213 57 208 q 60 219 57 218 q 60 228 61 225 q 60 236 58 232 q 63 244 63 242 q 65 250 63 246 q 68 258 68 253 q 68 267 68 264 q 70 272 68 269 q 71 276 72 274 q 75 283 74 279 q 74 288 76 286 q 77 294 76 290 q 81 299 78 297 l 82 283 q 84 275 85 278 q 85 268 83 272 q 88 254 90 261 q 89 247 90 249 q 90 239 88 244 q 96 224 93 232 q 101 208 94 215 q 107 197 101 203 q 108 190 107 194 q 108 183 108 186 q 117 171 115 174 q 119 164 119 168 q 122 157 119 160 q 127 151 126 154 q 133 144 128 147 q 140 131 132 139 q 144 128 143 131 q 149 124 144 125 q 151 116 149 118 q 154 111 153 114 q 160 105 157 107 q 164 97 164 103 q 169 94 167 97 q 176 89 172 92 q 181 83 179 85 q 185 78 183 81 q 197 67 194 74 q 204 64 200 67 q 213 61 208 61 q 224 50 217 54 q 235 43 228 50 q 243 43 240 44 q 247 42 246 42 q 253 38 250 39 q 258 35 257 38 q 275 36 268 33 q 282 33 278 33 q 289 31 286 32 q 296 31 292 31 q 304 33 300 31 q 309 31 306 31 q 315 32 313 32 q 324 30 318 29 q 333 31 331 31 q 351 32 346 31 q 358 32 356 33 q 364 31 361 31 q 374 33 371 31 q 382 33 378 36 q 393 39 388 33 q 401 40 396 39 q 410 40 406 42 q 415 42 413 40 q 422 44 417 43 q 428 47 425 46 q 436 49 431 49 q 441 55 439 54 q 446 57 443 56 q 451 60 449 60 q 456 63 453 61 q 462 68 460 65 q 471 72 464 71 q 474 75 472 74 q 478 79 478 79 q 485 83 483 81 q 488 89 486 86 q 492 92 490 90 q 497 96 494 94 q 503 102 500 99 q 504 106 506 106 q 510 112 510 108 q 514 119 511 115 q 518 123 517 119 q 521 126 519 126 q 524 133 522 129 q 531 138 526 138 q 531 144 529 143 q 536 150 533 146 q 538 156 536 153 q 542 163 540 160 q 549 175 547 171 q 550 182 549 178 q 553 189 551 186 q 554 195 553 192 q 558 199 556 199 q 560 213 556 213 q 562 219 560 215 q 563 226 564 224 q 567 236 565 233 q 565 242 568 239 q 569 251 567 249 q 572 256 571 253 q 572 271 571 261 q 572 279 571 276 q 575 288 574 282 q 574 297 574 289 q 574 306 572 304 q 572 314 575 308 q 574 321 572 317 q 574 332 576 325 q 574 336 574 335 q 578 342 576 342 q 576 348 576 344 q 574 354 576 351 q 573 363 572 360 q 571 367 574 367 q 571 377 572 374 q 569 382 569 381 q 571 390 571 389 q 569 399 571 392 q 567 405 569 400 q 565 411 565 410 q 565 417 565 414 q 563 424 565 421 q 562 431 564 428 q 560 440 560 435 q 558 448 561 446 q 557 454 556 450 q 553 471 553 461 q 544 482 550 474 q 539 497 544 493 q 536 505 536 501 q 532 511 536 508 q 530 516 532 514 q 528 524 528 518 q 525 528 525 526 q 522 536 525 531 q 515 541 517 538 q 513 547 513 544 q 509 552 511 550 q 504 560 507 554 q 494 567 497 563 q 483 578 489 576 q 481 581 483 581 q 475 585 478 582 q 469 590 472 589 q 463 593 467 590 q 454 600 454 599 q 445 603 449 601 q 439 607 442 606 q 431 608 433 607 q 422 608 429 608 q 417 610 421 610 q 408 613 413 610 q 394 617 400 613 q 385 615 389 614 q 379 615 382 615 q 372 617 376 618 q 361 618 367 617 q 358 619 360 619 q 351 621 356 621 q 343 620 347 621 q 336 621 339 619 q 331 619 335 618 q 324 617 326 619 q 310 619 313 619 q 294 617 299 617 q 278 617 288 615 q 260 613 271 610 q 254 611 257 611 q 249 608 251 611 q 238 606 242 606 q 232 603 235 606 q 225 598 226 600 q 219 599 224 596 q 211 593 213 596 q 206 588 210 590 q 201 587 203 589 q 197 582 199 585 q 192 577 194 581 q 186 572 189 574 q 181 568 185 569 q 178 564 178 567 q 167 551 172 561 q 163 547 165 549 q 156 542 160 544 q 152 536 156 540 q 147 528 149 532 q 144 522 146 526 q 138 515 142 518 q 134 511 135 515 q 132 504 133 507 q 125 497 128 500 q 121 492 122 493 q 117 484 118 488 q 114 478 117 481 q 112 472 114 475 q 108 467 110 469 q 103 459 104 461 q 100 453 103 457 q 99 446 100 449 q 96 440 97 443 q 95 435 94 436 q 94 428 96 433 l 89 413 l 79 408 l 79 415 q 81 422 79 419 q 81 428 83 425 q 83 436 82 432 q 83 443 85 440 q 86 453 86 449 q 89 460 86 457 q 91 469 90 467 q 90 476 92 471 l 93 489 l 96 503 l 99 519 l 101 533 l 101 547 l 106 558 l 107 572 l 110 589 l 113 603 l 114 614 l 117 632 q 119 643 119 638 q 119 653 121 650 q 119 657 118 656 q 121 666 121 664 q 122 672 121 668 q 124 681 125 679 q 125 686 122 683 q 126 701 128 700 q 128 709 126 704 q 132 717 131 714 q 131 722 131 719 q 129 732 132 725 q 133 746 136 733 q 135 751 136 749 q 136 758 135 754 q 137 765 136 761 q 140 772 138 769 q 139 783 138 779 q 142 788 140 786 q 140 796 139 793 q 140 806 140 799 q 140 821 143 807 q 142 832 146 829 q 141 844 143 839 q 138 854 139 849 q 135 863 138 860 q 132 872 133 867 q 127 878 129 875 q 122 883 125 881 l 100 896 l 85 910 l 88 914 l 117 910 q 131 914 122 914 q 144 913 140 910 q 161 914 156 913 q 167 913 163 914 q 175 915 171 913 q 188 913 179 915 q 194 914 190 914 q 206 915 199 914 q 211 913 208 913 q 219 914 214 914 q 235 914 231 917 q 247 915 236 918 q 253 916 250 917 q 264 915 257 915 q 269 915 267 917 q 276 915 271 914 l 290 914 l 304 917 l 322 913 l 336 913 l 351 915 l 356 917 q 358 917 357 917 q 361 918 360 918 q 372 914 369 917 q 386 917 382 914 q 396 915 393 914 q 401 917 399 915 q 409 916 404 915 q 417 917 414 917 q 426 917 424 917 q 436 919 429 918 q 442 920 438 919 q 451 921 447 921 q 457 922 454 921 q 465 925 460 922 q 479 925 469 921 q 490 928 485 928 q 503 933 496 933 q 513 939 511 935 q 524 947 515 942 q 536 958 529 949 q 540 965 538 961 q 544 971 542 968 q 556 982 551 971 q 567 999 565 994 q 572 1005 571 1000 q 581 1011 574 1010 q 585 1019 583 1015 q 589 1026 586 1024 q 586 1020 586 1024 q 585 1010 586 1017 q 582 1005 583 1007 q 579 996 581 1003 q 578 982 582 992 q 575 967 574 976 q 571 956 571 965 q 566 948 568 951 q 564 940 564 944 q 563 931 564 935 q 560 924 561 928 q 558 919 558 922 q 556 908 558 915 q 553 904 553 907 q 553 896 554 901 q 548 888 549 893 q 544 881 547 883 q 543 874 543 878 q 540 865 543 871 q 538 861 540 864 q 536 854 536 858 q 533 847 533 851 q 531 840 533 842 l 524 847 l 522 853 q 516 860 519 856 q 510 867 513 864 q 497 871 504 865 q 490 874 493 872 q 483 875 486 875 q 469 878 475 881 q 461 882 467 881 q 451 885 456 883 q 446 883 450 882 q 439 883 442 883 q 433 885 436 886 q 422 886 429 885 q 417 885 419 883 q 411 885 414 888 q 402 885 407 885 q 394 888 397 885 q 384 889 388 890 q 378 890 381 888 q 369 890 372 888 q 358 889 365 892 q 343 888 347 892 q 336 890 340 890 q 325 892 332 889 q 313 892 319 889 q 301 889 308 889 q 292 890 294 889 q 286 890 289 892 q 278 889 282 888 q 272 890 274 890 q 257 892 263 888 q 250 890 253 890 q 240 892 247 889 q 228 886 239 890 q 220 889 225 889 q 213 890 215 889 q 206 889 211 890 q 199 890 201 888 q 192 889 196 889 q 185 889 188 889 l 172 876 l 168 871 q 163 863 165 869 q 160 861 161 861 q 163 858 160 861 q 160 854 161 856 q 154 850 160 853 q 154 844 156 847 q 156 839 153 842 q 153 826 153 828 q 149 819 150 824 q 149 813 147 815 q 148 802 149 806 q 146 794 147 799 q 144 788 146 793 q 140 779 142 782 q 139 764 144 769 q 137 753 138 757 q 136 746 136 749 q 134 736 133 742 q 133 728 135 731 q 131 718 132 724 q 129 707 129 713 q 126 692 129 694 q 126 671 122 678 q 122 653 122 665 q 122 638 125 643 q 120 628 121 631 q 118 619 119 625 q 118 612 119 617 q 118 604 117 607 q 118 599 118 601 q 117 589 118 596 q 115 583 115 586 q 117 581 114 581 q 113 574 114 576 q 111 567 111 572 q 111 557 117 564 q 113 553 113 558 q 118 544 114 546 q 125 540 122 543 q 131 544 126 543 q 139 549 136 546 q 145 552 142 550 q 151 557 149 554 q 158 563 156 560 q 167 567 161 565 q 173 572 168 569 q 181 576 178 574 q 187 582 185 579 q 194 588 189 585 q 199 592 197 590 q 204 599 201 594 q 210 598 207 596 q 215 603 213 600 q 226 610 217 607 q 232 613 228 611 q 239 617 236 615 q 250 619 240 617 q 258 624 256 624 q 263 626 260 625 q 273 626 269 625 q 283 629 276 628 q 290 631 285 631 q 297 633 294 632 q 304 635 301 635 q 314 638 307 636 q 323 636 319 635 q 329 636 326 638 q 341 635 338 636 q 350 636 344 633 q 357 635 353 633 q 364 633 361 636 q 374 634 369 635 q 382 633 379 633 q 388 631 385 632 q 396 628 392 631 q 403 627 400 628 q 410 628 406 626 q 415 624 413 625 q 421 622 418 624 q 429 621 426 622 q 435 619 432 619 q 445 615 442 615 q 451 610 449 614 l 456 608 q 458 607 457 607 q 461 606 460 607 q 468 603 463 606 q 471 600 469 601 q 480 597 478 599 q 486 592 482 594 q 490 588 489 589 q 494 582 492 586 q 501 579 497 582 q 507 574 504 576 q 517 568 507 568 q 525 558 519 557 q 529 552 528 556 q 532 547 531 549 q 535 542 533 544 q 539 538 538 539 q 543 530 539 532 q 549 525 547 528 q 556 515 549 518 q 561 503 557 508 q 564 488 565 492 q 567 483 567 485 q 569 478 567 481 q 573 472 572 475 q 578 463 574 468 q 578 456 576 461 q 581 449 581 451 q 586 433 585 442 q 589 422 586 428 q 590 415 589 417 q 590 406 590 413 q 591 399 589 403 q 592 393 593 396 q 593 386 592 389 q 594 378 594 383 q 594 369 592 372 q 594 360 596 367 q 597 356 596 358 q 594 350 597 353 q 597 340 594 343 q 596 331 599 336 q 597 318 596 324 q 594 308 594 311 q 596 299 594 306 q 596 286 593 293 q 593 277 593 281 q 592 274 593 274 q 589 260 594 260 q 590 251 592 254 q 590 246 589 249 q 588 238 588 243 q 585 232 588 233 q 583 225 586 229 q 581 218 581 221 q 579 213 581 215 q 578 207 578 210 q 572 192 575 196 q 570 186 571 189 q 568 183 569 183 q 565 175 565 178 q 563 169 565 172 q 557 162 558 165 q 553 154 556 158 q 546 143 553 149 q 542 137 543 140 q 539 131 542 133 q 533 122 536 126 q 528 115 531 118 q 526 110 529 113 q 522 106 524 108 q 517 100 519 104 q 514 93 515 96 q 501 83 513 92 q 492 72 500 78 q 487 68 490 71 q 481 64 483 65 q 475 58 478 61 q 469 51 472 56 q 464 49 468 51 q 461 46 460 46 q 451 42 454 44 q 446 35 449 39 q 440 32 443 32 q 436 31 438 32 q 422 25 424 25 q 415 22 419 22 q 407 18 411 21 q 402 15 406 15 q 394 13 399 15 q 388 11 392 13 q 381 7 383 10 q 374 6 376 6 q 365 4 371 6 q 360 3 364 4 q 353 4 357 3 q 346 0 349 1 q 339 -1 343 -1 q 333 -1 336 -1 q 326 0 329 0 q 315 2 319 1 q 308 3 311 3 q 302 1 306 0 q 294 1 299 3 q 287 3 292 3 q 281 6 282 4 q 273 7 275 7 q 265 8 271 7 q 259 13 263 11 q 254 18 256 14 q 244 21 247 19 q 240 24 242 22 q 232 26 233 24 q 224 31 231 28 q 219 32 222 29 q 210 36 217 35 q 206 40 210 38 q 199 47 203 42 q 189 51 193 44 q 183 56 185 56 q 178 60 181 57 q 172 65 175 63 q 167 71 169 67 q 161 75 164 74 q 156 81 158 76 q 149 85 150 83 q 142 92 147 86 q 138 92 139 90 q 133 96 136 94 q 128 101 129 97 q 121 106 126 104 q 107 117 118 108 q 100 118 104 118 q 94 121 96 118 q 87 124 90 124 q 81 124 83 124 q 72 123 75 122 q 65 121 68 124 q 60 117 63 118 q 51 111 57 115 q 47 108 49 111 q 43 104 46 104 q 39 97 40 101 q 36 90 38 93 l 35 90 z "},"6":{"ha":551,"x_min":67,"x_max":486,"o":"m 192 57 q 207 50 199 50 q 215 46 211 47 q 224 42 218 44 q 229 39 224 40 q 238 35 235 38 q 251 33 242 33 q 261 35 258 35 q 267 35 264 35 q 281 33 274 38 q 288 35 283 36 q 294 36 292 35 q 304 37 300 38 q 311 39 308 36 q 319 42 314 42 q 326 43 324 43 q 333 47 329 46 q 342 50 338 49 q 347 53 343 53 q 353 56 351 53 q 361 58 358 58 q 367 61 364 58 q 372 69 369 67 q 376 74 374 71 q 383 79 381 75 q 389 85 386 83 q 395 93 392 90 q 399 97 399 96 q 406 103 403 100 q 411 108 408 107 q 421 124 410 117 q 423 129 421 126 q 424 135 425 132 q 428 140 425 138 q 433 146 431 143 q 435 153 432 150 q 439 157 438 157 q 442 166 439 163 q 444 172 444 169 q 446 177 447 175 q 447 185 444 179 q 451 190 450 188 q 454 197 451 192 q 453 203 451 201 q 454 208 456 204 q 458 215 456 213 q 457 221 460 218 q 460 228 460 225 q 461 235 460 232 q 463 242 461 238 q 463 249 464 246 q 464 255 463 251 q 465 264 465 258 q 464 279 463 276 q 465 287 463 283 q 464 292 467 290 q 463 313 467 299 q 465 318 465 314 q 464 326 464 322 q 463 338 469 332 q 464 345 464 343 q 465 353 464 347 q 466 358 467 356 q 465 365 465 361 q 464 372 465 368 q 465 379 463 376 q 464 386 464 383 q 463 394 464 389 q 462 401 461 397 q 463 411 463 404 q 461 424 460 417 q 458 428 461 425 q 458 435 456 432 q 458 445 458 442 q 457 451 457 449 q 453 458 454 454 q 450 464 453 461 q 447 479 453 471 q 445 485 444 482 q 443 496 446 489 q 440 504 443 499 q 439 513 439 511 q 436 521 439 515 q 431 531 431 525 q 426 540 428 538 q 422 544 425 542 q 419 551 421 547 q 414 557 417 554 q 410 560 411 558 q 406 565 410 563 q 403 572 404 568 q 401 576 403 576 q 394 581 397 579 q 389 589 392 583 q 385 593 386 592 q 379 597 385 594 q 375 600 376 597 q 372 604 374 603 q 365 608 369 607 q 360 610 361 608 q 353 616 356 615 q 347 618 351 617 q 339 622 342 619 q 333 625 336 624 q 326 626 328 626 q 318 626 324 625 q 310 627 313 626 q 306 629 308 628 q 286 633 293 633 q 280 633 285 633 q 272 635 275 633 q 262 633 265 635 q 256 633 258 632 q 246 632 250 631 q 239 631 242 633 q 231 628 235 629 q 222 625 226 628 q 216 622 219 622 q 210 618 213 621 q 203 617 207 618 q 196 614 199 617 q 190 606 193 608 q 185 600 188 603 q 175 593 175 594 q 170 588 172 590 q 165 581 168 585 q 156 569 157 572 q 151 563 154 565 q 147 558 147 561 q 143 552 143 556 q 140 544 143 549 q 135 540 138 542 q 131 533 133 538 q 125 517 125 525 q 122 513 125 514 q 119 508 119 511 q 117 499 118 501 q 113 493 117 497 q 111 485 111 490 q 108 478 111 481 q 103 464 107 467 q 101 456 101 460 q 99 449 101 451 q 96 433 99 447 q 96 426 97 431 q 96 421 94 422 q 96 406 92 410 q 94 398 94 400 q 92 392 93 396 q 92 379 88 386 q 91 370 90 372 q 89 365 92 368 q 89 356 89 356 q 93 340 89 351 q 90 336 90 338 q 92 328 90 335 q 94 318 92 328 q 94 310 96 315 q 96 303 93 306 q 96 286 99 299 q 99 280 97 282 q 101 275 101 278 q 103 265 101 268 q 103 257 104 263 q 105 250 106 254 q 107 239 104 246 q 107 233 107 238 q 108 224 107 228 q 112 217 111 221 q 115 210 113 213 q 117 201 117 207 q 119 194 117 196 q 122 188 121 192 q 121 179 124 183 q 126 172 126 176 q 126 161 125 168 q 135 149 132 157 q 142 135 139 138 q 149 122 142 122 q 154 107 147 110 q 156 101 153 104 q 163 94 160 99 q 163 89 161 92 q 167 83 164 86 q 172 77 169 79 q 176 71 174 75 q 182 64 179 71 q 188 62 185 63 q 193 58 192 61 l 192 57 m 96 524 l 114 540 q 122 554 114 546 q 125 558 122 556 q 128 563 126 561 l 139 574 q 144 583 143 581 q 147 588 146 586 q 156 594 154 592 q 164 601 158 597 q 169 608 167 604 q 174 613 171 611 q 179 619 176 618 q 185 624 182 621 q 197 633 192 633 q 203 638 201 635 q 207 643 206 640 q 213 644 210 644 q 222 646 217 644 q 229 650 225 649 q 238 654 233 651 q 242 655 238 653 q 249 656 246 657 q 256 658 253 657 q 264 663 260 660 q 275 660 269 660 q 283 660 281 660 q 291 659 289 660 q 299 661 293 658 q 305 660 301 660 q 308 658 308 661 q 324 654 319 658 q 339 651 332 651 q 347 646 343 644 q 358 642 353 640 q 365 637 363 639 q 372 633 368 635 q 375 627 372 629 q 382 621 378 625 q 386 617 385 619 q 392 615 388 615 q 400 601 393 608 q 403 598 400 600 q 406 593 406 596 q 413 585 410 588 q 415 579 415 583 q 420 575 418 579 q 424 569 422 571 q 426 563 425 565 q 431 557 428 560 q 435 549 433 551 q 439 544 438 547 q 444 532 439 535 q 446 524 446 528 q 449 515 446 519 q 453 509 451 514 q 454 500 454 504 q 457 488 457 494 q 462 480 461 485 q 465 474 463 475 q 466 466 465 469 q 465 458 467 463 q 468 451 467 453 q 469 442 469 449 q 474 429 474 438 q 476 417 474 419 q 479 399 476 407 q 480 394 479 396 q 479 388 481 392 q 482 379 482 382 q 483 372 482 376 q 482 366 481 368 q 485 361 483 364 q 483 351 483 354 q 483 344 483 347 q 482 339 482 343 q 483 332 482 335 q 482 318 486 328 q 483 313 483 317 q 485 308 483 310 q 483 299 482 301 q 481 293 483 297 q 481 287 481 290 q 481 276 482 283 q 478 265 481 267 q 475 247 478 254 q 476 242 475 244 q 474 236 476 239 q 472 228 471 232 q 471 221 474 224 q 467 206 472 219 q 467 199 469 203 q 464 193 464 196 q 463 188 465 192 q 461 179 461 183 q 457 168 457 175 q 456 160 457 164 q 451 153 454 157 q 451 147 453 150 q 447 142 449 144 q 444 136 447 139 q 439 129 442 133 q 438 124 438 125 q 435 118 439 122 q 433 110 433 113 q 432 101 432 108 q 426 99 426 100 q 421 93 425 97 q 419 87 421 90 q 415 82 418 83 q 410 75 414 76 q 404 72 407 74 q 394 60 404 67 q 390 53 393 54 q 383 51 388 53 q 376 42 383 46 q 367 31 368 36 q 360 27 363 31 q 354 25 357 24 q 347 19 351 21 q 342 15 343 17 q 335 13 338 13 q 328 10 332 13 q 319 7 322 8 q 313 8 317 6 q 307 4 311 4 q 299 4 303 4 q 293 3 297 3 q 286 3 289 4 q 279 1 283 1 q 271 -1 275 0 q 254 -1 267 6 q 240 6 250 4 q 232 7 238 8 q 222 7 226 6 q 215 13 219 10 q 208 18 211 17 q 202 22 204 19 q 197 26 200 25 q 192 29 194 29 q 188 33 190 29 q 179 39 185 36 q 174 47 178 44 q 168 50 171 50 q 167 56 169 54 q 160 63 164 58 q 157 67 157 65 q 154 72 157 69 q 150 76 151 74 q 147 82 149 79 q 142 89 143 88 q 139 92 140 90 q 134 101 136 96 q 133 108 132 106 q 129 114 131 111 q 125 121 128 117 q 124 126 126 124 q 121 131 121 128 q 117 144 119 136 q 113 150 113 147 q 110 158 113 153 q 108 167 108 163 q 107 174 108 171 q 104 181 104 178 q 101 186 104 183 q 100 193 101 189 q 96 204 99 197 q 95 209 96 207 q 94 215 94 211 q 92 223 93 218 q 89 231 92 228 q 86 244 90 240 q 82 258 90 256 q 83 270 83 265 q 82 278 82 275 q 81 284 82 282 q 81 293 79 286 q 78 308 75 299 q 76 315 75 311 q 76 324 76 318 q 74 328 76 325 q 72 336 72 331 q 74 342 75 339 q 75 349 72 346 q 72 358 72 354 q 69 364 71 361 q 72 370 72 367 q 72 378 71 374 q 72 394 67 385 q 69 400 71 399 q 69 406 68 401 q 68 416 68 413 q 67 422 68 419 q 67 435 69 426 q 69 444 67 442 q 69 453 71 451 q 67 458 67 456 q 69 467 69 463 q 71 474 69 471 q 68 489 68 479 q 67 503 71 496 q 69 508 68 506 q 68 517 69 510 q 69 532 69 521 q 70 537 71 535 q 71 542 69 539 q 69 551 69 547 q 68 558 69 556 q 72 574 72 563 q 72 585 75 579 q 73 592 74 589 q 74 599 72 596 q 75 617 74 610 q 79 628 79 619 l 79 640 q 82 653 79 647 q 83 667 81 654 q 86 679 86 675 q 86 685 86 681 q 89 693 86 690 q 88 699 86 696 q 89 703 90 701 q 90 710 92 706 q 90 717 89 714 q 97 735 97 724 q 98 742 96 738 q 99 750 100 747 q 103 764 99 758 q 106 772 106 769 q 108 782 107 775 q 111 787 108 785 q 114 794 114 789 q 115 801 115 797 q 118 808 115 806 q 121 817 121 815 q 124 824 121 819 q 126 831 125 826 q 129 839 126 836 q 132 844 132 842 q 135 851 132 847 q 142 867 135 863 q 145 876 143 872 q 149 882 147 879 q 152 888 151 885 q 154 890 153 890 q 158 899 157 894 q 165 906 160 904 q 168 910 168 908 q 171 915 168 913 q 176 921 174 919 q 179 925 179 922 q 186 931 185 928 q 192 936 188 933 q 195 941 192 938 q 197 944 199 944 q 206 950 204 947 q 211 954 207 953 q 222 961 211 954 q 231 967 225 961 q 243 969 238 967 q 249 970 247 969 q 258 968 251 971 q 264 970 261 968 q 269 971 267 972 q 285 969 275 974 q 291 969 288 968 q 294 967 294 969 q 304 967 301 968 q 313 963 307 965 q 316 959 314 960 q 321 957 318 958 q 328 952 324 954 q 336 947 333 950 q 347 942 343 950 l 364 932 l 378 925 q 388 920 385 922 q 393 913 390 918 q 401 915 399 914 q 410 913 404 915 q 429 928 422 911 l 438 944 l 442 958 l 444 946 l 450 931 l 450 917 l 453 907 q 454 899 456 904 q 456 892 453 894 q 457 881 457 889 q 459 871 458 874 q 460 864 460 868 q 462 857 458 860 q 463 851 465 854 q 465 844 463 847 q 465 833 467 840 q 467 826 468 829 q 469 818 467 822 q 474 801 468 813 q 472 790 471 794 q 471 781 472 786 q 474 765 476 779 q 476 758 476 763 q 476 750 475 754 q 478 742 478 746 q 478 736 478 738 q 479 726 481 731 q 481 719 478 722 l 472 739 q 468 749 471 743 q 463 760 465 754 q 459 766 461 763 q 458 772 457 769 q 453 778 456 776 q 453 783 451 781 q 450 790 450 786 q 447 800 450 793 q 444 803 444 801 q 442 811 444 806 q 438 822 438 818 q 433 831 435 829 q 426 838 432 833 q 419 850 425 843 q 419 856 421 853 q 417 861 417 858 q 412 869 414 865 q 407 875 410 872 q 403 879 406 876 q 397 885 401 882 q 394 890 396 888 q 393 896 392 892 q 388 901 390 899 q 383 907 386 903 q 376 911 378 910 q 374 913 375 911 q 369 918 371 915 q 363 924 367 921 q 355 924 357 924 q 350 928 353 925 q 344 933 347 931 q 340 938 342 935 q 332 939 335 939 q 324 943 329 939 q 318 944 321 943 q 313 947 315 946 q 306 948 310 947 q 296 947 303 949 q 290 951 293 949 q 282 953 286 953 q 274 951 278 953 q 267 951 269 950 q 257 952 263 951 q 249 950 251 953 q 233 946 243 951 q 228 944 231 946 q 224 942 226 943 q 216 938 219 939 q 211 936 213 938 q 201 924 204 933 q 197 920 200 924 q 193 917 194 917 q 185 910 188 914 q 181 903 183 906 q 178 898 179 901 q 175 890 178 894 q 168 881 169 889 q 165 874 165 875 q 163 868 165 872 q 160 862 161 865 q 156 856 158 858 q 151 846 153 846 q 150 840 151 843 q 147 829 149 836 q 144 823 144 826 q 140 817 143 819 q 138 806 136 811 q 133 798 136 800 q 129 793 131 796 q 129 784 129 789 q 125 776 129 779 q 124 768 122 772 q 124 761 126 764 q 119 754 119 758 q 117 746 119 750 q 115 732 118 740 q 114 725 114 728 q 113 717 114 722 q 110 709 111 714 q 106 701 108 704 q 104 695 106 699 q 101 689 103 692 q 102 682 104 686 q 101 674 100 678 q 99 665 100 667 q 100 660 97 663 q 98 651 97 656 q 99 644 99 647 q 97 635 96 639 q 97 629 97 632 q 96 617 93 628 q 94 608 96 611 q 94 603 92 606 q 94 597 94 601 q 93 589 94 592 q 95 583 94 585 q 94 576 96 581 q 96 563 93 567 q 93 544 99 550 l 94 525 l 96 524 z "},"7":{"ha":567,"x_min":25,"x_max":542,"o":"m 229 3 q 216 -1 224 -1 q 200 -1 208 0 l 190 0 q 193 14 197 4 q 196 19 196 15 q 197 26 196 22 q 196 32 194 28 q 197 39 197 36 q 197 44 194 40 q 197 51 199 47 q 200 63 197 53 q 199 69 200 67 q 200 75 199 72 q 201 90 200 86 q 203 97 203 93 q 204 103 203 100 q 203 110 204 106 q 203 118 203 115 q 203 126 201 122 q 206 135 204 129 q 204 140 204 136 q 204 147 204 144 q 208 158 206 150 q 208 166 208 163 q 208 175 207 169 q 208 181 210 178 q 208 190 207 185 q 210 196 211 192 q 211 200 208 200 q 212 208 213 204 q 214 218 211 211 q 213 225 214 221 q 214 232 211 229 q 214 239 214 235 q 217 244 214 243 q 215 261 215 251 q 217 268 215 265 q 219 274 219 271 q 221 289 215 288 q 220 297 218 293 q 222 303 222 301 q 223 312 224 308 q 225 318 222 315 q 225 328 226 325 q 225 335 224 332 q 226 341 226 338 q 226 347 225 344 q 228 356 228 351 q 232 367 229 361 q 233 372 232 368 q 231 379 233 375 q 235 385 235 382 q 235 393 235 389 q 239 407 238 406 q 242 422 239 421 q 247 440 242 431 q 248 446 247 443 q 250 453 249 449 q 250 463 249 458 q 250 469 251 467 q 252 474 251 472 q 257 479 253 476 q 256 489 254 486 q 257 494 258 492 q 261 501 260 499 q 264 508 263 504 q 265 517 264 513 q 268 525 267 522 q 269 539 272 525 q 272 543 271 540 q 275 549 272 546 q 278 556 278 554 q 278 561 279 558 q 282 569 281 565 q 286 578 283 572 q 288 581 288 579 q 288 585 288 583 q 288 590 289 588 q 297 600 290 596 q 297 606 294 603 q 299 611 299 608 q 307 624 306 619 q 308 631 306 626 q 311 636 311 635 q 317 645 314 642 q 319 650 319 649 q 324 658 322 654 q 326 665 326 661 q 333 672 329 668 q 338 678 336 675 q 344 689 343 683 q 348 697 347 693 q 354 704 349 701 q 357 710 354 707 q 358 715 360 714 q 365 723 361 721 q 369 729 368 725 q 373 735 372 731 q 376 740 374 739 q 381 749 379 746 q 386 756 383 753 q 390 761 388 757 q 396 771 393 765 q 400 776 399 772 q 400 782 401 779 q 406 790 404 786 q 411 797 408 794 q 415 806 414 801 q 419 813 417 810 q 425 819 422 814 q 428 826 428 824 q 433 829 431 826 q 440 835 435 832 q 442 840 440 838 q 444 849 443 843 q 450 855 447 851 q 453 860 453 858 q 460 866 457 863 q 464 872 463 869 q 471 885 474 875 q 482 893 476 893 q 476 895 478 894 q 468 893 474 896 q 461 896 465 894 q 454 897 457 897 q 447 897 450 896 q 440 897 443 897 q 424 897 438 894 q 419 894 424 894 q 411 897 414 894 q 397 896 404 894 q 386 894 394 894 q 376 895 379 896 q 369 894 374 894 q 361 896 365 894 q 354 897 357 897 q 349 897 351 896 q 340 899 346 899 q 329 896 331 899 q 314 894 319 897 q 306 897 310 897 q 301 899 301 896 q 294 896 299 896 q 286 897 289 896 q 272 896 278 900 q 264 897 267 896 q 254 896 261 899 q 242 899 254 899 q 233 898 238 897 q 225 899 229 899 q 215 896 218 896 q 210 893 211 896 q 199 893 203 893 q 193 889 196 893 q 190 888 192 889 q 185 888 188 888 q 179 886 182 886 q 172 883 176 883 q 163 881 167 882 q 159 876 163 878 q 154 871 156 874 q 142 863 144 871 q 138 860 140 861 q 131 854 135 858 q 122 843 125 854 q 115 833 118 840 q 109 830 110 832 q 106 824 108 828 q 99 813 103 815 q 94 805 96 810 q 90 797 92 800 q 86 790 88 794 q 82 782 85 785 q 79 776 81 779 q 75 769 78 772 q 72 761 74 764 q 67 756 69 758 q 64 747 65 753 q 60 739 63 742 q 56 733 57 735 q 53 729 56 731 q 47 722 50 726 q 42 713 44 717 q 40 707 42 711 q 35 700 39 703 q 31 694 33 697 q 26 688 29 690 q 25 693 28 693 q 27 699 26 697 q 31 704 28 701 q 33 715 29 710 q 36 728 31 722 q 38 732 38 728 q 38 739 39 736 q 42 746 40 742 q 46 751 43 750 q 47 761 47 756 q 47 769 47 767 q 51 776 50 774 q 54 785 53 779 l 60 801 q 62 810 60 806 q 64 819 64 815 q 68 836 68 826 q 72 843 71 839 q 76 853 74 847 q 76 860 75 856 q 79 867 76 865 q 85 885 83 879 q 88 892 86 890 q 89 901 90 894 q 94 908 92 904 q 94 914 96 911 q 97 922 97 918 q 99 926 96 926 q 101 935 99 931 q 101 942 104 939 q 104 947 103 944 q 106 951 106 949 q 109 955 108 953 q 111 958 110 957 q 113 964 113 963 q 114 968 114 965 l 124 951 l 135 940 q 144 931 139 938 q 149 921 149 925 q 156 917 153 918 q 158 910 160 915 l 176 910 l 188 908 l 204 910 l 217 908 l 232 910 l 243 910 l 260 911 l 272 908 l 288 913 l 301 911 l 319 908 l 332 907 l 346 911 l 357 908 l 374 911 q 381 908 376 908 q 392 908 388 913 q 402 908 399 910 q 411 910 406 907 q 417 908 414 907 q 428 908 421 910 q 438 907 432 906 q 449 906 444 908 q 458 906 454 906 q 468 904 461 907 q 479 903 472 906 q 490 903 486 900 q 499 900 493 900 q 510 897 506 900 q 519 894 514 897 q 525 894 524 892 q 531 892 528 893 q 538 889 533 890 q 540 884 540 886 q 542 879 540 882 l 532 882 q 526 877 529 878 q 522 874 524 876 q 516 874 518 876 q 510 872 514 872 q 503 867 507 869 q 499 864 500 865 q 493 863 496 865 q 488 860 490 860 q 481 850 483 857 q 468 846 474 854 q 460 838 460 840 q 450 829 454 833 q 444 823 446 826 q 436 819 442 819 q 434 814 435 817 q 431 807 433 811 q 421 796 421 804 q 415 794 417 796 q 410 789 414 792 q 407 783 407 785 q 403 776 407 781 q 399 769 400 772 q 396 763 397 765 q 389 758 390 763 q 385 754 388 754 q 382 747 385 750 q 376 739 379 743 q 373 731 374 735 q 369 725 372 728 q 367 719 371 722 q 363 713 364 717 q 360 706 360 710 q 354 699 360 701 q 355 692 357 694 q 350 683 353 689 q 345 678 347 681 q 343 674 343 675 q 338 656 338 668 q 334 649 335 651 q 328 646 333 647 q 328 638 331 643 q 324 632 325 633 q 323 623 325 628 q 317 617 321 618 q 316 608 317 613 q 313 603 315 603 q 310 594 311 599 q 308 583 308 590 q 306 577 306 581 q 304 574 307 574 q 301 565 303 569 q 300 556 299 560 q 296 549 299 553 q 296 540 293 544 q 293 535 294 538 q 292 528 292 532 q 287 519 289 522 q 288 514 285 517 q 283 507 283 511 q 279 500 282 503 q 279 492 281 496 q 276 485 278 488 q 275 479 275 482 q 272 469 275 476 q 269 458 269 469 q 269 452 271 456 q 267 444 268 449 q 265 432 271 438 q 265 426 265 429 q 260 419 264 422 q 258 408 258 417 q 257 401 258 406 q 257 397 256 397 q 254 385 257 390 q 256 375 257 375 q 251 360 250 369 q 249 353 250 357 q 246 343 249 349 q 248 338 249 342 q 244 332 247 335 q 247 315 247 328 q 243 308 243 313 q 243 301 243 304 q 242 293 242 297 q 243 286 243 289 q 242 281 243 283 q 242 275 240 278 q 242 258 240 269 q 239 247 238 250 q 238 229 239 236 q 237 223 238 226 q 236 215 236 219 q 235 200 239 207 q 238 194 238 197 q 238 185 238 192 q 238 180 239 183 q 239 171 238 176 q 239 157 239 171 l 236 140 l 235 128 l 235 114 l 232 101 l 235 88 l 235 72 l 235 58 l 231 43 l 233 32 l 231 15 l 228 0 l 229 3 z "},"8":{"ha":569,"x_min":68,"x_max":499,"o":"m 247 488 l 235 482 l 215 474 l 203 468 l 189 463 q 179 458 182 460 q 171 454 176 457 q 165 453 169 454 q 161 450 161 453 l 144 442 q 135 429 144 439 q 130 424 132 426 q 125 419 128 422 q 122 415 122 417 q 115 410 121 413 q 115 406 117 407 q 110 400 113 404 q 108 393 110 397 q 104 386 106 389 q 99 382 101 385 q 97 376 96 379 q 94 369 94 371 q 92 363 93 367 q 89 357 90 360 q 88 351 88 354 q 83 344 85 346 q 81 336 82 342 q 79 324 79 329 q 78 315 76 319 q 76 307 79 311 q 75 300 76 303 q 76 293 74 297 q 73 288 74 290 q 74 278 72 285 q 74 272 74 276 q 69 264 74 268 q 69 258 69 261 q 71 247 69 254 q 69 241 68 244 q 68 233 69 238 q 69 227 68 231 q 69 222 71 224 q 72 213 72 215 q 72 207 72 210 q 74 199 72 204 q 72 190 75 194 q 75 185 72 188 q 78 179 78 183 q 78 172 76 176 q 82 165 81 168 q 81 159 79 163 q 82 150 82 156 q 90 135 86 143 q 90 131 89 135 q 94 122 92 126 q 97 118 96 122 q 100 114 97 114 q 107 97 106 103 q 108 94 107 96 q 113 88 110 93 q 119 78 121 78 q 128 63 128 72 q 135 60 133 61 q 139 56 136 58 q 147 44 147 50 q 153 40 151 42 q 160 35 156 38 q 172 28 161 33 q 178 24 175 28 q 183 21 181 21 q 193 13 186 15 q 200 10 197 13 q 208 7 203 8 q 213 8 210 10 q 222 4 217 6 q 233 1 222 10 q 244 1 240 3 q 250 3 247 0 q 265 -1 256 -3 q 272 -1 268 -3 q 279 -1 276 1 q 286 -1 283 -1 q 294 3 289 0 q 302 1 297 0 q 311 1 307 1 q 325 4 317 7 q 340 7 331 1 q 354 11 346 7 q 368 14 363 8 q 377 17 374 17 q 385 19 381 17 q 391 22 388 22 q 397 25 394 22 q 407 31 401 28 q 413 36 411 33 q 419 43 415 39 q 429 51 424 43 q 433 56 432 54 q 440 61 433 57 q 443 68 440 65 q 449 74 446 71 q 451 78 450 75 q 453 83 451 82 q 463 94 461 94 q 465 101 464 99 q 469 111 467 104 q 473 117 472 114 q 472 121 474 121 q 476 129 475 128 q 478 135 476 131 q 481 143 482 139 q 483 149 481 147 q 486 159 486 156 q 489 165 486 163 q 488 172 489 168 q 489 176 488 175 q 493 186 493 183 q 493 192 493 189 q 496 199 496 197 q 497 204 496 201 q 497 214 497 210 q 499 221 496 218 q 497 233 496 226 q 497 241 496 239 q 499 247 497 243 q 497 256 497 250 q 496 264 497 261 q 497 269 496 267 q 496 278 499 272 q 497 292 496 288 q 493 307 496 299 q 492 315 490 311 q 492 321 493 318 q 488 327 489 324 q 485 335 488 331 q 482 347 488 342 q 481 354 483 351 q 476 361 479 357 q 473 369 474 365 q 469 376 472 374 q 467 381 467 379 q 464 386 467 383 q 460 392 461 390 q 458 401 458 394 q 454 405 456 401 q 449 411 453 408 q 444 417 447 414 q 438 425 440 419 q 434 430 435 428 q 431 435 433 432 q 423 436 425 433 q 418 443 421 439 q 409 444 413 443 q 401 449 406 446 q 394 453 399 451 q 388 458 390 456 q 378 465 385 463 q 368 471 372 467 q 362 474 365 471 q 356 479 358 478 q 351 487 351 485 q 350 490 350 489 q 351 503 347 497 q 360 508 354 508 l 346 506 l 328 503 q 321 501 325 500 q 314 500 317 501 q 299 503 307 500 q 282 503 289 500 q 269 504 272 503 q 260 503 264 504 q 250 503 256 501 q 244 504 246 504 q 236 506 242 504 q 228 506 233 507 q 219 507 224 506 q 206 513 208 510 q 201 513 203 514 q 196 515 199 513 q 183 525 188 524 q 176 528 178 526 q 171 532 175 529 q 164 543 165 538 q 160 545 163 542 q 153 551 158 549 q 150 554 151 553 q 150 563 149 556 q 140 571 140 563 q 135 581 135 576 q 133 589 133 585 q 129 596 132 593 q 128 602 129 599 q 128 608 128 606 q 124 613 126 610 q 121 619 122 617 q 121 628 122 624 q 119 635 119 632 q 121 641 122 638 q 117 647 119 644 q 116 656 117 651 q 117 664 115 661 q 116 670 117 667 q 117 681 115 674 q 117 685 117 683 q 115 693 117 686 q 113 706 113 699 q 113 713 113 710 q 114 724 113 717 q 114 732 119 732 q 115 749 114 743 q 117 763 113 749 q 117 776 119 767 q 117 782 115 779 q 119 790 118 785 q 119 797 119 794 q 121 804 118 799 q 120 813 119 811 q 124 822 121 815 q 124 824 124 824 q 125 828 125 825 q 126 832 125 829 q 128 843 129 839 q 129 851 128 847 q 133 857 132 854 q 138 863 133 860 q 140 871 139 868 q 143 879 140 874 q 147 884 144 881 q 147 892 149 888 q 152 897 151 893 q 154 903 153 900 q 164 913 160 903 q 174 918 168 917 q 180 923 176 922 q 186 929 183 924 q 191 930 188 929 q 197 929 194 931 q 203 935 200 935 q 213 936 206 935 q 218 936 215 935 q 226 938 221 938 q 233 940 231 940 q 238 940 235 940 q 247 942 242 940 q 257 943 253 943 q 262 941 258 943 q 269 942 265 939 q 276 942 272 940 q 282 942 279 943 l 299 942 l 314 940 l 331 940 q 341 942 336 942 q 347 940 346 943 q 365 938 358 940 q 369 935 368 938 q 378 932 371 933 q 383 928 379 931 q 386 926 386 925 q 393 922 392 924 q 399 917 394 919 q 408 901 400 910 q 418 893 413 901 q 421 886 419 889 q 422 881 422 883 q 426 875 424 878 q 431 867 428 872 q 431 861 431 863 q 432 857 432 860 q 437 847 436 851 q 440 839 438 842 q 442 828 443 836 q 444 820 444 825 q 447 813 444 815 q 447 799 444 808 q 449 790 450 793 q 451 785 449 786 q 452 776 450 778 q 451 767 454 774 q 453 760 454 765 q 456 753 453 756 q 453 747 453 749 q 454 742 453 744 q 454 735 456 739 q 453 725 453 731 q 453 721 454 722 q 454 717 453 719 q 455 707 456 713 q 456 699 454 701 q 455 695 454 697 q 454 686 456 693 q 453 671 447 683 q 453 660 450 661 q 450 650 451 653 q 450 643 449 647 q 448 635 447 638 q 446 631 449 632 q 444 622 446 625 q 442 613 442 618 q 440 606 443 608 q 438 601 438 604 l 432 585 q 428 579 431 583 q 429 572 426 575 q 424 567 426 569 q 422 563 422 564 q 415 550 417 551 q 409 544 413 547 q 403 539 406 540 q 398 531 401 533 q 392 526 394 529 q 388 524 392 524 q 385 521 385 524 l 369 510 l 378 511 l 388 519 l 399 528 q 403 533 401 529 q 407 538 404 536 q 412 542 410 539 q 418 549 414 546 q 422 553 419 551 q 426 557 424 554 q 431 564 429 563 q 433 568 432 565 q 439 576 436 574 q 442 582 442 579 q 447 587 446 583 q 451 592 449 590 q 453 600 453 597 q 458 607 454 603 q 465 618 458 614 q 469 624 468 621 q 472 631 469 628 q 478 643 472 642 q 481 656 475 653 q 483 669 481 665 q 483 678 483 674 q 485 685 483 682 q 485 692 486 688 q 485 699 483 696 q 483 713 485 706 q 482 728 483 726 q 482 744 486 732 q 483 752 482 749 q 482 758 483 756 q 481 765 481 761 q 479 772 482 769 q 478 781 479 778 q 481 788 478 783 q 478 794 479 790 q 478 799 476 799 q 474 808 475 806 q 474 814 472 811 q 472 822 472 818 q 469 828 471 826 q 467 835 467 832 q 464 843 467 839 q 460 850 461 846 q 460 854 458 854 q 456 863 458 857 q 450 871 454 868 q 449 876 451 871 q 443 885 446 882 q 442 890 444 888 q 436 896 439 892 q 433 899 436 897 q 428 908 431 901 q 423 911 424 907 q 415 915 422 915 q 414 922 417 921 q 410 926 411 924 q 402 929 406 926 q 397 933 399 932 q 390 939 393 936 q 383 942 388 942 q 378 947 379 944 q 371 951 376 949 q 365 954 368 953 q 361 958 361 956 q 353 958 357 956 q 346 961 349 961 q 337 963 340 963 q 331 964 333 964 q 324 966 328 965 q 315 969 321 967 q 309 971 313 969 q 303 969 306 972 q 296 972 297 972 q 290 971 294 972 q 279 972 283 974 q 274 972 275 969 q 264 969 267 969 q 256 971 261 968 q 242 967 253 969 q 234 964 239 964 q 226 961 229 964 q 219 960 222 960 q 214 960 215 960 q 199 950 206 951 q 192 948 194 950 q 186 946 190 946 q 178 940 183 943 q 171 935 174 938 q 165 932 168 932 q 159 925 161 928 q 156 921 157 922 q 149 911 146 921 q 142 906 143 910 q 136 900 140 903 q 128 890 136 899 q 124 879 128 883 q 119 874 119 876 q 117 869 118 871 q 110 857 110 863 q 106 848 107 850 q 104 844 106 846 q 97 826 104 835 q 98 821 99 824 q 97 815 97 818 q 94 808 94 813 q 94 801 93 803 q 91 792 92 794 q 88 788 90 789 q 86 779 86 782 q 85 771 86 776 l 85 757 q 84 749 85 751 q 83 740 83 747 q 82 735 82 738 q 79 725 82 732 q 82 718 81 721 q 82 713 83 715 l 83 685 l 86 674 l 89 658 l 90 642 q 95 631 93 636 q 101 621 97 625 q 105 613 104 615 q 111 604 106 611 q 113 597 113 601 q 117 590 114 593 q 131 575 128 582 l 139 565 l 146 553 q 156 540 151 551 q 164 537 161 538 q 169 532 167 536 q 181 522 175 525 q 188 517 183 519 q 196 513 193 515 q 206 508 200 510 q 217 506 211 507 q 222 501 219 503 q 229 494 225 500 q 240 492 236 496 q 247 486 244 489 l 247 488 m 172 46 q 167 51 169 49 q 163 57 165 54 q 153 69 154 63 q 147 72 150 68 q 142 79 143 76 q 139 83 139 82 q 135 88 139 85 q 131 95 133 92 q 129 101 129 99 q 124 109 126 107 q 124 114 122 111 q 119 123 119 121 q 119 131 119 125 q 115 136 115 132 q 115 140 114 140 q 111 150 111 147 q 108 156 111 153 q 109 164 110 160 q 106 168 108 168 q 106 175 107 171 q 107 186 104 179 q 104 192 106 188 q 106 199 103 196 q 104 211 104 206 q 101 220 101 215 q 100 229 101 225 q 102 234 103 231 q 101 242 101 238 q 103 249 104 247 q 101 257 103 251 q 101 266 101 263 q 104 272 101 269 q 103 278 101 275 q 101 286 104 282 q 103 301 106 299 q 106 317 108 311 q 110 326 110 324 q 110 331 111 328 q 114 339 113 336 q 114 344 115 342 q 119 357 114 351 q 126 369 118 364 q 126 379 124 376 q 128 383 128 382 q 132 390 129 386 q 138 397 135 394 q 146 410 136 399 q 148 413 146 411 q 153 417 150 414 q 160 425 153 421 q 165 431 163 431 q 167 435 167 432 q 174 440 172 438 q 182 446 176 442 q 186 447 185 444 q 190 453 188 450 q 206 457 197 453 q 211 459 208 457 q 219 464 214 461 q 226 465 222 463 q 233 465 229 467 q 240 466 238 467 q 250 467 243 465 q 265 469 250 472 q 282 472 276 469 q 285 471 283 472 q 292 472 288 469 q 303 468 299 472 q 313 467 310 467 q 319 465 317 468 q 328 465 322 467 q 340 467 333 464 q 353 458 350 460 q 371 453 365 458 q 386 447 374 454 q 390 445 389 449 q 396 442 392 442 q 401 438 399 439 q 404 435 403 438 q 407 427 406 429 q 411 422 408 425 q 416 414 414 415 q 421 408 418 413 q 426 402 425 406 q 431 396 428 399 q 432 390 431 392 q 438 383 433 389 q 440 378 439 381 q 442 372 442 375 q 450 358 447 364 q 451 353 451 356 q 453 350 450 351 q 453 343 453 347 q 457 338 454 339 q 457 322 456 331 q 461 317 461 319 q 464 310 461 315 q 465 302 464 306 q 463 294 465 299 q 464 282 465 292 q 463 276 463 278 q 465 267 464 274 q 466 258 465 261 q 465 249 467 256 q 465 244 467 246 q 464 238 464 242 q 467 233 467 236 q 465 226 467 229 q 464 219 463 222 q 464 214 465 217 q 463 199 464 204 q 461 181 465 192 q 461 175 463 179 q 457 167 460 171 q 458 160 457 164 q 454 153 458 157 q 455 147 457 150 q 453 140 453 143 q 450 124 450 135 q 445 116 446 119 q 443 110 444 113 q 440 104 440 106 q 438 100 440 103 q 433 91 435 94 q 432 85 432 88 q 427 78 429 81 q 422 72 425 75 q 415 64 418 72 q 410 57 413 61 q 406 50 407 53 q 400 48 403 49 q 392 43 397 47 q 381 36 388 43 q 368 35 379 35 q 351 31 363 26 q 344 28 350 26 q 335 26 339 29 q 327 27 331 28 q 321 26 324 26 q 311 26 314 28 q 303 26 308 24 l 290 25 l 276 24 l 261 25 l 244 24 q 233 26 239 26 q 225 29 228 26 q 213 29 218 28 q 204 29 208 31 q 197 30 199 28 q 193 33 196 32 l 185 39 l 171 46 l 172 46 z "},"9":{"ha":551,"x_min":65,"x_max":486,"o":"m 281 338 q 289 338 286 336 q 296 340 292 340 q 303 340 300 338 q 310 339 306 342 q 317 341 313 340 q 324 346 321 342 q 329 346 326 344 q 336 349 332 347 q 342 352 339 351 q 350 358 344 353 q 361 363 357 358 q 366 368 363 367 q 371 372 369 369 q 374 378 372 376 q 379 382 376 379 q 386 388 385 385 q 389 390 388 390 q 394 397 392 394 q 399 406 396 400 q 403 410 401 408 q 407 418 406 413 q 410 424 408 421 q 414 432 413 428 q 419 436 415 435 q 424 444 422 438 q 426 449 426 447 q 429 458 425 451 q 433 465 432 461 q 436 469 433 468 q 439 482 433 482 q 442 492 442 489 q 446 497 443 494 q 447 508 446 504 q 447 513 447 511 q 449 520 449 517 q 451 528 450 524 q 453 536 453 533 q 454 542 453 539 q 456 548 453 544 q 457 557 458 551 q 460 563 460 561 q 461 568 460 565 q 459 576 460 574 q 458 582 458 578 q 459 588 458 585 q 461 597 460 590 q 460 601 460 600 q 461 606 461 603 q 462 611 464 608 q 458 617 460 614 q 460 624 461 621 q 460 631 460 628 q 460 633 460 632 q 460 638 460 636 q 461 640 461 639 q 458 647 460 644 q 457 653 457 650 q 456 661 456 658 q 456 667 457 664 q 454 685 451 675 q 452 690 454 686 q 450 697 450 693 q 450 706 449 701 q 450 714 451 711 q 448 722 449 719 q 444 732 447 725 q 440 746 440 740 q 440 754 440 749 q 439 764 439 760 q 435 771 438 765 q 431 779 433 776 q 428 793 433 783 q 426 803 429 800 q 421 813 422 806 q 417 825 424 815 q 414 831 415 828 q 410 838 413 835 q 409 846 410 843 q 407 854 408 849 q 399 869 400 857 q 394 874 396 872 q 393 879 393 875 q 390 884 392 882 q 386 888 388 886 q 382 894 383 893 q 379 899 381 896 q 373 905 374 903 q 371 910 372 907 q 365 913 367 911 q 358 914 363 914 q 355 920 360 918 q 347 925 350 922 q 342 925 344 924 q 335 928 340 926 q 328 932 332 931 q 325 932 325 933 q 311 933 317 932 q 303 935 306 933 q 294 933 300 936 q 288 936 292 935 q 282 935 285 938 q 274 936 278 935 q 265 936 271 938 q 258 933 261 935 q 249 932 256 932 q 242 932 246 933 q 235 929 238 931 q 228 928 232 931 q 221 925 224 926 q 206 919 217 926 q 201 918 204 919 q 196 914 197 917 q 190 912 193 913 q 183 908 186 911 q 178 903 182 906 q 172 899 175 900 q 167 895 169 899 q 164 889 165 892 q 159 885 161 886 q 156 882 157 885 q 150 875 151 878 q 144 871 149 872 q 141 865 143 867 q 140 861 139 864 q 133 854 135 858 q 129 847 132 850 q 129 842 131 843 q 125 833 128 840 q 117 825 122 828 q 114 813 118 819 q 108 797 108 801 q 105 791 106 794 q 101 783 104 788 q 102 777 104 781 q 101 767 100 774 q 94 753 99 761 q 94 739 100 750 q 94 733 94 738 q 90 728 93 729 q 90 713 93 718 q 89 697 90 701 q 88 691 89 694 q 88 686 88 688 q 85 678 85 682 q 85 672 86 674 q 85 657 90 667 q 86 640 86 654 q 84 638 85 642 q 85 628 83 635 q 86 622 85 625 q 85 617 88 619 l 85 606 q 85 597 85 601 q 86 589 86 593 q 88 583 86 586 q 90 576 90 579 q 90 563 86 564 q 92 553 90 556 q 93 547 93 550 q 92 540 90 544 q 93 533 94 536 q 95 525 93 528 q 97 517 97 522 q 98 510 99 514 q 99 503 97 506 q 102 497 101 500 q 106 490 103 493 q 110 478 103 485 q 109 469 110 474 q 111 464 108 465 q 115 458 114 461 q 117 451 115 454 q 119 442 119 446 q 122 438 119 439 q 126 432 124 435 q 129 424 129 429 q 136 414 129 418 q 140 408 136 410 q 142 401 143 406 q 150 392 150 400 q 156 388 154 389 q 161 385 157 388 q 166 378 163 381 q 169 374 169 375 q 176 369 174 371 q 182 367 179 368 q 188 363 185 365 q 193 361 190 360 q 199 356 196 358 q 204 351 201 353 q 213 349 210 351 q 218 347 215 347 q 231 344 229 343 q 249 342 243 340 q 256 340 251 339 q 265 339 261 340 q 272 337 269 336 q 282 338 275 338 l 281 338 m 457 447 l 443 431 q 433 421 436 428 q 424 407 426 415 q 417 402 419 406 q 413 393 415 399 q 408 390 410 393 q 406 385 406 386 q 394 372 394 376 q 388 365 392 368 q 382 356 385 361 q 368 347 371 354 q 364 342 367 343 q 358 338 361 340 q 351 333 353 335 q 342 332 349 332 q 337 326 340 329 q 329 324 333 324 q 324 321 329 321 q 318 317 319 321 q 304 315 307 322 q 295 312 297 313 q 286 311 293 311 q 267 310 281 313 q 260 311 264 310 q 251 310 257 313 q 247 312 251 311 q 240 314 243 313 q 233 315 236 315 q 226 317 229 315 q 220 320 222 319 q 213 324 218 321 q 208 325 210 325 q 204 329 207 325 q 196 330 199 331 q 192 331 193 329 q 188 336 190 333 q 183 342 185 339 q 175 347 178 344 q 169 350 172 349 q 166 352 167 350 q 163 357 165 354 q 156 363 157 360 q 153 368 154 365 q 149 375 150 372 q 146 379 147 378 q 133 389 136 389 q 128 401 132 393 q 118 415 124 410 q 115 422 115 419 q 111 426 115 424 q 112 435 114 433 q 110 443 110 438 q 105 449 107 446 q 103 456 103 453 q 99 463 100 458 q 96 469 99 467 q 93 485 97 474 q 88 499 90 493 q 85 506 86 504 q 86 514 85 508 q 83 519 83 517 q 79 529 82 522 q 78 540 76 539 q 76 549 76 546 q 78 557 75 551 q 71 568 75 567 q 70 578 71 575 q 71 588 69 581 q 71 592 71 590 q 68 600 71 593 q 71 611 65 606 q 69 620 68 617 q 67 624 69 624 q 68 631 68 628 q 69 639 68 635 q 67 644 68 640 q 69 649 67 647 q 69 658 67 654 q 69 664 71 661 q 69 678 65 674 l 69 692 q 72 697 72 694 q 71 707 72 700 q 74 713 74 708 q 76 722 75 718 q 76 736 76 722 q 78 741 76 738 q 79 749 79 744 q 82 756 82 751 q 85 765 82 760 q 86 770 86 768 q 89 778 86 772 q 90 785 89 781 q 90 793 92 790 q 94 800 93 797 q 96 808 94 803 q 99 814 97 811 q 101 818 100 817 q 104 827 104 822 q 108 836 104 832 q 110 842 111 839 q 111 849 108 844 q 115 853 113 850 q 118 861 117 857 q 125 874 124 864 q 132 883 132 876 q 139 899 139 890 q 149 906 146 900 q 160 915 154 915 q 164 922 161 919 q 169 928 167 924 q 174 931 172 928 q 178 933 175 933 q 184 938 182 936 q 190 946 186 940 q 200 950 192 943 q 205 953 203 953 q 214 957 207 954 q 226 960 215 960 q 231 963 229 961 q 238 963 233 965 q 246 966 243 965 q 251 969 249 967 q 264 969 256 968 q 272 971 268 972 q 279 969 276 969 q 285 970 282 972 q 294 968 289 968 q 304 967 300 974 q 311 967 307 968 q 318 968 315 967 q 322 964 319 964 q 331 960 325 964 q 333 958 332 958 l 339 958 q 345 952 343 953 q 349 951 347 951 q 355 948 354 949 q 357 944 356 947 q 369 933 367 940 q 375 930 372 931 q 381 924 378 929 q 382 920 379 921 q 388 917 385 919 q 392 910 390 911 q 393 904 394 908 q 404 896 399 899 q 407 890 407 893 q 410 882 407 886 q 412 875 410 879 q 415 868 414 871 q 419 864 417 867 q 422 856 422 861 q 426 849 425 851 q 431 844 426 847 q 433 838 432 842 q 436 831 433 833 q 437 822 433 826 q 442 813 440 818 q 443 800 440 813 q 447 793 446 797 q 449 786 447 789 q 450 778 449 779 q 454 769 451 776 q 454 763 453 765 q 454 754 456 760 q 458 746 457 749 q 463 739 460 743 q 463 731 461 735 q 465 722 465 726 q 467 716 467 719 q 469 710 467 713 q 471 690 465 700 q 474 676 468 686 q 474 670 472 674 q 476 661 475 667 q 478 646 475 658 q 476 638 475 642 q 475 628 478 635 q 478 624 478 628 q 476 617 479 619 q 478 609 479 613 q 478 601 478 606 q 481 594 481 599 q 482 588 481 590 q 483 574 479 579 q 483 561 481 571 q 483 552 483 556 q 485 546 482 549 q 483 540 485 543 q 481 535 481 538 q 484 530 485 533 q 486 524 483 526 q 483 517 483 519 q 482 513 483 515 q 482 500 483 508 q 484 497 485 500 q 481 493 483 494 q 481 481 483 488 q 483 469 485 471 q 482 460 481 463 q 481 454 483 457 q 481 447 482 450 q 482 443 479 444 q 482 434 481 438 q 482 429 483 431 q 480 419 479 422 q 478 413 481 415 q 480 406 479 410 q 478 396 481 403 q 477 390 478 393 q 479 383 476 388 q 476 375 476 378 q 476 368 476 372 q 474 351 478 363 q 472 335 476 342 q 471 321 472 326 q 470 311 471 315 q 468 301 469 307 q 467 294 465 296 q 467 288 468 293 q 463 278 464 283 q 460 271 463 274 q 460 261 461 264 q 461 251 458 258 q 457 244 458 247 q 457 236 456 240 q 453 228 454 232 q 450 224 453 224 q 450 213 453 217 q 450 203 447 210 q 444 189 443 194 q 441 181 442 183 q 439 175 440 178 q 436 160 436 160 q 431 152 432 154 q 428 146 431 150 q 426 137 428 142 q 422 131 424 132 q 417 114 422 124 q 411 104 414 104 q 407 94 408 97 q 404 88 406 92 q 402 83 406 85 q 399 75 399 82 q 395 71 396 74 q 392 67 394 68 q 387 60 390 63 q 385 54 383 58 q 378 49 381 51 q 374 46 376 47 q 370 41 371 43 q 367 36 369 39 q 363 33 364 35 q 361 31 363 32 q 358 29 360 31 q 353 25 356 26 q 350 22 351 24 q 344 19 346 19 q 338 15 342 18 q 334 13 338 13 q 329 10 331 13 q 322 8 325 10 q 317 6 319 6 q 311 3 313 4 q 304 0 310 3 q 299 1 303 1 q 294 1 296 1 q 281 1 289 -4 q 274 2 278 1 q 264 1 271 3 q 251 6 258 1 q 243 10 247 8 q 236 14 239 11 q 222 18 231 18 q 204 29 211 22 q 198 34 203 32 q 189 40 193 36 q 181 44 185 43 q 175 47 178 46 q 165 53 168 53 q 160 56 163 54 q 151 59 154 60 q 143 58 149 58 q 133 56 136 58 q 126 51 129 54 l 115 29 q 115 19 115 24 q 113 8 114 15 l 107 25 l 104 39 l 99 57 q 98 65 97 60 q 96 72 99 69 q 96 88 93 82 q 93 103 90 96 q 90 109 90 106 q 88 117 90 113 q 86 124 86 122 q 83 132 86 126 q 85 139 86 135 q 83 146 85 143 q 81 155 81 151 q 79 161 81 158 q 79 171 78 167 q 79 178 81 175 q 77 186 76 182 q 78 196 78 190 q 75 203 75 200 q 74 213 75 206 q 74 219 72 215 q 75 225 75 224 q 72 233 72 228 q 69 242 72 238 q 72 254 69 249 l 76 243 l 82 229 q 85 222 85 225 q 89 214 86 218 q 92 208 92 214 q 93 203 93 206 q 95 194 96 199 q 97 185 94 189 q 103 178 101 183 q 106 171 104 174 q 108 165 106 168 q 110 157 110 161 q 115 149 113 151 q 119 143 118 146 q 122 135 121 136 q 125 131 122 133 q 132 115 125 126 q 136 110 136 114 q 138 108 138 110 q 144 99 143 104 q 147 92 144 94 q 151 86 150 89 q 154 81 151 83 q 160 77 157 78 q 164 71 164 76 q 178 64 171 65 q 181 57 178 60 q 186 53 183 54 q 192 48 189 50 q 196 43 194 46 q 210 38 204 43 q 216 35 213 36 q 225 31 219 33 q 231 29 228 32 q 238 26 235 26 q 256 24 244 26 q 272 21 260 19 q 290 21 279 17 q 306 22 292 18 q 313 22 308 22 q 318 25 317 22 q 332 28 328 31 q 338 33 336 32 q 343 40 340 35 q 353 46 351 43 q 358 53 356 50 q 364 58 360 56 q 371 67 364 57 q 375 73 374 69 q 379 79 376 76 q 382 86 381 82 q 386 93 383 90 q 389 104 386 93 q 393 110 393 107 q 396 115 393 113 q 397 122 396 119 q 401 126 399 124 q 403 131 401 129 q 407 140 404 133 q 410 146 410 143 q 413 153 410 149 q 413 157 411 154 q 414 167 415 160 q 418 171 415 168 q 419 179 421 174 q 423 183 421 181 q 424 193 425 186 q 426 199 425 196 q 431 204 426 201 q 431 215 429 211 q 435 221 433 218 q 438 236 435 228 q 439 244 438 240 q 440 250 440 247 q 446 268 440 260 q 447 274 447 269 q 449 283 447 279 q 449 288 447 285 q 450 297 451 292 q 451 304 451 301 q 454 310 451 307 q 454 318 453 314 q 457 325 456 322 q 456 332 456 329 q 457 338 457 335 q 456 344 457 342 q 458 349 456 347 q 456 356 456 353 q 454 363 456 360 l 458 378 l 458 389 l 456 407 l 458 419 l 458 432 l 458 450 l 457 447 z "},"\u0000":{"ha":0,"x_min":0,"x_max":0,"o":""},"\r":{"ha":347,"x_min":0,"x_max":0,"o":""}," ":{"ha":361,"x_min":0,"x_max":0,"o":""},"!":{"ha":313,"x_min":32,"x_max":282,"o":"m 118 217 q 120 217 121 215 q 121 221 119 219 q 118 219 118 219 q 121 222 118 219 q 121 224 118 222 q 122 228 124 226 q 123 231 122 229 q 122 236 124 233 q 123 239 121 239 q 125 242 125 239 q 124 248 125 244 q 124 253 124 251 q 123 257 124 254 q 124 263 122 260 q 126 269 125 265 q 128 276 126 274 q 126 283 125 279 q 124 292 126 286 q 124 297 125 294 q 125 306 124 300 q 126 314 125 308 q 126 324 126 319 q 127 331 125 328 q 126 340 129 333 q 128 346 129 343 q 128 356 126 349 q 131 372 131 358 q 129 383 131 376 q 128 394 128 389 q 129 413 131 400 q 131 421 132 418 q 131 431 129 424 q 131 439 129 433 q 132 447 132 444 q 130 459 129 456 q 132 469 131 463 q 132 479 132 474 q 131 492 132 485 q 131 500 132 497 q 133 510 131 503 q 133 518 135 513 q 133 531 132 524 q 133 541 135 536 q 131 550 132 546 q 132 567 132 557 q 132 576 132 574 q 131 586 132 579 q 133 596 133 590 q 133 606 133 601 q 133 615 131 610 q 133 621 135 619 q 135 632 133 628 q 133 639 136 636 q 136 656 133 650 q 133 663 133 658 q 133 671 133 668 q 136 688 133 681 q 134 694 135 692 q 136 700 133 697 q 134 706 135 703 q 132 711 133 710 q 136 721 135 721 q 134 728 135 726 q 133 732 133 729 q 135 740 136 736 q 134 742 133 742 q 133 743 135 742 q 135 747 135 747 q 138 750 135 747 q 133 756 133 750 q 135 760 135 758 q 136 764 135 761 q 136 776 135 772 q 138 793 135 786 q 135 801 135 797 q 133 808 136 804 q 135 820 136 814 q 135 831 133 826 q 136 840 138 835 q 135 850 135 846 q 138 867 135 860 q 136 878 138 872 q 135 889 135 883 q 138 901 138 894 q 135 911 135 908 q 135 917 136 914 q 136 926 135 924 q 138 931 138 928 q 136 938 136 933 q 133 942 133 940 q 135 942 132 944 q 128 949 135 953 q 119 952 125 951 q 110 953 114 953 q 94 958 106 958 q 84 958 88 957 q 74 960 81 960 q 58 963 69 960 q 40 968 46 963 q 32 971 32 967 q 41 971 38 972 q 47 969 44 969 q 58 972 57 972 q 67 974 65 974 q 72 975 69 975 q 81 972 78 972 q 86 971 83 971 q 94 973 89 974 q 99 971 99 972 q 108 973 103 974 q 118 975 113 972 q 123 972 119 972 q 129 974 126 972 q 133 972 132 971 q 136 971 135 972 q 144 971 142 972 q 149 971 146 969 q 157 971 153 974 q 163 971 160 971 q 173 972 169 971 q 183 971 176 972 q 192 974 188 974 q 201 974 197 974 q 211 973 207 972 q 221 971 215 974 q 242 971 229 975 q 248 971 244 969 q 257 969 251 972 q 267 968 261 968 q 274 966 272 965 q 278 964 275 967 q 281 964 282 965 q 275 962 278 964 q 268 963 272 960 q 260 959 265 958 q 250 957 254 960 q 240 956 243 956 q 229 953 236 956 q 207 953 222 957 q 192 950 199 956 q 183 952 188 953 q 175 951 179 951 q 170 949 172 949 q 167 949 168 950 q 160 940 161 943 q 158 931 164 936 q 160 924 161 926 q 158 917 158 921 q 161 909 160 913 q 161 900 163 906 q 162 894 161 899 q 160 886 163 890 l 160 874 q 160 865 163 867 q 158 857 158 863 q 160 849 160 853 q 163 843 160 846 q 161 834 161 839 q 158 825 161 829 q 158 817 157 821 q 160 810 160 813 q 160 793 158 801 q 160 788 160 790 q 158 781 161 786 q 158 773 160 776 q 160 767 157 769 q 158 757 157 761 q 158 750 158 753 q 159 744 160 749 q 160 736 158 740 q 158 731 157 733 q 160 724 160 729 q 160 708 157 721 q 160 703 160 706 q 157 693 160 701 q 158 688 158 692 q 157 682 157 685 l 157 665 q 160 653 160 658 q 160 646 160 649 q 157 629 157 639 q 160 611 157 622 q 158 603 157 606 q 161 596 160 600 q 159 584 158 589 q 158 576 160 579 q 158 558 157 567 q 158 549 158 554 q 158 539 157 544 q 158 531 158 536 q 161 518 158 525 q 159 512 161 515 q 158 504 157 508 q 160 494 161 499 q 160 485 158 489 q 160 475 160 479 q 161 464 161 471 q 159 456 158 460 q 160 449 160 451 q 160 439 160 444 q 161 429 160 433 q 161 413 158 415 q 160 403 158 407 q 158 392 161 399 q 160 385 161 389 q 158 375 158 382 q 160 358 163 372 q 159 352 158 356 q 160 344 160 349 q 160 333 158 338 q 160 326 161 329 q 160 321 160 324 q 158 315 160 318 q 162 306 161 308 q 163 300 163 303 q 163 286 158 292 q 161 279 161 285 q 161 271 161 274 q 163 261 160 269 q 163 251 158 260 q 161 247 163 250 q 163 240 160 243 q 162 236 161 239 q 160 232 163 233 q 158 228 160 229 q 160 222 160 222 q 161 218 160 221 q 160 214 161 218 q 161 213 161 213 q 160 210 161 211 l 161 211 l 161 208 q 160 208 160 208 l 144 208 l 133 213 l 119 218 l 118 217 m 85 42 q 86 48 85 44 q 88 54 88 51 q 90 60 89 57 q 93 67 92 63 q 99 73 96 71 q 103 78 101 75 q 109 78 106 76 q 115 81 113 81 q 126 82 122 82 q 133 82 131 82 q 154 82 149 85 q 161 78 158 79 q 167 74 164 76 q 172 73 171 75 q 179 68 174 71 q 181 60 179 64 q 183 53 183 56 q 185 47 185 50 q 186 40 185 44 q 185 31 188 36 q 178 17 181 19 q 167 10 172 10 q 160 6 163 7 q 154 4 158 4 q 133 1 143 1 q 125 0 131 0 q 117 4 119 0 q 106 8 110 4 q 99 13 101 11 q 93 18 96 14 q 90 23 92 19 q 89 29 88 26 q 86 40 86 35 l 85 42 z "},"\"":{"ha":233,"x_min":69,"x_max":165,"o":"m 128 972 q 135 964 131 969 q 139 956 139 958 q 146 936 147 944 q 147 927 146 931 q 146 921 147 924 q 143 906 142 913 q 139 898 140 901 q 133 892 138 894 q 131 885 133 889 q 125 881 128 882 q 113 869 115 876 q 106 866 107 867 q 97 865 104 865 q 92 861 94 863 q 89 857 90 860 q 83 856 85 857 q 79 856 82 856 q 71 850 72 853 l 69 843 l 81 840 l 97 844 q 110 844 104 843 q 124 854 121 849 q 131 858 129 857 q 135 860 132 858 q 146 868 143 864 q 151 874 150 871 q 156 879 153 878 q 157 887 156 883 q 158 893 158 890 q 161 902 158 897 q 165 907 164 907 q 165 917 165 914 q 164 925 164 921 q 164 934 163 929 q 164 946 165 939 q 162 951 163 949 q 158 958 161 954 q 153 965 157 963 q 147 967 150 967 q 128 974 140 974 l 128 972 z "},"#":{"ha":1083,"x_min":50,"x_max":1032,"o":"m 121 710 l 119 703 l 138 704 l 151 701 l 163 703 l 179 701 l 194 700 l 207 704 l 224 704 l 236 701 l 251 706 l 264 704 l 281 701 l 292 704 l 307 704 l 325 703 l 339 701 l 351 703 l 367 706 l 378 703 l 393 704 l 390 689 l 385 675 l 382 663 l 381 650 l 374 638 l 369 624 l 364 607 l 363 597 l 358 583 l 354 568 l 350 557 l 346 543 l 343 529 l 339 517 l 335 501 l 331 488 l 326 474 l 325 464 l 321 450 l 315 438 l 311 421 l 308 411 l 304 394 l 300 381 l 297 367 l 290 354 l 289 339 l 276 343 l 261 340 l 247 343 l 232 340 l 221 340 l 206 344 l 190 340 l 174 342 l 161 342 l 147 340 l 135 342 l 124 343 l 106 342 l 92 342 l 81 343 l 67 340 l 50 344 l 51 335 l 68 336 l 79 336 l 97 335 l 111 336 l 126 333 l 138 335 l 153 336 l 168 336 l 183 333 l 196 335 l 211 335 l 229 336 l 240 335 l 257 333 l 269 335 l 288 335 l 283 319 l 278 308 l 275 296 l 269 278 l 264 268 l 260 253 l 260 239 l 254 226 l 247 210 l 247 197 l 239 185 l 239 169 l 232 158 l 231 142 l 224 128 l 219 118 l 215 106 l 213 90 l 206 74 l 203 64 l 201 49 l 197 36 l 192 19 l 203 21 l 204 32 l 213 46 l 213 60 l 221 76 l 224 90 l 229 104 l 229 115 l 238 132 l 239 143 l 243 156 l 250 171 l 250 186 l 254 200 l 260 211 l 264 225 l 267 242 l 274 253 l 275 268 l 278 282 l 282 294 l 286 306 l 289 322 l 299 333 l 311 335 l 322 335 l 340 335 l 354 333 l 367 333 l 382 336 l 394 333 l 407 332 l 425 333 l 436 336 l 449 335 l 467 335 l 479 333 l 493 333 l 506 335 l 519 335 l 533 336 l 549 335 l 563 335 l 575 332 l 589 336 l 604 333 l 618 333 l 633 335 l 646 333 l 661 335 l 675 333 l 692 336 l 689 322 l 682 308 l 675 294 l 672 278 l 671 267 l 667 250 l 660 240 l 660 226 l 656 211 l 650 196 l 647 186 l 640 171 l 639 158 l 633 144 l 631 129 l 626 114 l 622 103 l 617 90 l 613 78 l 610 60 l 606 49 l 603 36 l 594 22 l 607 18 l 613 38 l 617 47 l 618 64 l 622 75 l 628 89 l 631 104 l 635 115 l 639 128 l 642 143 l 647 157 l 651 169 l 657 183 l 658 199 l 664 211 l 665 226 l 674 238 l 678 254 l 679 268 l 682 282 l 686 292 l 693 310 l 696 324 l 701 336 l 714 335 l 731 335 l 743 336 l 757 333 l 774 333 l 789 332 l 804 336 l 818 333 l 833 332 l 846 336 l 861 335 l 875 332 l 888 336 l 903 336 l 921 336 l 936 336 l 949 336 l 964 335 l 961 340 l 950 342 l 932 343 l 917 342 l 907 342 l 890 340 l 875 340 l 860 342 l 847 340 l 833 339 l 817 340 l 801 342 l 786 340 l 774 343 l 758 342 l 743 342 l 731 340 l 718 343 l 703 343 l 706 353 l 707 368 l 715 385 l 717 393 l 724 407 l 726 424 l 731 438 l 732 446 l 735 461 l 742 478 l 743 486 l 749 503 l 753 517 l 758 529 l 761 542 l 765 554 l 769 569 l 772 581 l 776 596 l 785 607 l 788 625 l 790 633 l 796 647 l 796 663 l 800 676 l 806 690 l 807 701 l 824 700 l 839 701 l 850 701 l 865 703 l 878 704 l 892 704 l 908 703 l 921 704 l 933 704 l 946 704 l 961 704 l 975 701 l 989 701 l 1004 701 l 1021 700 l 1032 703 l 1031 713 l 1015 710 l 1003 708 l 988 711 l 974 711 l 961 711 l 946 710 l 926 708 l 914 708 l 901 710 l 883 708 l 869 711 l 853 711 l 842 710 l 828 710 l 810 708 l 815 724 l 818 738 l 822 750 l 826 763 l 832 778 l 838 793 l 838 806 l 843 817 l 847 829 l 854 844 l 856 858 l 861 869 l 863 886 l 869 897 l 871 914 l 874 924 l 882 939 l 885 956 l 889 965 l 893 978 l 897 994 l 901 1008 l 903 1019 l 894 1019 l 889 1007 l 885 996 l 882 978 l 876 967 l 875 951 l 871 939 l 864 925 l 861 913 l 858 897 l 851 888 l 851 871 l 843 861 l 839 846 l 839 831 l 832 818 l 831 803 l 828 793 l 819 779 l 818 763 l 811 749 l 808 735 l 803 724 l 803 710 l 788 708 l 771 710 l 757 710 l 747 708 l 731 708 l 715 708 l 704 708 l 690 707 l 676 708 l 661 713 l 644 710 l 632 708 l 619 713 l 607 710 l 592 711 l 574 707 l 561 708 l 547 708 l 536 711 l 521 710 l 507 707 l 489 710 l 476 708 l 465 711 l 451 711 l 433 708 l 422 711 l 408 710 l 411 722 l 414 736 l 417 750 l 422 765 l 429 779 l 432 792 l 433 806 l 442 817 l 444 833 l 447 843 l 451 861 l 456 874 l 460 883 l 465 901 l 465 915 l 472 924 l 474 942 l 479 954 l 481 964 l 485 981 l 492 993 l 496 1010 l 497 1019 l 489 1022 l 486 1008 l 482 993 l 476 981 l 475 965 l 469 954 l 467 942 l 458 924 l 456 911 l 454 900 l 449 883 l 447 874 l 439 858 l 439 846 l 431 829 l 429 819 l 426 807 l 421 790 l 417 779 l 415 764 l 410 749 l 407 739 l 401 721 l 399 710 l 382 710 l 368 708 l 356 707 l 339 710 l 326 710 l 311 711 l 297 710 l 279 708 l 268 710 l 253 708 l 239 710 l 222 707 l 210 711 l 194 711 l 178 710 l 164 710 l 147 711 l 136 708 l 119 711 l 121 710 m 692 342 l 679 343 l 663 343 l 649 342 l 633 343 l 621 340 l 606 343 l 596 343 l 581 342 l 567 342 l 553 343 l 539 342 l 522 340 l 510 343 l 494 342 l 479 340 l 464 343 l 453 340 l 438 339 l 424 342 l 410 343 l 396 340 l 383 342 l 367 344 l 353 343 l 338 342 l 325 342 l 313 342 l 297 344 l 301 356 l 307 369 l 310 382 l 315 396 l 319 408 l 319 422 l 324 438 l 331 451 l 333 461 l 338 478 l 339 488 l 346 503 l 350 517 l 354 528 l 358 542 l 363 557 l 367 568 l 371 585 l 374 597 l 378 608 l 381 624 l 386 638 l 386 650 l 392 664 l 397 674 l 401 690 l 403 701 l 419 704 l 431 703 l 449 703 l 460 703 l 474 703 l 488 701 l 501 704 l 514 706 l 531 703 l 543 704 l 557 701 l 572 703 l 586 701 l 603 703 l 617 704 l 628 701 l 646 703 l 657 704 l 672 704 l 686 703 l 699 701 l 714 703 l 729 700 l 742 701 l 757 703 l 769 701 l 785 703 l 797 706 l 793 688 l 792 678 l 788 661 l 782 647 l 778 638 l 775 621 l 769 610 l 767 594 l 761 582 l 761 567 l 756 557 l 753 544 l 744 531 l 746 517 l 738 503 l 733 488 l 732 476 l 729 460 l 724 446 l 721 435 l 714 421 l 714 408 l 708 394 l 703 379 l 700 368 l 694 353 l 692 343 l 692 342 z "},"$":{"ha":626,"x_min":61,"x_max":567,"o":"m 169 56 q 172 44 172 49 q 172 33 172 39 q 169 28 169 32 q 165 21 168 24 q 160 18 163 18 q 154 15 157 18 q 148 12 151 14 q 140 8 144 10 q 140 13 140 13 q 133 22 140 14 q 129 28 138 26 q 125 42 133 33 q 119 57 128 51 q 117 64 119 60 q 114 69 115 68 q 112 79 115 74 q 108 90 108 85 q 106 97 108 92 q 103 104 104 101 q 99 115 101 111 q 93 122 96 118 q 92 133 94 129 q 90 142 89 138 q 85 158 85 147 q 82 166 83 161 q 78 174 81 171 q 74 183 75 179 q 71 189 72 186 q 67 204 68 197 q 67 210 68 208 q 65 217 67 213 q 64 224 61 221 l 74 206 q 83 197 78 200 q 90 189 88 193 q 96 176 94 185 q 101 171 99 175 q 104 165 103 167 q 108 158 106 164 q 115 151 111 156 q 118 144 119 147 q 128 132 128 138 q 136 122 133 129 q 141 116 139 119 q 146 111 143 113 q 150 104 149 108 q 158 101 151 100 q 160 92 157 94 q 167 88 163 90 q 169 85 168 88 q 174 81 171 82 q 179 76 178 78 q 186 71 181 74 q 190 66 186 68 q 193 63 194 64 q 208 54 203 63 q 214 53 211 56 q 219 50 217 50 q 225 47 221 49 q 232 46 229 44 q 246 38 233 42 q 251 36 249 36 q 257 35 254 36 q 264 33 261 35 q 274 31 267 32 q 280 30 276 31 q 289 29 283 29 q 297 24 292 25 q 304 26 301 24 l 329 19 l 349 18 l 363 14 l 379 19 l 400 26 q 414 32 403 29 q 428 36 422 31 q 435 40 432 38 q 443 40 438 43 q 449 46 444 43 q 457 51 454 49 q 461 53 460 53 q 465 56 463 54 l 478 68 q 486 75 481 69 q 493 78 490 75 q 496 81 494 79 q 506 94 506 89 q 511 100 508 99 q 513 107 514 101 q 521 115 518 107 q 522 121 521 119 q 526 125 524 122 q 531 140 531 136 q 535 146 533 143 q 538 156 538 149 q 539 160 539 158 q 542 165 539 163 q 544 182 544 176 q 544 190 546 186 q 542 197 543 194 q 546 215 544 208 q 545 220 547 217 q 546 228 543 224 q 543 233 543 231 q 540 240 543 236 q 543 256 544 251 q 540 263 539 260 q 540 269 540 267 q 537 277 536 274 q 536 283 538 281 q 529 296 533 288 q 528 302 529 300 q 525 310 528 304 q 524 316 525 311 q 524 324 524 321 q 517 328 518 326 q 517 338 515 331 q 508 347 508 340 q 504 352 507 349 q 499 360 501 356 q 494 363 496 363 q 492 368 492 364 q 487 375 490 374 q 481 379 483 376 q 472 388 481 385 q 469 392 472 390 q 467 394 467 393 q 461 397 464 396 q 453 403 458 399 q 451 406 453 404 q 446 411 449 408 q 429 419 438 414 q 424 424 426 422 q 417 428 422 425 q 411 433 414 432 q 403 438 408 433 q 386 444 396 442 q 383 451 386 449 q 376 457 379 454 q 367 459 372 457 q 358 463 363 461 q 346 471 353 471 q 332 479 338 479 q 326 483 329 482 q 319 486 322 483 q 312 490 315 489 q 306 496 308 492 q 300 497 303 497 q 294 500 297 497 q 291 501 292 501 q 288 503 290 500 q 278 508 281 504 q 274 511 276 511 q 265 515 268 513 q 258 519 263 517 q 253 523 257 521 q 247 526 250 525 q 240 530 242 529 q 235 532 238 531 q 221 540 226 538 q 211 551 219 546 q 203 554 204 553 q 194 558 201 556 q 192 564 196 560 q 188 565 190 564 q 181 570 183 568 q 172 575 179 572 q 163 583 167 581 q 158 590 163 586 q 154 594 154 593 q 149 599 151 596 q 143 604 146 601 q 135 611 136 611 q 129 618 132 614 q 125 624 126 622 q 122 627 124 625 q 114 632 119 629 q 108 644 115 640 q 101 656 106 651 q 97 662 100 660 q 93 667 94 664 q 90 683 90 672 q 86 688 89 686 q 86 692 83 689 q 81 700 83 699 q 76 708 79 701 q 76 722 76 708 q 75 728 75 725 q 72 732 75 731 q 68 747 71 746 q 68 757 68 751 q 69 765 68 763 q 67 773 68 771 q 69 781 67 775 q 68 796 67 792 q 69 803 69 799 q 67 810 68 807 q 69 819 67 815 q 72 828 72 822 q 71 833 69 828 q 75 840 72 838 q 76 847 76 843 q 76 856 76 851 q 80 861 78 858 q 83 869 82 864 q 88 882 83 872 q 92 886 90 885 q 96 893 94 888 q 101 899 100 897 q 107 903 103 901 q 110 910 107 906 q 117 917 113 915 q 121 922 119 919 q 126 929 122 925 q 131 932 128 931 q 136 936 133 933 q 142 940 139 939 q 150 946 144 942 q 161 953 150 947 q 167 956 164 956 q 175 958 169 956 q 181 960 178 957 q 185 963 183 963 q 194 965 190 965 q 203 969 199 965 q 209 969 206 968 q 217 968 213 969 q 222 969 219 968 q 228 969 224 971 q 243 972 239 974 q 251 973 247 975 q 258 971 256 971 q 268 972 264 971 q 279 971 272 972 q 292 967 282 972 q 297 966 294 967 q 303 967 300 965 q 311 964 308 964 q 315 964 314 964 q 329 957 321 960 q 340 951 336 956 q 347 948 343 950 q 357 943 350 946 q 363 942 360 944 q 368 938 367 939 q 376 933 374 936 q 385 928 379 931 q 384 944 386 935 q 385 957 382 953 q 392 959 390 958 q 397 960 394 960 q 407 964 404 963 q 417 965 410 965 q 417 961 415 963 q 418 956 418 960 q 419 943 419 953 q 425 940 424 942 q 429 935 426 938 q 431 919 426 925 q 434 911 433 915 q 438 904 435 907 q 446 889 443 900 q 451 875 443 883 q 454 869 451 872 q 456 861 457 865 q 462 853 460 857 q 467 842 464 849 q 466 834 464 839 q 469 826 468 829 q 475 811 469 814 q 478 803 478 807 q 481 793 478 799 q 483 783 485 788 q 486 775 486 778 q 490 769 486 772 q 484 780 488 776 q 482 781 481 783 q 476 790 478 788 q 472 797 475 793 q 467 805 468 801 q 464 811 467 808 q 458 820 461 817 q 451 826 454 824 q 449 832 453 829 q 444 838 446 835 q 442 843 444 842 q 438 847 440 844 q 432 854 435 853 q 428 860 429 856 q 417 872 418 865 q 410 876 413 872 q 406 879 408 881 q 397 888 400 886 q 392 892 394 889 q 378 903 386 899 q 372 908 376 907 q 365 911 368 908 q 360 916 363 915 q 351 919 358 917 q 348 925 350 924 q 343 931 346 926 q 337 931 340 928 q 331 932 333 933 q 323 937 328 935 q 313 942 318 939 q 303 946 308 946 q 295 946 299 944 q 289 947 292 947 q 281 949 285 950 q 275 951 278 949 q 265 953 268 954 q 260 951 263 953 q 252 953 256 954 q 242 956 249 953 q 235 955 238 956 q 229 951 233 954 q 221 952 224 954 q 214 951 218 950 q 206 950 210 951 q 200 947 203 949 q 182 942 189 944 q 169 939 182 938 q 165 935 168 938 q 160 929 163 932 q 151 926 154 926 q 146 924 149 926 q 141 917 143 918 q 138 914 139 917 q 132 908 135 911 q 124 903 129 906 q 122 897 125 900 q 119 889 118 893 q 114 885 114 886 q 111 881 114 883 q 106 873 108 875 q 106 868 104 871 q 102 860 104 863 q 99 856 100 858 q 92 839 93 844 q 92 832 93 835 q 89 825 90 829 q 90 817 92 822 q 88 810 88 813 q 88 793 86 801 q 87 787 85 789 q 86 781 89 785 q 89 774 89 778 q 89 765 89 771 q 90 750 89 754 q 92 743 92 747 q 93 736 93 739 q 97 728 94 733 q 99 721 99 724 q 102 714 101 718 q 106 708 103 710 q 110 693 110 700 q 113 688 113 692 q 118 681 114 683 q 125 668 118 675 q 129 662 128 665 q 133 656 131 658 q 137 650 135 651 q 142 644 139 649 q 151 636 147 638 q 156 628 153 631 q 161 622 158 626 q 167 619 163 622 q 171 611 171 615 q 178 610 171 614 q 179 608 176 608 q 183 604 182 607 q 188 601 186 603 q 193 599 190 600 q 200 594 197 596 q 208 589 203 592 q 213 586 211 588 q 219 583 215 585 q 229 577 226 579 q 238 574 232 575 q 244 566 240 568 q 254 561 247 564 q 262 556 257 560 q 271 554 267 553 q 288 542 279 543 q 296 536 290 539 q 304 531 301 533 q 314 526 308 528 q 324 522 319 525 q 330 518 326 519 q 339 511 333 517 q 354 507 342 507 q 365 497 360 500 q 371 494 368 494 q 376 489 374 493 q 383 487 382 488 q 388 488 385 486 q 390 486 389 486 q 393 482 393 483 q 397 483 396 483 q 401 482 400 483 q 404 481 401 481 q 408 476 406 478 q 414 471 411 474 q 423 466 421 468 q 431 461 425 464 q 440 453 436 457 q 447 449 443 450 q 455 440 450 444 q 464 431 460 436 q 469 425 467 428 q 475 421 472 422 q 481 415 479 417 q 486 408 482 414 q 490 406 488 407 q 492 401 492 404 q 497 399 494 399 q 501 396 499 399 l 518 379 l 531 361 q 532 361 531 364 q 535 357 533 358 q 540 336 540 343 q 543 326 542 331 q 546 317 544 322 q 550 308 547 311 q 554 299 550 303 q 557 288 556 292 q 561 279 558 285 q 563 267 560 274 q 567 256 565 260 q 566 244 565 249 q 564 235 567 240 q 563 221 565 229 q 564 212 565 215 q 560 203 563 208 q 561 197 563 200 q 563 190 560 194 q 558 181 560 185 q 560 172 557 178 q 556 160 554 167 q 552 150 553 153 q 549 144 551 147 q 547 138 547 142 q 544 131 547 133 q 541 125 543 129 q 540 121 539 121 q 535 113 538 115 q 535 104 533 110 q 526 94 526 99 q 522 88 524 90 q 517 82 521 85 q 512 76 514 79 q 507 74 510 74 q 497 61 507 68 q 495 57 496 58 q 489 53 494 56 q 481 43 483 44 q 474 40 478 42 q 468 36 471 39 q 462 31 465 33 q 458 26 458 29 q 449 26 451 26 q 444 22 447 25 q 433 18 433 19 q 424 14 428 17 q 419 11 421 11 q 412 8 417 8 q 403 7 407 8 q 389 7 397 4 q 383 5 386 6 q 375 1 381 4 q 368 1 372 3 q 357 3 364 0 q 343 -1 353 -3 q 336 1 339 1 q 331 1 333 1 q 324 1 328 0 q 315 3 319 3 q 300 4 310 -1 q 295 4 300 3 q 286 6 290 6 q 281 8 283 6 q 275 8 279 10 q 267 11 269 10 q 261 11 265 13 q 254 17 258 15 q 246 19 250 18 q 235 22 243 17 q 224 29 224 22 q 214 31 217 28 q 210 33 211 33 q 202 39 204 38 q 196 43 200 40 q 190 46 193 44 q 185 50 188 47 q 178 53 181 53 q 169 56 176 53 l 169 56 m 317 -69 l 288 -71 l 289 -58 l 290 -43 l 292 -29 l 289 -11 l 292 1 l 292 15 l 290 29 l 288 42 l 288 57 l 289 68 l 289 85 l 290 96 l 292 113 l 292 125 l 288 139 l 289 156 l 292 167 l 292 178 l 292 192 l 288 210 l 292 224 l 290 235 l 289 251 l 292 261 l 290 278 l 290 290 l 290 306 l 289 321 l 290 331 l 290 350 l 290 360 l 292 375 l 288 388 l 289 401 l 288 418 l 292 428 l 292 442 l 288 456 l 293 474 l 289 489 l 292 497 l 292 514 l 288 526 l 293 543 l 293 554 l 290 568 l 290 582 l 290 599 l 288 608 l 289 625 l 292 638 l 293 654 l 289 667 l 289 679 l 292 696 l 292 710 l 292 721 l 288 739 l 293 750 l 290 765 l 292 778 l 292 793 l 292 804 l 293 818 l 289 832 l 292 847 l 290 863 l 290 875 l 289 889 l 290 901 l 292 914 l 292 931 l 289 946 l 290 961 l 290 971 l 288 989 l 292 999 l 290 1015 l 289 1028 l 293 1042 l 317 1042 l 315 1029 l 317 1015 l 318 1000 l 315 988 l 318 971 l 318 957 l 315 946 l 317 932 l 315 917 l 318 900 l 315 888 l 315 876 l 318 861 l 315 846 l 317 833 l 318 822 l 314 807 l 317 794 l 319 779 l 318 764 l 318 749 l 317 733 l 315 721 l 318 707 l 315 694 l 315 678 l 318 665 l 314 656 l 315 640 l 319 624 l 319 613 l 317 596 l 315 586 l 315 568 l 317 556 l 317 540 l 317 526 l 315 514 l 317 501 l 318 485 l 318 474 l 317 460 l 319 447 l 317 433 l 315 415 l 318 401 l 318 388 l 314 375 l 315 363 l 315 350 l 318 332 l 315 319 l 317 307 l 317 290 l 317 278 l 318 265 l 315 247 l 315 235 l 318 222 l 318 208 l 317 193 l 314 179 l 315 169 l 317 156 l 314 138 l 317 124 l 315 110 l 318 96 l 318 83 l 318 68 l 317 53 l 319 40 l 318 28 l 318 14 l 317 0 l 317 -14 l 314 -28 l 318 -42 l 317 -57 l 314 -71 l 317 -69 z "},"%":{"ha":1085,"x_min":110,"x_max":976,"o":"m 193 0 l 207 1 l 222 1 l 231 10 l 238 25 l 243 36 l 253 46 l 261 58 l 268 69 l 276 81 l 286 93 l 292 101 l 299 115 l 307 128 l 318 139 l 328 149 l 333 160 l 344 169 l 351 185 l 357 192 l 364 206 l 375 219 l 381 229 l 392 242 l 400 251 l 407 263 l 414 271 l 424 286 l 431 297 l 439 307 l 447 322 l 456 331 l 463 343 l 472 356 l 479 364 l 486 376 l 496 388 l 503 399 l 513 410 l 517 424 l 525 433 l 536 443 l 542 454 l 551 465 l 557 478 l 568 490 l 575 503 l 582 514 l 590 526 l 599 533 l 608 544 l 618 558 l 621 571 l 632 579 l 640 596 l 650 604 l 657 615 l 665 626 l 669 639 l 679 650 l 688 663 l 699 674 l 703 683 l 714 697 l 722 708 l 728 717 l 736 729 l 746 742 l 753 750 l 758 763 l 767 774 l 775 788 l 785 800 l 792 811 l 800 821 l 807 835 l 819 846 l 824 857 l 833 868 l 839 878 l 850 888 l 856 903 l 864 911 l 875 925 l 883 938 l 890 947 l 899 957 l 904 972 l 893 968 l 878 971 l 868 960 l 860 946 l 851 938 l 844 924 l 835 913 l 828 903 l 821 888 l 814 878 l 807 868 l 797 854 l 790 842 l 782 831 l 771 821 l 764 808 l 754 800 l 749 788 l 739 774 l 733 763 l 722 751 l 714 742 l 710 731 l 699 717 l 690 706 l 682 694 l 674 686 l 667 675 l 660 663 l 650 651 l 642 640 l 636 626 l 626 618 l 621 603 l 611 593 l 604 583 l 594 572 l 586 557 l 581 550 l 569 538 l 565 524 l 554 515 l 544 503 l 538 493 l 531 481 l 524 468 l 513 458 l 504 444 l 497 436 l 489 419 l 483 410 l 474 399 l 467 390 l 461 375 l 450 367 l 440 356 l 436 340 l 428 329 l 419 318 l 408 310 l 404 296 l 393 285 l 388 274 l 379 261 l 368 253 l 361 240 l 356 229 l 347 218 l 338 207 l 328 196 l 319 183 l 313 169 l 306 157 l 300 147 l 290 138 l 279 126 l 275 113 l 265 104 l 258 92 l 250 79 l 239 68 l 233 54 l 226 44 l 217 36 l 211 22 l 200 13 l 192 3 l 193 0 m 313 597 q 305 597 308 594 q 299 597 301 600 l 282 601 q 275 601 279 603 q 267 603 271 600 q 261 603 264 604 q 253 604 258 603 q 247 608 250 607 q 242 614 244 610 q 234 615 236 613 q 228 617 232 617 q 219 621 222 618 q 214 622 217 624 q 208 628 211 626 q 203 636 204 629 q 198 637 200 633 q 193 643 196 640 q 188 647 190 644 q 182 653 185 650 q 172 661 179 658 q 170 667 172 664 q 165 674 168 671 q 161 679 164 676 q 157 685 158 682 q 154 692 157 689 q 150 700 151 696 q 147 704 149 703 q 146 713 144 706 q 143 718 143 717 q 142 726 143 719 q 139 731 139 728 q 136 738 139 735 q 136 745 138 740 q 136 751 135 750 q 133 762 133 758 q 131 768 133 765 q 131 776 131 772 q 131 782 132 779 l 131 800 q 136 814 131 803 q 136 821 138 818 q 138 826 135 824 q 139 837 140 833 q 140 844 138 840 q 143 850 142 846 q 144 856 144 854 q 147 862 146 858 q 149 868 147 865 q 160 883 153 876 q 162 888 160 885 q 167 894 164 892 q 170 901 168 897 q 172 907 172 904 q 183 914 181 911 q 196 926 183 921 q 207 933 200 931 q 210 939 207 938 q 218 943 213 940 l 221 946 q 226 950 224 947 q 239 958 236 953 q 253 963 249 958 q 263 963 260 963 q 272 967 265 964 q 254 960 258 967 q 240 958 250 961 q 235 957 238 957 q 229 956 232 957 q 224 952 226 953 q 214 947 221 951 q 204 942 213 947 q 198 938 200 940 q 193 935 196 936 q 187 932 190 932 q 179 928 183 932 q 174 924 176 925 q 168 919 171 922 q 161 908 165 914 q 156 905 158 908 q 151 899 154 901 q 146 896 149 900 q 144 889 143 892 q 140 885 142 889 q 136 881 139 881 q 134 874 136 878 q 132 869 132 871 q 127 863 129 865 q 126 856 125 860 q 123 850 124 853 q 117 840 122 847 q 118 834 118 839 q 114 826 118 829 q 113 821 115 824 q 113 814 111 818 q 114 797 110 804 q 110 791 111 793 q 113 783 110 789 q 110 776 110 781 q 110 768 110 771 q 112 759 113 763 q 114 751 111 756 q 114 744 113 747 q 115 739 115 742 q 117 733 118 736 q 119 724 117 729 q 122 718 119 722 q 124 711 125 714 q 126 705 125 707 q 129 700 126 703 q 131 694 129 697 q 135 688 132 692 q 142 678 140 683 q 147 671 146 674 q 151 665 149 668 q 156 660 154 663 q 161 656 158 658 q 171 647 164 651 q 175 643 174 644 q 179 636 176 642 q 186 633 183 635 q 193 629 189 632 q 197 629 196 631 q 203 625 197 628 q 208 621 206 622 q 213 617 210 619 q 229 610 222 617 q 234 608 229 608 q 242 607 239 607 q 247 605 244 607 q 253 601 250 603 q 260 602 256 601 q 267 600 264 603 q 283 600 279 597 q 296 596 292 599 q 306 597 303 599 q 313 597 308 596 l 313 597 m 313 597 q 329 596 319 596 q 340 601 333 600 q 349 601 346 600 q 357 600 353 601 q 363 603 360 603 q 371 606 365 603 q 376 607 374 606 q 382 607 379 608 q 397 614 390 608 q 404 615 401 614 q 410 618 407 617 q 422 624 417 625 q 428 627 426 626 q 432 631 429 628 q 438 636 435 635 q 444 640 442 638 q 449 644 447 642 q 454 649 450 646 q 458 652 456 649 q 463 654 461 656 q 467 661 465 657 q 472 667 468 665 q 482 676 478 671 q 483 682 481 678 q 488 689 485 686 q 494 700 492 690 q 497 706 497 703 q 501 710 497 708 q 503 719 503 717 q 504 725 504 721 q 506 733 504 731 q 507 740 508 736 q 510 747 510 743 q 513 756 510 750 q 512 761 513 758 q 510 769 511 764 q 511 775 511 772 q 513 782 511 778 q 513 793 511 789 q 513 801 514 797 l 513 814 q 509 822 510 817 q 508 832 508 828 q 503 842 508 839 q 496 857 499 856 q 496 864 497 860 q 492 871 494 868 q 489 876 489 875 q 486 885 489 878 q 480 889 482 888 q 475 892 478 890 q 469 903 472 903 q 462 910 464 908 q 456 915 460 913 q 449 925 449 919 q 442 928 446 926 q 435 932 439 929 q 429 937 432 935 q 424 942 426 939 q 411 947 422 940 q 406 949 410 947 q 400 953 401 950 q 393 955 396 953 q 386 958 390 957 q 372 960 376 963 q 365 964 369 963 q 360 967 361 965 q 364 963 360 964 q 369 963 368 963 q 379 959 376 960 q 385 954 382 958 q 390 953 388 953 q 396 950 392 953 q 401 947 399 947 q 407 942 404 946 q 419 933 417 942 q 426 928 424 931 q 432 925 428 926 q 437 921 435 922 q 440 914 439 919 q 444 910 443 914 q 447 904 446 907 q 456 893 453 899 q 460 888 458 890 q 465 882 463 885 q 468 876 467 879 q 472 871 469 874 q 476 862 475 864 q 476 854 476 860 q 479 849 476 851 q 481 843 482 846 q 483 835 483 836 q 485 829 482 833 q 486 822 488 825 q 488 815 485 819 q 490 808 490 811 q 490 797 489 804 q 490 785 493 794 q 488 769 490 775 q 486 754 493 761 q 486 746 486 749 q 483 740 486 743 q 483 733 482 738 q 482 722 483 728 q 481 718 482 721 q 479 713 479 715 q 474 706 475 710 q 471 700 474 703 q 469 692 472 697 q 463 685 465 688 q 462 679 465 682 q 457 674 458 676 q 449 664 454 664 q 445 657 447 660 q 442 651 443 654 q 429 643 438 646 q 426 638 428 640 q 421 631 425 635 q 411 622 414 631 q 401 620 404 621 q 394 618 399 619 q 391 615 396 617 q 383 610 386 614 q 376 610 381 613 q 369 608 372 608 q 365 606 369 606 q 357 604 360 606 q 342 599 350 601 q 335 599 339 599 q 329 599 332 600 q 321 598 325 597 q 311 599 317 599 l 313 597 m 729 4 q 715 11 722 4 q 703 15 706 8 q 690 19 697 15 q 679 29 681 24 q 672 31 674 28 q 668 35 671 33 q 656 44 660 36 q 650 49 653 46 q 647 56 647 53 q 636 67 639 58 q 633 70 636 68 q 629 78 631 72 q 626 83 629 81 q 621 88 624 85 q 619 92 621 90 q 618 100 618 94 q 614 107 615 103 q 610 111 613 111 q 609 119 611 115 q 607 125 607 124 q 604 134 606 132 q 600 140 603 136 q 600 154 597 146 q 601 163 601 160 q 599 168 600 165 q 596 185 596 182 q 597 193 596 189 q 596 201 597 197 q 600 217 600 206 q 600 231 597 219 q 603 236 601 233 q 607 244 606 239 q 608 251 607 249 q 608 257 610 253 q 613 265 611 260 q 614 268 614 269 q 619 278 618 272 q 622 286 619 283 q 624 290 624 289 q 628 297 625 292 q 638 307 636 304 q 642 311 639 308 q 649 319 644 314 q 652 324 650 322 q 654 328 654 325 q 660 331 658 331 q 665 335 663 332 q 670 343 668 342 q 679 344 672 344 q 683 350 679 349 q 689 356 686 351 q 700 358 690 356 q 709 363 706 360 q 717 364 713 365 q 722 368 719 367 q 728 371 725 369 q 722 367 726 367 q 714 367 718 367 q 706 365 711 364 q 699 364 701 365 q 692 360 696 360 q 689 358 689 360 q 682 353 686 354 q 675 349 678 351 q 668 347 669 346 q 664 346 667 347 q 658 340 661 342 q 651 335 654 339 q 642 328 649 328 q 636 322 639 325 q 628 315 633 318 q 624 312 626 315 q 621 308 622 308 q 613 294 613 304 q 608 290 610 292 q 603 286 606 289 q 601 278 604 279 q 599 269 599 276 q 593 260 596 269 q 590 251 592 254 q 588 246 589 249 q 585 238 588 240 q 582 231 582 236 q 579 224 579 228 q 578 214 579 221 q 579 209 581 213 q 581 203 578 206 q 578 192 578 196 q 576 183 579 188 q 578 176 578 181 q 581 169 578 172 q 578 160 578 164 q 578 153 578 156 q 582 142 585 149 q 585 133 585 136 q 586 124 586 131 q 590 118 589 121 q 594 111 592 115 q 596 105 594 108 q 597 97 597 101 q 602 91 600 94 q 607 85 604 88 q 608 80 606 82 q 610 75 611 78 q 621 65 617 75 q 629 56 626 57 q 642 44 635 54 q 648 42 646 43 q 654 39 650 42 q 658 33 657 36 q 661 32 660 31 q 670 28 668 29 q 675 22 672 26 q 686 17 686 19 q 696 15 692 15 q 703 13 700 15 q 707 11 704 13 q 714 10 710 10 q 728 7 725 3 l 729 4 m 822 4 q 836 7 825 4 q 844 8 842 8 q 850 11 846 8 q 857 13 853 11 q 864 17 861 14 q 870 18 867 18 q 876 21 874 18 q 883 25 879 24 q 889 29 886 26 q 903 36 894 33 q 907 40 904 39 q 913 44 910 42 q 915 50 914 49 q 919 54 917 51 q 927 60 926 57 q 931 65 928 63 q 935 69 933 67 q 939 74 936 72 q 947 88 947 85 q 951 93 949 90 q 956 97 954 96 q 958 106 957 103 q 958 114 958 108 q 967 125 967 117 q 968 139 964 132 q 969 146 969 142 q 972 156 969 150 q 976 167 972 161 q 974 176 975 172 q 975 185 972 179 q 976 192 975 189 q 974 199 976 196 q 974 210 976 206 q 974 217 972 214 q 974 225 974 219 q 971 233 974 231 q 967 243 967 240 q 964 253 964 250 q 963 258 964 257 q 957 271 957 265 q 952 280 954 276 q 947 285 950 283 q 938 299 946 292 q 935 303 938 301 q 933 310 932 306 q 928 313 931 313 q 922 319 925 314 q 917 322 919 319 q 913 326 915 325 q 908 333 910 329 q 903 336 906 336 q 894 340 897 338 q 890 343 892 342 q 883 347 888 346 q 876 351 879 347 q 864 354 872 356 q 850 364 858 358 q 844 364 846 363 q 836 368 842 365 q 822 369 826 368 q 829 367 825 368 q 836 364 833 367 q 842 363 839 363 q 850 361 846 364 q 856 358 853 358 q 860 356 858 358 q 871 347 868 347 q 878 342 876 346 q 885 336 879 339 q 896 329 888 332 q 900 324 897 325 q 904 317 903 322 q 910 313 908 315 q 915 310 913 311 q 919 303 918 307 q 922 299 919 299 q 924 290 922 293 q 926 282 925 288 q 932 277 931 281 q 936 274 933 274 q 939 264 938 267 q 942 258 940 261 q 944 251 943 253 q 947 242 944 249 q 949 238 950 242 q 949 231 947 233 q 954 215 951 222 q 956 201 949 208 q 956 192 956 196 q 953 182 956 189 q 955 177 956 181 q 956 169 954 174 q 951 163 953 167 q 953 157 950 160 q 951 148 953 150 q 949 142 950 146 q 948 134 947 138 q 946 129 949 131 q 944 120 946 125 q 942 113 943 115 q 938 106 940 110 q 935 101 935 103 q 928 89 931 90 q 924 79 928 83 q 919 72 921 74 q 914 67 917 69 q 910 59 911 60 q 906 54 908 58 q 894 46 900 51 q 882 36 892 38 q 875 28 879 32 q 861 22 869 22 q 856 16 857 18 q 851 13 854 14 q 845 10 849 11 q 835 7 842 8 q 830 6 832 7 q 822 4 828 4 l 822 4 z "},"&":{"ha":714,"x_min":50,"x_max":660,"o":"m 392 851 l 383 868 l 374 883 q 369 900 375 893 q 364 904 367 901 q 358 908 361 907 q 356 917 360 913 q 351 924 353 921 q 346 926 349 924 q 340 932 343 929 q 333 933 336 931 q 328 936 331 935 q 320 940 322 939 q 315 943 318 942 q 300 951 308 947 q 288 950 294 953 q 279 953 283 953 q 272 956 275 953 l 254 954 l 233 950 q 224 943 226 950 q 215 936 218 938 q 210 932 213 935 q 206 926 208 929 q 201 918 203 922 l 190 904 l 178 892 q 177 885 179 888 q 175 881 175 883 q 170 874 171 878 q 169 865 169 869 q 164 856 165 863 q 163 848 164 853 q 163 839 163 843 q 161 833 161 836 q 160 825 161 831 q 160 817 161 821 q 160 807 158 813 q 160 801 161 804 q 161 794 158 797 q 160 788 158 792 q 163 778 163 783 q 163 772 164 776 q 164 763 163 767 q 164 758 164 760 q 168 750 164 756 q 168 743 165 747 q 172 735 171 739 q 175 724 169 733 q 177 716 175 719 q 181 710 179 713 q 183 696 181 700 q 185 690 185 693 q 190 685 186 688 q 193 671 189 675 q 201 657 197 660 q 203 651 203 654 q 208 644 204 647 q 213 628 207 639 q 217 624 215 625 q 218 618 218 624 q 221 613 221 615 q 224 607 221 611 q 231 597 229 601 q 236 590 232 593 l 244 569 l 264 564 q 278 565 268 568 q 285 574 281 572 q 293 581 290 575 q 304 593 300 586 q 310 599 307 596 q 311 606 313 601 q 318 610 317 607 q 322 615 319 613 q 330 619 328 618 q 331 626 332 621 q 335 630 333 629 q 338 633 336 631 q 340 636 339 635 q 347 644 343 642 q 353 651 350 647 q 357 663 353 651 q 361 669 360 665 q 364 675 363 672 q 369 686 367 678 l 383 711 q 388 720 386 713 q 389 732 389 728 l 392 744 l 390 758 l 393 775 l 392 792 l 393 804 l 390 822 l 393 838 l 392 851 l 392 851 m 246 507 q 232 503 242 504 q 228 494 232 496 q 222 490 224 493 q 216 487 219 489 q 210 482 213 485 q 202 477 206 481 q 196 472 199 474 q 192 467 193 469 q 185 461 190 464 q 180 455 183 457 q 176 450 176 453 q 169 444 174 447 q 163 438 165 440 q 159 432 160 436 q 156 425 158 428 q 147 418 150 421 q 142 414 144 415 q 140 408 140 410 q 138 400 139 406 q 129 390 129 403 q 124 387 126 389 q 124 385 122 385 q 117 378 118 382 q 113 372 115 375 q 111 365 113 369 q 108 357 110 360 q 106 351 108 354 q 101 344 104 347 q 99 338 99 342 q 96 333 99 335 q 94 326 94 328 q 93 317 94 324 q 89 311 92 314 q 85 303 86 308 q 79 290 82 292 q 79 280 78 283 q 79 271 81 276 q 76 265 76 268 q 74 257 76 261 q 72 253 72 254 q 69 244 72 251 q 71 239 69 242 q 71 231 72 236 q 71 227 69 229 q 69 222 72 225 q 67 216 67 219 q 68 210 68 213 q 72 200 69 203 q 72 194 74 197 q 74 181 74 190 q 76 172 75 175 q 81 161 78 168 q 86 147 79 158 q 88 140 88 144 q 92 133 89 136 q 96 119 94 121 q 104 103 100 107 q 107 96 107 100 q 111 92 107 92 q 115 85 113 86 q 117 81 117 83 q 120 76 117 78 q 124 69 124 74 q 132 65 126 67 q 140 60 138 64 q 156 49 147 53 q 162 42 160 46 q 168 39 164 38 q 175 33 172 36 q 182 29 178 29 l 201 19 l 219 14 q 225 13 222 13 q 231 14 228 14 q 238 13 233 11 q 244 17 243 15 q 253 17 249 17 q 264 15 257 18 q 283 21 272 15 q 297 24 293 21 q 304 26 300 25 q 314 28 308 28 q 319 30 317 28 q 325 35 322 32 q 328 36 328 33 q 333 42 329 39 q 338 43 336 40 q 342 49 340 46 q 348 53 344 50 q 350 58 351 56 q 358 65 356 61 q 363 71 360 68 q 367 76 365 74 q 375 82 369 79 q 382 97 375 88 q 385 102 383 100 q 389 107 386 104 q 394 115 392 113 q 396 121 397 118 q 406 135 404 133 q 409 145 407 142 q 413 151 411 149 q 418 167 413 153 q 419 181 425 169 q 423 186 422 182 q 425 193 424 190 q 424 199 424 197 q 425 204 425 200 q 425 209 425 206 q 424 215 425 213 q 424 222 425 218 q 419 226 424 225 q 421 233 422 229 q 418 243 419 236 q 413 249 415 246 q 408 253 411 253 q 406 272 404 265 q 399 278 401 274 q 397 283 396 283 q 392 294 394 290 q 388 301 389 297 q 381 310 385 307 q 375 315 378 313 q 372 324 374 319 q 367 331 371 329 q 365 340 367 338 q 360 344 363 342 q 350 360 354 357 q 346 367 346 364 q 343 371 346 369 q 339 378 340 376 q 335 383 338 381 q 329 394 335 386 q 325 400 326 396 q 324 407 324 404 q 318 414 319 410 q 314 421 317 418 q 308 428 311 425 q 303 433 306 431 q 300 442 303 438 q 297 451 297 446 q 290 456 293 454 q 288 463 288 458 q 283 469 286 465 q 281 475 281 472 q 275 481 278 478 q 268 488 272 485 q 265 492 265 490 q 260 499 264 494 q 250 507 251 507 l 246 507 m 454 218 l 461 206 l 468 189 l 474 178 l 482 164 l 488 153 l 497 142 q 499 135 497 136 q 503 131 500 133 q 510 118 501 122 q 512 111 511 114 q 514 106 513 108 q 524 90 515 96 q 528 82 526 85 q 531 76 531 79 q 540 61 536 63 q 544 53 540 57 q 547 46 549 49 q 553 43 553 46 q 557 39 554 40 l 572 32 l 586 32 q 589 32 586 35 q 593 32 590 32 q 614 25 599 26 q 633 21 619 24 q 640 21 635 24 q 647 15 644 18 q 653 13 650 14 q 660 10 657 13 l 643 8 l 625 11 l 606 7 l 590 7 l 576 8 l 556 7 l 542 8 q 535 15 538 8 q 533 26 533 19 q 529 31 531 29 q 525 40 528 33 q 522 43 524 42 l 518 51 q 514 58 517 54 q 508 69 511 63 q 506 78 507 72 q 504 86 506 83 q 499 99 496 92 q 492 106 494 104 q 486 114 490 108 q 484 119 485 115 q 482 125 483 122 q 474 136 481 132 q 463 157 469 147 l 458 164 l 447 165 l 439 157 l 429 146 q 417 124 417 126 q 414 116 417 119 q 413 108 411 113 q 403 97 406 104 q 399 92 401 94 q 397 88 397 89 q 394 81 396 83 q 390 76 393 79 q 376 65 382 68 q 367 50 379 57 q 365 47 368 47 q 361 40 361 46 q 355 37 358 39 q 350 33 351 35 q 342 28 346 31 q 336 21 339 26 q 326 14 326 15 q 319 12 321 14 q 313 10 317 10 q 308 7 313 8 q 301 7 304 6 q 286 1 294 4 q 268 -1 275 1 q 265 1 268 1 q 258 3 261 0 q 240 1 250 0 q 233 1 238 0 q 224 1 229 1 q 214 3 221 7 q 206 8 210 7 q 197 11 203 8 q 192 12 196 11 q 185 11 188 13 q 178 16 182 15 q 172 17 175 17 q 167 21 171 19 q 160 25 163 22 q 153 28 156 25 q 147 31 151 31 q 135 38 146 32 q 132 44 133 40 q 126 49 131 47 q 122 52 124 49 q 118 56 121 56 q 111 60 113 58 q 107 65 110 63 q 104 72 106 69 q 100 78 103 74 q 95 83 96 81 q 92 90 94 85 q 88 94 89 93 q 85 99 88 96 q 80 106 81 101 q 76 114 79 111 q 75 119 76 117 q 74 126 74 122 q 69 131 71 128 q 65 136 68 133 q 64 143 65 139 q 64 150 63 147 q 61 167 58 156 q 56 170 56 167 q 56 179 57 174 q 54 186 54 183 q 53 192 54 189 q 51 201 51 197 q 51 206 51 204 q 52 217 50 213 q 51 224 54 221 q 51 228 51 225 q 53 238 51 231 q 51 242 50 239 q 51 253 53 246 q 53 258 53 256 q 56 264 53 260 q 56 271 56 267 q 56 281 57 275 q 60 293 60 288 q 64 307 63 301 q 65 316 63 314 q 68 321 68 318 q 69 329 68 326 q 72 335 71 332 q 76 343 72 342 q 76 347 79 344 q 86 364 83 353 q 90 370 86 363 q 97 389 93 378 l 106 403 q 109 411 108 407 q 114 418 110 415 q 118 422 114 421 q 125 429 122 424 q 135 435 125 435 q 141 442 138 440 q 146 451 144 444 q 161 460 150 451 q 165 465 161 461 q 172 472 169 469 q 177 475 175 475 q 182 482 179 475 q 189 493 192 482 q 196 497 193 496 q 204 501 199 499 q 208 508 207 506 q 213 515 210 510 q 218 517 215 515 q 224 522 221 519 q 228 530 226 528 q 233 536 231 532 q 231 540 232 536 q 231 546 229 544 q 227 552 228 550 q 224 560 226 554 q 215 569 215 565 q 211 577 213 574 q 208 586 210 581 q 205 592 206 589 q 201 601 204 596 q 200 607 203 604 q 197 617 197 610 q 189 628 189 622 q 183 644 183 639 q 178 651 181 650 q 174 660 175 653 q 171 667 171 663 q 165 675 171 672 q 164 689 168 682 q 159 696 161 693 q 158 701 157 699 q 150 719 156 706 q 150 732 144 725 q 144 744 144 738 q 142 750 142 747 q 139 758 142 753 q 141 770 142 764 q 139 782 140 776 l 133 807 q 131 811 131 806 q 133 819 132 817 q 139 833 139 826 q 142 847 139 839 q 144 868 146 858 q 147 874 146 871 q 149 881 147 878 q 151 888 151 886 q 153 892 153 890 q 160 899 158 896 q 164 906 161 903 q 174 916 171 911 q 179 924 176 921 l 190 936 l 206 946 q 210 951 207 949 q 215 956 214 953 q 223 958 222 957 q 229 961 224 960 q 236 964 233 964 q 242 965 239 964 q 248 969 244 967 q 256 969 251 971 q 266 971 263 972 q 274 969 269 969 q 290 969 276 972 q 311 964 303 969 q 322 964 318 963 q 328 964 325 965 q 339 957 328 958 q 356 939 343 951 q 365 932 363 935 q 371 925 368 929 q 378 922 375 926 q 385 919 381 918 q 388 914 388 915 q 393 908 388 913 q 394 894 392 906 q 400 881 394 889 q 400 876 399 878 q 403 868 401 874 q 406 853 406 863 q 410 840 410 851 q 415 834 414 838 q 417 825 415 831 q 418 814 417 818 q 424 800 424 808 q 421 779 425 789 q 420 774 421 776 q 418 764 419 771 q 415 756 415 758 q 411 750 414 753 q 410 742 410 744 q 411 736 411 739 q 407 726 408 731 q 403 715 406 721 q 403 706 403 710 q 401 699 404 701 q 397 692 397 696 q 393 683 396 689 q 389 674 389 674 q 381 663 386 663 q 376 650 382 658 q 373 644 374 647 q 368 636 372 640 q 360 624 363 635 q 355 620 357 625 q 349 615 353 615 q 339 601 342 611 q 326 586 329 594 l 311 575 l 300 560 l 285 542 l 283 533 l 282 525 q 278 524 278 525 q 282 519 279 522 q 285 510 281 519 q 285 505 285 508 q 289 501 286 501 q 292 492 292 494 q 296 486 293 489 q 303 476 299 481 q 307 467 307 472 q 311 462 308 465 q 317 453 314 458 q 323 444 319 449 q 326 435 326 439 q 335 422 333 428 q 346 407 343 417 q 349 402 346 406 q 354 396 351 399 q 358 390 357 393 q 361 383 358 386 q 367 374 363 378 q 375 363 372 369 q 379 356 374 364 q 381 347 378 351 q 386 340 383 343 q 390 331 389 335 q 396 324 392 326 q 406 304 399 311 q 413 295 410 299 q 418 289 415 292 q 422 287 421 289 q 426 286 424 285 l 436 293 l 440 310 l 446 324 q 446 333 444 328 q 446 342 447 339 q 449 357 451 353 q 453 374 449 365 q 454 392 454 381 q 457 397 457 394 q 461 404 457 399 q 460 412 458 407 q 461 419 463 417 q 465 426 463 422 q 465 432 467 429 q 468 440 468 436 q 469 447 468 444 q 474 453 472 451 q 478 458 476 456 q 478 465 476 461 q 483 472 481 469 q 488 478 486 475 q 492 483 490 481 q 494 487 492 486 q 499 490 496 488 q 506 497 501 496 q 513 499 510 497 q 521 508 515 500 q 538 510 528 510 q 544 514 542 513 q 551 514 546 515 q 562 515 557 514 q 569 515 567 517 q 581 513 575 521 q 589 514 586 515 q 599 513 592 513 l 610 508 q 599 504 607 506 q 583 503 592 503 q 563 501 576 501 q 556 501 560 501 q 549 500 553 501 q 542 503 546 503 q 540 500 539 503 l 526 493 l 517 481 q 511 476 513 478 q 504 463 508 471 q 503 459 504 460 q 500 456 501 458 q 497 449 497 451 q 494 440 497 446 q 491 431 492 435 q 490 424 490 426 q 486 410 485 415 q 479 393 479 401 q 477 386 478 390 q 474 379 476 382 q 472 364 475 371 q 469 353 469 357 q 467 346 469 350 q 466 340 465 343 q 463 329 467 336 q 462 322 464 324 q 461 314 460 319 q 460 306 460 310 q 461 299 461 301 q 458 292 457 296 q 456 286 458 289 q 455 279 454 283 q 456 272 456 275 q 455 267 454 269 q 453 260 456 264 q 454 257 456 258 q 456 253 453 256 l 456 235 l 454 219 l 454 218 z "},"'":{"ha":233,"x_min":69,"x_max":165,"o":"m 128 972 q 135 963 131 965 q 139 953 139 960 q 144 946 140 950 q 144 935 147 942 q 147 929 147 933 q 149 919 146 925 q 144 912 144 914 q 144 907 143 910 q 136 890 139 901 q 128 886 131 888 q 122 879 125 885 q 117 876 119 876 q 114 872 115 875 q 108 866 111 867 q 97 863 104 865 q 94 860 97 860 q 86 856 92 860 q 76 851 83 853 q 72 854 75 853 q 71 854 69 856 l 69 842 l 81 840 q 94 844 89 844 q 103 844 100 843 q 113 844 107 846 q 122 853 122 850 q 136 861 131 853 q 143 871 140 865 l 154 882 q 157 888 157 885 q 157 893 157 892 q 161 902 161 899 q 165 913 161 906 q 164 920 164 917 q 163 926 164 924 q 164 936 163 933 q 165 943 165 939 q 161 951 163 946 q 156 960 160 957 q 153 963 157 961 q 147 968 150 965 q 139 970 144 969 q 125 974 133 971 l 128 972 z "},"(":{"ha":517,"x_min":150,"x_max":365,"o":"m 365 32 q 360 38 363 35 q 358 44 358 40 q 346 51 351 51 q 342 60 346 58 q 336 67 339 61 q 336 72 338 68 q 333 78 335 75 q 326 81 331 79 q 324 86 322 83 q 320 94 321 90 q 317 101 319 99 q 308 111 311 106 q 305 118 307 114 q 300 122 303 122 q 297 129 299 125 q 292 133 294 133 q 288 141 289 138 q 282 147 288 144 q 282 153 285 151 q 276 161 279 156 q 273 167 275 164 q 272 172 271 169 q 269 178 269 175 q 265 185 268 182 q 257 196 260 189 q 250 210 256 203 q 249 219 251 215 q 246 226 246 222 q 243 238 243 226 q 238 244 239 242 q 235 250 238 246 q 231 263 235 258 q 228 270 229 268 q 226 276 226 272 q 222 282 224 279 q 218 292 221 285 q 218 303 218 292 q 215 309 215 307 q 210 315 214 311 q 211 325 213 322 q 208 331 210 328 q 206 337 206 333 q 204 343 207 340 q 200 358 206 350 l 200 371 q 197 379 197 378 q 194 388 197 381 q 196 392 197 390 q 194 400 194 394 q 194 406 196 403 q 194 411 193 408 q 190 420 192 418 q 190 428 189 422 q 188 433 188 431 q 189 439 189 436 q 188 454 189 451 l 188 463 q 189 467 188 464 q 188 485 185 472 q 187 491 189 488 q 186 497 185 494 q 187 503 189 500 q 185 510 185 507 q 188 524 188 518 q 188 533 186 528 q 189 542 189 538 q 188 547 188 543 q 192 554 188 551 q 190 568 188 560 q 190 579 193 575 q 192 589 192 585 q 192 596 192 593 q 194 607 196 607 q 197 615 194 611 q 199 622 199 618 q 200 628 199 625 q 203 635 201 632 q 203 642 201 638 q 206 649 206 646 q 207 660 210 660 q 214 675 214 669 q 215 681 215 678 q 214 688 214 685 q 218 697 217 693 q 221 704 219 700 q 223 710 224 707 q 224 714 222 713 q 229 728 232 722 q 233 742 236 735 q 237 749 236 744 q 240 753 238 753 q 243 761 242 757 q 244 769 244 765 q 251 781 250 768 q 254 785 253 782 q 257 790 256 788 q 265 803 260 799 q 269 818 267 810 q 278 829 276 822 q 283 839 281 838 q 288 847 286 844 q 292 853 290 849 q 295 858 294 856 q 299 865 296 861 q 303 871 301 868 q 308 874 304 874 q 309 881 307 878 q 314 888 311 883 q 317 894 317 890 q 319 899 317 897 q 326 906 324 901 q 328 911 329 910 q 333 917 332 914 q 336 924 333 921 q 340 929 340 926 q 343 932 340 932 q 340 929 340 931 q 333 921 340 928 q 332 917 335 921 q 325 911 329 914 q 319 907 321 910 q 318 901 318 904 q 311 896 313 899 q 307 890 310 893 q 302 884 303 886 q 299 881 301 882 q 293 873 293 875 q 290 868 293 871 q 285 863 288 867 q 276 860 282 858 q 271 849 276 850 q 266 840 268 843 q 261 833 264 838 q 256 826 254 826 q 251 821 253 824 q 246 814 250 818 q 239 801 246 807 q 237 796 238 800 q 232 790 236 792 q 229 785 231 788 q 225 778 228 782 q 222 772 225 775 q 219 768 219 769 q 215 762 217 764 q 210 757 214 760 q 208 750 210 753 q 208 742 207 747 q 203 737 203 740 q 200 731 203 733 q 196 721 200 725 q 192 712 193 715 q 189 706 192 708 q 188 701 189 703 q 185 694 186 699 q 179 681 188 692 q 178 677 181 679 q 178 668 176 675 q 174 664 175 668 q 171 654 174 660 q 172 649 174 651 q 167 643 169 646 q 164 629 168 640 q 164 618 161 621 q 161 600 160 608 q 160 594 161 597 q 160 588 160 592 q 157 581 157 583 q 153 575 157 578 q 156 565 156 569 q 154 558 156 561 q 153 546 156 553 q 153 537 153 542 q 154 529 153 532 q 153 519 153 522 q 150 513 153 515 q 151 507 150 510 q 154 497 153 504 q 153 483 150 488 q 151 477 150 481 q 151 471 153 474 q 154 456 151 460 q 153 440 156 447 q 157 424 153 431 q 160 413 154 414 q 160 404 158 406 q 160 396 161 403 q 162 390 163 393 q 163 381 161 386 q 164 376 164 378 q 167 371 164 374 q 168 363 168 364 q 171 357 168 361 q 172 343 169 349 q 175 334 175 338 q 176 328 175 331 q 177 319 176 322 q 179 314 178 317 q 183 299 188 308 q 188 293 188 296 q 189 285 188 290 q 192 280 193 285 q 193 272 192 275 q 199 263 199 269 q 206 246 206 253 q 210 241 208 244 q 215 236 213 238 q 216 229 213 233 q 217 221 219 225 q 221 217 219 221 q 228 208 222 214 q 228 204 229 207 q 231 196 228 201 q 235 192 233 193 q 240 185 238 190 q 242 179 240 181 q 244 175 244 178 q 250 167 249 171 q 253 160 251 163 q 264 147 260 157 q 267 144 267 147 q 271 138 268 140 q 278 126 275 136 q 283 119 282 122 q 288 117 285 117 q 293 110 292 113 q 297 101 294 108 q 301 98 297 100 q 306 93 304 96 q 314 83 314 92 l 325 72 q 330 67 328 69 q 335 63 332 65 q 339 56 338 60 q 343 53 340 53 q 349 47 347 50 q 354 40 351 43 q 360 36 357 38 q 364 33 364 35 l 365 32 z "},")":{"ha":517,"x_min":147,"x_max":369,"o":"m 149 24 q 154 28 153 25 q 160 33 156 31 q 165 39 163 38 q 168 43 168 40 q 174 47 172 44 q 181 51 176 50 q 189 61 186 60 q 197 72 196 68 q 204 78 201 75 q 211 81 207 81 q 215 87 214 85 q 217 92 217 89 q 223 97 222 94 q 226 103 224 100 q 232 110 231 108 q 236 115 233 111 q 246 128 240 118 q 254 139 246 131 q 261 149 254 142 q 266 158 264 156 q 269 163 268 160 q 276 172 269 172 q 281 180 279 178 q 282 183 282 182 q 288 192 286 188 q 292 197 289 196 q 296 208 296 204 q 300 217 297 215 q 306 222 303 219 q 308 238 306 229 q 313 243 311 239 q 315 249 315 247 l 322 263 q 324 268 325 265 q 325 274 324 271 q 328 281 328 278 q 333 288 329 285 q 332 296 331 293 q 335 303 333 299 q 338 314 338 311 q 343 329 343 318 q 347 337 344 333 q 350 343 349 340 q 349 358 349 349 q 352 363 350 360 q 357 371 354 365 q 356 378 356 372 q 358 386 356 383 q 358 392 357 389 q 358 400 358 394 q 361 414 361 406 q 362 420 361 417 q 363 425 363 424 q 364 435 364 431 q 367 443 364 439 q 366 448 368 446 q 365 457 364 450 q 367 462 368 460 q 365 467 365 464 q 369 474 368 471 q 369 481 369 478 q 368 490 367 488 q 369 497 369 492 q 369 506 368 503 q 367 511 369 510 q 367 521 365 517 q 367 528 369 525 q 367 535 365 532 q 368 544 368 538 q 366 551 368 549 q 363 560 364 553 q 364 564 365 560 q 364 571 363 568 q 363 578 364 575 q 364 586 363 581 q 360 603 360 593 q 358 607 357 603 q 360 614 360 611 q 356 621 357 617 q 353 628 356 625 q 353 634 356 631 q 354 639 351 638 q 349 647 351 644 q 347 653 347 649 q 343 668 349 658 q 342 674 343 669 q 340 681 340 678 q 338 687 340 683 q 336 693 336 690 q 332 706 336 704 q 325 719 328 713 q 322 728 325 725 q 319 738 319 735 q 317 744 319 742 l 308 753 q 306 761 307 757 q 301 767 306 765 q 299 772 300 768 q 299 776 297 776 q 294 783 296 779 q 288 788 293 788 q 288 794 290 792 q 283 801 285 797 q 280 808 283 804 q 276 815 276 813 q 272 819 275 815 q 265 825 269 822 q 264 829 264 828 q 258 835 264 831 q 258 840 258 836 q 254 844 257 844 q 248 853 251 851 q 244 858 244 856 q 240 863 243 861 q 233 869 238 864 q 230 874 232 871 q 225 881 228 878 q 218 889 222 885 q 210 894 213 892 q 206 901 208 897 q 201 906 204 904 q 196 910 199 907 q 191 915 193 913 q 189 924 189 918 q 183 927 186 926 q 179 933 181 928 q 172 938 175 933 q 168 946 168 942 q 176 931 171 935 q 183 919 176 926 q 188 913 188 917 q 194 910 189 910 q 198 902 196 906 q 200 896 200 899 q 205 890 204 894 q 207 883 206 886 q 218 872 214 883 q 220 866 218 868 q 226 860 222 864 q 229 855 228 857 q 233 850 231 853 q 236 844 236 847 q 238 839 236 842 q 242 831 240 836 q 247 824 243 826 q 251 811 247 815 q 256 806 256 807 q 261 799 256 804 q 265 792 264 794 q 267 788 265 790 q 270 780 269 783 q 274 774 271 776 q 278 760 271 767 q 281 753 281 757 q 281 746 281 749 q 286 740 285 743 q 290 733 288 738 q 292 727 292 731 q 294 722 292 724 q 296 713 296 717 q 297 706 296 708 q 303 692 303 704 q 306 679 303 690 q 308 673 307 676 q 311 665 308 669 q 312 659 310 664 q 315 651 314 654 q 313 647 313 650 q 317 640 314 643 q 319 631 319 635 q 321 625 318 628 q 322 618 319 621 q 321 611 324 615 q 324 597 328 604 q 324 590 324 594 q 325 582 325 585 q 328 575 328 579 q 332 568 328 571 q 330 561 332 565 q 329 554 328 557 q 331 547 332 550 q 331 539 331 544 q 332 533 331 538 q 332 528 333 529 q 332 519 331 522 q 335 511 333 515 q 334 505 333 507 q 332 499 335 503 q 333 481 336 492 q 332 476 331 481 q 333 469 333 472 q 333 462 333 465 q 332 456 332 458 q 333 443 329 447 q 331 434 329 438 q 332 429 332 431 q 329 419 329 422 q 329 415 329 417 q 327 405 326 408 q 328 397 328 401 q 325 390 325 393 q 322 385 325 388 q 321 369 324 378 q 320 364 322 368 q 321 357 318 360 q 315 342 315 353 q 315 336 317 339 q 311 329 313 333 q 310 315 313 325 q 307 309 307 313 q 304 300 307 306 q 299 288 304 301 q 299 283 299 286 q 294 275 299 281 q 294 269 296 272 q 292 261 292 267 q 289 256 290 258 q 289 250 288 254 q 283 242 286 247 q 283 235 281 238 q 278 231 279 232 q 274 224 278 229 q 272 210 274 217 q 264 200 265 204 q 262 192 265 197 q 258 185 258 188 q 253 174 256 183 q 249 166 250 169 q 243 161 247 163 q 242 155 244 156 q 238 147 239 154 q 235 141 238 144 q 233 135 233 138 q 228 131 231 133 q 224 122 225 128 q 219 118 221 122 q 215 111 218 114 q 211 106 213 108 q 207 100 210 104 q 203 94 204 97 q 200 88 203 90 q 196 83 199 85 q 194 79 193 82 q 188 74 189 76 q 185 68 188 71 q 179 61 182 65 q 174 54 176 57 q 172 49 172 51 q 167 47 171 47 q 163 40 164 43 q 157 33 161 38 l 154 31 q 151 28 151 29 q 147 26 150 28 l 149 24 z "},"*":{"ha":521,"x_min":67,"x_max":453,"o":"m 78 810 l 89 817 l 101 825 l 117 831 l 131 840 l 140 846 l 151 853 l 164 858 l 178 867 l 189 874 l 201 881 l 215 886 l 228 894 l 239 901 l 256 911 l 257 897 l 254 881 l 253 869 l 257 851 l 253 838 l 254 824 l 251 808 l 253 797 l 253 779 l 253 768 l 256 753 l 253 738 l 253 725 l 256 710 l 269 711 l 268 724 l 267 738 l 269 754 l 267 767 l 271 781 l 271 796 l 272 810 l 268 825 l 268 839 l 269 853 l 271 865 l 271 882 l 267 894 l 269 910 l 282 904 l 296 896 l 307 888 l 318 882 l 331 875 l 343 867 l 358 857 l 371 850 l 383 843 l 394 838 l 407 829 l 418 824 l 431 819 l 444 808 l 453 825 l 438 835 l 429 839 l 415 847 l 403 851 l 388 860 l 379 869 l 364 872 l 354 881 l 338 888 l 326 894 l 317 903 l 301 907 l 289 918 l 276 925 l 290 933 l 303 940 l 317 944 l 325 951 l 338 960 l 353 965 l 364 972 l 376 981 l 389 989 l 400 997 l 415 1003 l 426 1010 l 440 1015 l 453 1026 l 447 1040 l 432 1032 l 419 1026 l 406 1019 l 394 1010 l 382 1003 l 371 1000 l 357 990 l 344 982 l 329 974 l 318 971 l 307 961 l 296 953 l 283 947 l 271 939 l 269 956 l 271 971 l 269 985 l 268 997 l 268 1011 l 268 1025 l 267 1040 l 271 1057 l 269 1072 l 268 1085 l 272 1097 l 267 1113 l 268 1126 l 272 1142 l 254 1140 l 254 1129 l 251 1111 l 254 1101 l 254 1086 l 254 1071 l 256 1054 l 254 1039 l 254 1026 l 253 1010 l 254 999 l 256 986 l 254 971 l 256 953 l 254 942 l 240 947 l 226 956 l 217 961 l 203 968 l 192 975 l 181 982 l 164 990 l 156 994 l 139 1006 l 126 1014 l 115 1021 l 101 1024 l 90 1031 l 79 1040 l 68 1025 l 82 1018 l 93 1010 l 108 1003 l 119 997 l 129 989 l 144 983 l 156 972 l 167 967 l 179 963 l 196 953 l 204 944 l 218 940 l 229 931 l 243 924 l 229 919 l 219 908 l 206 904 l 192 893 l 181 888 l 168 883 l 157 872 l 146 868 l 133 858 l 119 851 l 108 849 l 94 840 l 81 832 l 67 825 l 76 810 l 78 810 z "},"+":{"ha":751,"x_min":69,"x_max":682,"o":"m 385 426 l 386 440 l 383 456 l 382 468 l 386 483 l 385 497 l 385 510 l 383 526 l 388 540 l 386 553 l 385 568 l 386 582 l 383 594 l 386 610 l 386 624 l 386 638 l 385 654 l 383 668 l 382 682 l 385 693 l 385 710 l 383 725 l 369 726 l 369 708 l 368 693 l 367 679 l 368 665 l 368 651 l 369 636 l 367 626 l 368 611 l 368 596 l 367 582 l 367 565 l 367 551 l 369 538 l 371 526 l 368 510 l 367 497 l 368 485 l 365 468 l 368 457 l 365 439 l 368 426 l 354 429 l 340 428 l 325 426 l 313 425 l 299 426 l 283 428 l 268 426 l 254 426 l 240 426 l 226 429 l 210 428 l 196 428 l 182 428 l 168 428 l 153 428 l 142 428 l 128 429 l 113 426 l 97 425 l 83 425 l 71 425 l 69 410 l 86 410 l 97 408 l 111 408 l 128 410 l 138 411 l 157 408 l 171 407 l 183 411 l 200 410 l 211 411 l 228 410 l 242 410 l 253 413 l 271 408 l 282 407 l 297 410 l 311 408 l 326 410 l 338 407 l 354 411 l 368 411 l 365 397 l 367 379 l 365 368 l 369 351 l 367 340 l 371 324 l 367 311 l 368 297 l 367 283 l 367 265 l 371 253 l 367 240 l 367 224 l 369 211 l 367 197 l 368 183 l 369 168 l 367 156 l 367 140 l 371 126 l 367 113 l 386 114 l 383 126 l 386 138 l 383 151 l 385 168 l 383 182 l 386 196 l 383 213 l 386 226 l 383 240 l 385 253 l 386 268 l 385 282 l 388 297 l 386 308 l 383 325 l 383 338 l 385 356 l 386 368 l 386 382 l 383 394 l 383 410 l 400 410 l 413 410 l 428 411 l 440 408 l 454 410 l 468 408 l 485 410 l 500 410 l 513 410 l 525 407 l 539 411 l 556 408 l 571 413 l 585 410 l 597 408 l 613 413 l 624 411 l 642 411 l 656 410 l 671 411 l 682 411 l 681 424 l 667 425 l 651 426 l 639 428 l 625 428 l 613 428 l 599 426 l 582 429 l 568 425 l 554 428 l 539 426 l 528 425 l 510 428 l 500 428 l 483 428 l 468 424 l 453 425 l 443 425 l 426 428 l 411 428 l 399 425 l 386 429 l 385 426 z "},",":{"ha":122,"x_min":13,"x_max":111,"o":"m 72 67 q 86 50 82 53 q 92 29 86 43 l 92 17 q 90 7 92 13 q 89 0 88 1 q 83 -8 86 -4 q 79 -15 81 -11 q 67 -25 76 -21 q 63 -30 67 -28 q 56 -37 60 -32 q 42 -44 53 -42 q 38 -46 42 -46 q 35 -49 33 -46 q 26 -49 29 -47 q 19 -49 22 -51 q 15 -54 15 -54 l 13 -62 l 24 -62 q 33 -63 29 -65 q 42 -64 38 -61 q 47 -62 44 -64 q 57 -61 50 -61 q 64 -56 60 -58 q 71 -53 68 -53 q 75 -49 71 -50 q 81 -44 79 -47 q 85 -41 83 -44 q 92 -35 86 -37 q 94 -31 94 -35 q 97 -25 94 -28 q 101 -18 100 -22 q 103 -11 101 -14 q 104 -4 104 -8 q 106 4 104 0 q 108 21 108 11 q 109 31 111 26 q 107 39 107 35 q 105 46 106 43 q 101 54 104 49 q 98 59 100 56 q 93 63 96 63 q 83 66 88 64 q 72 68 79 68 l 72 67 z "},"-":{"ha":644,"x_min":67,"x_max":576,"o":"m 575 426 l 563 426 l 544 424 l 532 425 l 521 428 l 507 424 l 489 429 l 475 428 l 463 425 l 449 425 l 433 424 l 419 429 l 408 426 l 394 426 l 381 426 l 364 429 l 351 425 l 333 425 l 325 428 l 310 426 l 294 429 l 282 426 l 267 425 l 253 426 l 236 428 l 222 425 l 210 428 l 196 425 l 183 428 l 169 428 l 151 426 l 140 428 l 125 425 l 111 428 l 97 429 l 86 428 l 71 428 l 67 408 l 83 410 l 96 411 l 113 413 l 124 413 l 139 411 l 154 413 l 171 411 l 182 410 l 196 411 l 211 410 l 224 408 l 238 407 l 253 408 l 264 408 l 279 408 l 296 408 l 310 408 l 319 413 l 339 410 l 350 410 l 364 411 l 378 407 l 394 411 l 407 411 l 422 408 l 435 408 l 450 410 l 464 407 l 476 410 l 490 408 l 507 408 l 518 407 l 533 410 l 546 410 l 564 408 l 576 411 l 575 426 l 575 426 z "},".":{"ha":456,"x_min":175,"x_max":279,"o":"m 178 26 q 178 19 179 22 q 182 15 178 17 q 186 4 179 7 q 190 0 189 1 q 199 -4 192 -1 q 203 -10 201 -7 q 213 -11 206 -12 q 229 -12 221 -18 q 244 -10 236 -15 q 253 -10 250 -12 q 260 -6 257 -8 q 265 -3 263 -6 q 271 3 268 0 q 275 15 275 7 q 278 19 278 15 q 276 28 279 24 q 278 40 275 31 q 272 47 274 43 q 268 54 271 50 q 260 61 265 61 q 246 67 256 67 q 236 69 240 69 q 225 68 232 69 q 210 65 215 71 q 202 64 207 64 q 194 60 197 64 q 190 57 193 57 q 188 54 188 57 q 183 46 186 47 q 179 43 179 44 q 179 25 175 32 l 178 26 z "},"/":{"ha":599,"x_min":4,"x_max":597,"o":"m 483 969 l 482 958 l 472 943 q 468 938 469 943 q 464 929 467 932 q 460 920 463 924 q 457 914 458 917 l 457 908 q 455 905 454 908 q 454 901 456 901 q 453 893 450 900 q 450 886 451 893 q 447 882 446 883 q 444 876 444 879 q 444 871 444 874 q 442 867 442 868 q 440 863 442 867 q 438 853 438 854 q 433 848 436 850 q 433 843 431 846 q 431 836 428 842 q 425 821 425 831 q 423 817 422 819 q 422 813 424 815 q 418 807 418 810 q 415 801 418 804 q 413 792 415 800 q 410 779 410 778 q 406 772 407 775 q 401 767 406 769 q 400 753 400 761 q 398 747 400 750 q 394 740 396 744 q 391 736 392 739 q 390 731 390 733 q 386 722 388 725 q 382 714 385 718 q 376 700 383 713 q 376 695 375 697 q 372 689 376 693 q 370 682 372 686 q 368 674 368 678 q 365 665 365 668 q 363 660 365 663 q 357 644 360 651 q 356 640 356 643 q 353 631 356 636 q 346 615 351 622 q 342 608 344 611 q 340 601 340 604 q 339 593 339 599 q 336 585 339 588 q 332 577 335 582 q 326 569 329 572 q 324 563 325 568 q 321 556 324 558 q 320 547 321 551 q 317 542 319 543 q 310 525 317 532 q 308 518 308 521 q 307 508 307 515 q 299 493 304 507 q 297 487 299 490 q 293 476 296 483 q 285 463 293 474 q 282 447 286 457 q 278 440 279 442 q 274 431 276 438 q 272 424 272 429 q 271 417 272 419 q 268 408 268 411 q 265 401 268 406 q 260 392 263 396 q 256 382 257 388 q 253 376 253 379 q 250 371 253 374 q 247 361 247 367 q 243 353 247 356 q 242 345 243 347 q 239 339 242 343 q 235 331 238 335 q 235 322 233 328 q 229 306 229 315 q 224 299 226 304 q 219 292 222 294 q 219 285 221 289 q 217 276 218 281 q 211 268 214 271 q 211 263 208 265 q 207 253 207 256 q 203 249 207 251 q 199 240 201 244 q 199 232 197 235 q 194 224 196 229 q 192 217 192 219 q 190 213 193 215 q 185 206 188 210 q 185 199 188 203 q 182 192 182 194 q 178 185 179 188 q 175 175 176 182 q 173 168 175 171 q 171 164 171 165 q 167 150 167 156 q 163 144 164 147 q 160 135 163 140 q 158 130 158 133 q 156 124 158 126 q 153 111 153 117 q 149 105 150 108 q 146 101 149 101 q 142 93 143 94 q 142 89 142 92 q 139 82 142 85 q 138 75 136 79 q 129 65 135 69 q 128 60 129 63 q 129 54 128 57 q 126 42 125 47 q 115 39 121 43 q 111 38 114 39 q 101 33 108 38 q 93 31 99 33 q 85 28 88 29 q 72 26 78 25 q 60 24 65 26 q 39 18 49 25 q 28 17 32 17 q 19 15 25 18 q 13 13 17 13 q 10 11 10 14 q 6 8 7 10 q 4 8 6 7 q 8 6 8 7 q 10 4 8 6 q 13 6 13 7 q 15 4 13 4 q 20 4 18 6 q 26 3 22 3 q 32 3 28 3 q 39 1 36 3 q 44 3 40 3 q 51 4 49 4 q 61 5 57 6 q 72 4 65 4 q 82 3 76 4 q 92 1 88 1 q 103 3 99 3 q 114 0 107 3 q 125 3 118 3 q 138 3 132 3 l 147 17 q 152 28 147 24 q 158 38 157 32 l 163 42 q 160 47 163 47 q 164 50 160 50 q 164 54 164 50 l 167 57 q 165 61 167 61 q 167 68 169 65 q 170 72 168 71 q 174 76 172 74 q 176 82 175 76 q 176 85 176 83 q 175 93 175 88 q 179 96 178 96 q 182 99 181 96 q 185 108 179 103 q 188 114 188 111 q 189 119 188 117 q 190 125 189 124 q 193 128 192 126 q 195 137 194 133 q 194 144 196 140 q 199 153 199 147 q 204 160 203 156 q 204 167 206 165 q 208 175 206 171 q 213 182 210 179 q 213 189 214 185 q 214 196 213 193 q 218 201 217 199 q 221 206 219 204 q 229 222 224 217 q 231 230 232 226 q 235 236 229 233 q 237 245 236 239 q 240 254 238 251 q 240 261 239 258 q 243 271 242 264 q 249 278 247 275 q 251 283 250 281 q 255 294 253 290 q 256 301 257 299 q 259 311 258 307 q 264 319 260 315 q 267 326 267 322 q 268 333 267 329 q 279 353 269 347 q 281 359 278 356 q 282 368 283 363 q 285 378 283 375 q 290 385 288 382 q 294 394 293 392 q 299 403 296 397 q 299 415 300 410 q 301 422 299 419 q 308 431 306 425 q 313 442 310 438 q 313 449 311 446 q 317 460 314 453 q 319 468 317 463 q 325 476 322 474 q 326 485 324 482 q 331 494 329 489 q 333 503 331 500 q 336 510 336 506 q 343 531 339 519 q 348 538 344 535 q 350 546 351 540 q 353 554 353 550 q 356 565 354 558 q 364 583 361 569 q 367 590 365 588 q 369 599 369 593 q 375 608 372 604 q 378 614 378 613 q 382 626 381 621 q 386 635 383 631 q 387 642 386 638 q 393 650 388 646 q 394 656 392 653 q 397 667 397 660 q 403 683 401 669 q 411 699 403 689 q 410 705 410 700 q 413 713 411 710 q 419 720 418 717 q 422 728 419 724 q 424 734 421 731 q 426 740 426 738 q 429 747 429 743 q 431 754 429 751 q 436 771 436 765 q 439 776 439 774 q 442 782 439 779 q 446 793 446 793 q 449 799 449 796 q 451 804 450 801 q 456 813 454 807 q 458 821 457 818 q 457 824 456 821 q 463 831 458 828 q 463 835 463 833 q 463 840 464 838 q 467 842 465 840 q 468 847 469 844 q 471 854 468 851 q 472 856 471 854 q 474 862 474 858 q 474 867 474 865 q 478 875 481 867 q 478 876 476 875 q 481 881 481 876 q 483 888 482 883 q 485 896 485 893 q 486 911 488 910 q 490 918 489 917 q 493 924 490 919 q 495 930 494 929 q 496 936 496 931 q 501 940 499 938 q 506 943 503 943 l 514 947 q 523 949 519 949 q 533 950 526 950 q 541 951 538 950 q 551 954 544 951 l 563 954 q 570 957 569 958 q 576 957 571 956 l 597 963 l 581 969 q 577 970 578 969 q 574 968 576 971 q 571 969 572 969 q 563 972 565 972 q 550 972 557 968 q 533 972 542 967 q 519 970 525 969 q 508 971 514 971 q 497 971 503 969 q 485 972 492 972 l 483 969 z "},":":{"ha":456,"x_min":175,"x_max":279,"o":"m 178 276 q 178 269 178 271 q 181 264 178 267 q 183 258 182 260 q 189 253 183 256 q 190 247 188 250 q 199 244 192 243 q 203 240 199 242 q 211 239 207 238 q 219 235 214 238 q 228 235 224 233 q 238 235 233 233 q 247 236 243 238 q 254 238 250 236 q 258 243 258 240 q 265 246 261 244 q 268 250 269 247 q 273 256 272 253 q 274 261 274 260 q 276 276 278 272 q 278 283 278 281 q 275 292 278 285 q 268 303 271 296 q 266 305 268 304 q 263 308 264 306 q 244 318 253 315 q 228 318 238 317 q 219 319 225 319 q 210 318 214 318 q 199 311 206 314 q 190 306 192 308 q 185 301 188 304 q 181 294 182 299 q 181 288 179 290 q 179 275 176 285 l 178 276 m 178 26 q 179 19 179 24 q 181 11 179 15 q 182 6 181 10 q 188 1 183 3 q 191 -3 190 -1 q 199 -6 192 -6 q 203 -8 199 -8 q 211 -10 208 -8 q 219 -12 215 -11 q 229 -15 222 -12 q 246 -12 239 -11 q 257 -6 256 -11 q 265 -3 263 -6 q 271 3 267 0 q 274 13 274 11 q 276 20 275 18 q 279 29 276 22 q 278 35 278 32 q 276 40 279 39 q 271 51 271 46 q 264 58 267 57 q 258 64 261 58 q 253 65 256 65 q 246 65 250 64 q 238 69 242 67 q 228 71 235 72 q 219 68 225 69 q 210 68 214 67 q 203 65 206 67 q 199 61 200 63 q 191 57 193 58 q 186 54 189 56 q 183 48 183 51 q 182 39 183 44 q 177 33 178 36 q 175 26 176 29 l 178 26 z "},";":{"ha":372,"x_min":132,"x_max":244,"o":"m 189 67 q 197 58 194 61 q 200 46 200 54 q 207 29 207 39 q 207 23 206 26 q 206 13 208 19 q 206 6 208 8 q 203 1 204 4 q 199 -5 203 -1 q 193 -14 196 -8 q 190 -18 192 -15 q 183 -24 189 -21 q 180 -29 183 -28 q 175 -35 176 -31 q 168 -37 172 -36 q 161 -42 164 -39 q 155 -46 158 -44 q 150 -50 151 -47 q 139 -51 140 -50 q 133 -51 136 -54 l 132 -62 l 142 -65 q 158 -62 149 -60 q 166 -62 163 -64 q 174 -58 169 -60 q 185 -53 178 -58 q 190 -49 188 -50 q 194 -46 193 -49 q 201 -42 199 -44 q 206 -36 203 -39 q 211 -29 210 -32 q 215 -24 213 -26 q 218 -17 215 -21 q 219 -8 221 -14 q 225 6 225 -4 q 225 12 224 8 q 224 22 226 15 q 222 38 229 31 q 217 51 222 43 q 208 63 214 63 q 201 65 206 63 q 190 65 196 68 l 189 67 m 143 276 q 144 270 143 274 q 146 265 146 267 q 147 256 144 260 q 150 250 150 253 q 161 242 156 249 q 175 238 169 242 q 184 237 178 238 q 196 236 190 236 q 203 235 199 233 q 211 235 208 238 q 219 238 215 236 q 226 244 224 239 q 233 254 232 247 q 240 257 238 253 q 243 264 242 261 l 243 276 q 243 284 244 282 q 239 292 242 286 q 238 296 239 293 q 233 301 238 299 q 230 306 231 304 q 224 310 229 308 q 208 318 221 314 q 201 317 206 318 q 193 317 197 315 q 174 317 181 319 q 169 314 171 314 q 160 310 167 314 q 156 307 157 310 q 150 300 156 304 q 149 296 151 297 q 143 288 146 294 q 144 282 146 285 q 144 276 142 279 l 143 276 z "},"<":{"ha":749,"x_min":89,"x_max":657,"o":"m 90 421 q 97 421 93 422 q 101 417 100 419 q 107 419 104 419 q 111 418 110 418 q 117 415 114 417 q 125 413 121 413 q 131 410 129 410 q 135 407 132 410 q 143 406 140 408 q 149 404 146 404 q 156 403 151 404 q 163 403 160 401 q 174 396 171 397 q 186 390 181 394 q 197 387 193 388 q 203 383 200 386 q 208 381 206 382 q 217 381 211 381 q 232 374 218 379 q 243 364 239 371 q 251 360 250 361 q 257 358 253 360 q 266 356 261 357 q 274 351 271 356 q 288 344 279 351 q 294 341 290 342 q 301 336 297 340 q 310 335 306 338 q 317 331 314 332 q 326 326 322 326 q 329 322 329 325 q 338 318 335 319 q 346 313 340 317 q 353 313 350 315 q 360 308 357 311 q 372 299 367 301 q 386 292 379 299 q 394 288 390 289 q 401 283 397 288 q 414 275 413 283 q 421 273 419 274 q 428 269 422 272 q 433 265 429 267 q 438 260 438 263 q 451 256 449 258 q 458 249 454 251 q 463 244 463 247 q 471 243 467 246 q 478 239 475 240 q 482 235 481 236 q 488 235 483 233 q 492 230 492 233 q 497 225 493 226 q 506 221 500 225 q 518 211 510 213 q 525 207 519 213 q 531 204 528 207 q 536 203 533 201 q 540 199 538 200 q 544 194 542 199 q 547 192 544 192 q 556 189 549 192 q 567 179 558 182 q 579 169 568 172 q 584 166 582 169 q 588 161 586 163 q 594 156 592 157 q 603 151 597 156 q 607 147 603 150 q 614 144 611 144 q 619 138 615 140 q 626 132 624 136 q 629 130 628 132 q 633 125 631 128 q 640 118 636 121 q 647 113 644 115 q 651 106 649 108 q 656 99 653 103 q 651 106 654 103 q 647 113 649 108 q 640 121 647 113 q 635 126 638 124 q 631 132 633 128 q 627 135 629 135 q 624 140 625 136 q 621 144 622 143 q 617 151 619 144 q 609 153 611 151 q 604 156 607 154 q 599 164 601 163 q 596 169 597 165 q 590 172 593 168 q 585 179 588 175 q 582 183 585 182 q 575 188 579 183 q 569 192 571 190 q 564 197 567 193 q 559 201 561 199 q 550 207 557 203 q 545 210 547 206 q 543 217 543 214 q 529 221 540 217 q 518 233 524 231 q 512 236 514 235 q 503 239 510 238 q 501 246 503 244 q 496 250 499 247 q 488 254 490 251 q 482 258 485 257 q 467 265 474 265 q 462 272 464 269 q 453 275 460 275 q 448 278 451 276 q 442 283 444 281 q 431 290 432 290 q 421 297 424 293 q 415 299 418 300 q 408 305 411 304 q 401 310 404 306 q 395 311 397 310 q 390 315 393 313 q 383 320 388 318 q 374 325 378 322 q 369 328 371 325 q 361 333 367 331 q 355 335 357 332 q 347 339 353 338 q 338 343 339 347 q 331 348 335 346 q 322 351 326 350 q 317 358 318 356 q 310 357 315 360 q 303 363 306 360 q 299 364 301 367 q 290 370 293 368 q 285 375 288 372 q 277 376 281 374 q 274 379 274 378 q 264 381 267 382 q 258 383 261 381 q 252 387 256 386 q 249 390 249 388 q 242 394 244 393 q 238 396 240 394 q 231 397 235 397 q 222 399 228 397 q 218 403 222 403 q 214 408 214 404 q 206 409 208 408 q 200 411 203 410 q 196 414 199 414 q 192 417 193 414 q 185 417 189 415 q 179 418 182 418 q 176 420 179 421 q 171 422 174 419 l 174 439 l 171 454 l 174 471 q 176 472 174 472 q 181 474 179 472 q 185 477 183 475 q 194 479 188 479 q 199 479 196 479 q 201 482 201 479 q 208 485 204 485 q 211 489 211 486 q 219 491 217 490 q 225 492 222 492 q 235 499 231 497 q 238 501 236 499 q 243 507 240 504 q 251 508 250 506 q 257 510 251 510 q 267 517 264 513 q 273 519 269 518 q 278 522 276 519 q 289 526 286 524 q 297 530 294 529 q 300 532 299 531 q 310 539 307 538 q 315 542 313 540 q 321 544 318 544 q 324 546 324 544 q 332 551 331 550 q 338 556 333 553 q 344 558 340 556 q 350 560 349 561 q 361 567 358 568 q 370 573 367 571 q 375 576 374 575 q 383 581 379 579 q 389 583 386 582 q 394 588 392 586 q 399 592 396 589 q 405 595 401 592 q 410 601 408 599 q 417 604 414 603 q 424 607 421 606 q 429 610 426 607 q 438 613 432 614 q 444 618 440 618 q 447 621 447 618 q 460 629 456 631 q 467 635 464 632 q 471 638 469 639 q 486 646 476 647 q 491 651 489 650 q 500 656 493 653 q 506 660 503 658 q 511 664 508 661 q 517 669 514 667 q 524 674 521 671 q 528 678 525 676 q 535 682 531 679 q 541 690 539 686 q 547 696 543 693 q 552 699 550 699 q 557 703 554 700 q 563 706 561 706 q 567 710 565 707 q 576 715 572 714 q 579 719 579 717 q 585 727 583 725 q 590 732 588 729 q 603 742 596 740 q 608 744 606 742 q 613 749 610 747 q 621 755 618 753 q 626 760 624 757 q 631 766 629 763 q 636 772 632 769 q 641 775 638 774 q 647 779 644 776 q 651 785 649 785 q 657 789 654 786 q 646 785 654 792 q 642 779 649 776 q 638 774 640 776 q 632 769 635 772 q 631 765 633 767 q 625 761 628 763 q 622 757 624 760 q 618 756 621 754 q 607 747 611 749 q 603 741 604 743 q 599 736 601 739 q 592 735 593 738 q 585 731 590 733 q 581 726 583 728 q 575 724 578 725 q 571 717 572 719 q 568 713 569 715 q 559 708 563 710 q 553 704 556 707 q 544 697 550 697 q 538 690 542 692 q 531 686 535 689 q 525 684 529 686 q 519 679 521 682 q 513 674 515 675 q 508 671 511 672 q 499 666 503 669 q 493 660 496 663 q 487 657 490 660 q 482 654 483 654 q 474 648 476 651 q 467 644 472 644 q 461 639 463 642 q 453 636 460 636 q 439 628 449 628 q 433 623 436 625 q 426 621 431 621 q 413 611 422 611 q 405 607 408 608 q 397 603 401 606 q 392 598 394 599 q 386 593 389 597 q 369 585 378 593 q 358 575 364 588 q 344 572 349 575 q 329 564 331 563 q 313 558 326 561 q 308 553 313 553 q 301 551 303 553 q 293 545 296 549 q 285 540 290 542 q 279 538 283 539 q 272 533 275 536 q 265 532 268 532 q 257 529 261 532 q 251 525 254 525 q 246 525 249 525 q 239 519 243 522 q 231 518 235 515 q 224 513 228 514 q 217 510 221 513 q 212 507 214 507 q 204 503 210 507 q 194 503 201 506 q 179 497 186 494 q 175 493 178 494 q 169 489 172 492 q 162 488 167 488 q 158 485 157 488 q 149 485 153 483 q 144 483 146 486 q 139 481 142 482 q 132 479 136 479 q 127 479 129 481 q 124 478 125 478 q 115 475 118 475 q 108 474 111 475 q 104 474 107 475 q 103 475 101 472 q 95 472 99 474 q 90 472 92 469 l 89 457 l 93 436 l 93 424 l 90 421 z "},"=":{"ha":644,"x_min":67,"x_max":576,"o":"m 575 556 l 561 556 l 544 558 l 535 554 l 518 557 l 503 557 l 492 556 l 476 556 l 461 557 l 450 557 l 433 557 l 422 557 l 408 556 l 390 554 l 381 554 l 363 557 l 353 557 l 335 557 l 322 556 l 308 554 l 292 556 l 278 556 l 268 553 l 250 557 l 238 557 l 225 556 l 211 557 l 197 556 l 181 554 l 165 557 l 153 554 l 139 557 l 128 553 l 113 557 l 96 556 l 83 556 l 67 557 l 69 540 l 86 538 l 97 540 l 110 538 l 124 540 l 140 539 l 156 540 l 169 540 l 181 542 l 193 540 l 210 540 l 224 538 l 236 540 l 253 538 l 265 539 l 282 538 l 293 539 l 306 538 l 319 540 l 336 542 l 351 540 l 364 539 l 378 540 l 394 539 l 408 538 l 419 539 l 435 539 l 450 540 l 464 542 l 479 539 l 489 540 l 504 539 l 521 536 l 532 540 l 546 542 l 563 536 l 576 539 l 572 556 l 575 556 m 575 275 l 563 276 l 549 275 l 533 274 l 517 276 l 503 275 l 490 275 l 475 276 l 461 272 l 450 272 l 436 272 l 422 272 l 404 276 l 394 274 l 376 272 l 363 275 l 350 276 l 336 275 l 321 274 l 310 276 l 294 276 l 282 275 l 264 278 l 251 276 l 239 278 l 222 278 l 207 276 l 194 275 l 183 278 l 167 275 l 153 275 l 138 275 l 124 275 l 114 275 l 97 275 l 83 276 l 69 275 l 68 260 l 83 260 l 99 258 l 113 258 l 125 260 l 138 258 l 154 260 l 165 261 l 183 260 l 197 260 l 210 258 l 224 260 l 236 261 l 253 257 l 267 258 l 282 258 l 292 260 l 308 258 l 324 256 l 336 260 l 351 258 l 365 260 l 376 257 l 392 257 l 407 258 l 418 258 l 438 256 l 449 258 l 463 258 l 479 260 l 493 256 l 504 260 l 521 258 l 532 257 l 544 258 l 563 258 l 574 260 l 572 276 l 575 275 z "},">":{"ha":749,"x_min":92,"x_max":658,"o":"m 658 421 q 653 419 654 418 q 650 417 653 419 q 643 418 647 419 q 636 415 639 417 q 626 414 633 414 q 619 410 624 413 q 613 408 615 408 q 606 408 610 408 q 599 406 601 408 q 594 404 597 406 q 586 401 590 403 q 581 400 583 401 q 575 397 579 399 l 561 390 q 553 388 556 390 q 549 383 551 385 q 541 381 546 383 q 533 379 536 379 q 525 376 528 379 q 519 371 522 374 q 511 369 515 371 q 501 367 507 367 q 489 358 501 361 q 482 355 486 356 q 475 351 478 354 q 461 344 467 349 q 449 340 451 340 q 429 332 438 332 q 424 328 426 329 q 418 321 421 326 q 409 318 411 321 q 404 315 407 315 q 397 312 401 315 q 392 307 392 308 q 383 303 388 304 q 378 299 378 303 q 363 292 369 299 q 354 289 357 292 q 346 286 351 286 q 340 280 344 281 q 336 276 336 279 q 328 272 329 274 q 319 269 326 269 q 315 266 317 267 q 308 260 313 265 q 304 256 307 258 q 294 254 301 254 q 290 249 292 251 q 283 247 288 247 q 278 244 281 244 q 274 242 276 243 q 267 238 271 238 q 263 235 264 238 q 249 224 260 232 q 247 223 250 224 q 242 217 244 222 q 236 218 238 219 q 232 215 235 217 q 227 210 229 211 q 225 204 225 208 q 217 206 219 207 q 213 203 215 204 q 210 199 210 200 q 208 194 211 199 q 201 191 203 193 q 197 188 200 189 q 188 183 192 185 q 182 181 185 182 q 176 176 179 178 q 172 172 174 175 q 166 166 169 167 q 157 163 163 165 q 153 156 154 160 q 149 151 151 153 q 141 148 146 150 q 133 143 136 146 l 122 132 q 117 128 119 132 q 113 121 115 124 q 108 117 110 118 q 104 113 107 115 q 92 100 96 108 q 97 106 93 104 q 103 111 100 108 q 106 117 106 114 q 108 121 107 119 q 115 129 111 126 q 120 135 119 132 q 126 142 121 138 q 129 144 128 143 q 132 150 132 147 q 143 157 136 150 q 151 168 146 163 q 156 172 154 171 q 164 178 158 174 q 167 182 165 179 q 174 185 172 185 q 186 197 181 188 q 190 201 189 200 q 196 204 192 201 q 201 208 197 207 q 207 213 204 210 q 213 217 210 215 q 218 225 217 219 q 225 226 221 225 q 233 229 229 228 q 238 236 233 233 q 246 243 242 239 q 250 246 247 244 q 258 249 256 249 q 263 254 261 253 q 267 258 264 256 q 276 262 274 260 q 281 265 278 264 l 293 278 q 308 282 301 282 q 315 288 313 288 q 319 292 317 289 q 327 296 325 294 q 333 297 329 297 q 349 308 338 308 q 361 318 356 311 q 365 319 363 317 q 375 322 368 322 q 379 327 378 325 q 386 332 381 329 q 392 336 389 335 q 401 338 394 338 q 406 342 403 342 q 413 346 408 343 q 425 356 421 350 q 438 357 433 353 q 444 363 440 361 q 454 368 447 365 q 465 372 456 369 q 476 381 469 374 q 483 383 479 382 q 488 383 488 385 q 503 390 494 390 q 506 392 503 392 q 511 397 508 393 q 517 399 514 399 q 524 403 521 400 q 535 408 526 403 q 542 409 540 407 q 547 413 544 411 q 553 415 551 414 q 560 413 556 415 q 563 419 558 417 q 567 418 567 421 q 578 422 571 422 l 576 438 l 575 453 l 578 469 q 568 476 568 475 q 563 476 565 476 q 558 479 561 476 q 553 481 556 479 q 547 485 550 483 q 541 485 544 482 q 535 488 538 489 q 531 491 532 489 q 528 494 529 493 q 521 497 524 496 q 515 497 518 497 q 509 501 511 500 q 504 503 507 501 q 499 508 503 506 q 493 510 494 510 q 488 513 490 513 q 482 517 485 514 q 475 518 479 515 q 469 521 471 521 q 463 524 467 524 q 460 526 460 525 q 451 532 453 529 q 446 533 449 535 q 441 537 443 535 q 432 543 439 539 q 427 545 429 544 q 425 549 425 546 q 415 550 418 547 q 410 553 413 553 q 403 558 407 556 q 396 564 400 560 q 383 568 396 568 q 379 573 381 571 q 375 578 378 575 q 368 579 372 578 q 363 586 364 581 q 356 588 360 585 q 349 590 351 590 q 343 596 346 593 q 336 599 340 599 q 324 607 332 601 q 319 610 321 608 q 314 614 317 613 q 306 620 310 618 q 301 625 301 622 q 294 628 297 626 q 289 629 292 629 q 274 638 282 638 q 269 644 269 642 q 264 647 268 646 q 258 653 260 650 q 251 656 256 656 q 245 663 249 660 q 240 664 242 665 q 232 669 235 667 q 226 675 229 672 q 214 686 219 679 q 203 692 214 686 q 197 697 199 694 q 189 701 196 699 q 184 707 186 703 q 179 714 182 711 q 168 722 169 718 q 163 726 165 722 q 156 732 161 729 q 147 739 151 736 q 141 744 144 742 q 138 753 138 747 q 131 756 133 753 q 126 761 128 760 q 119 766 124 764 q 114 771 115 768 l 108 776 q 106 779 107 778 q 94 793 94 790 q 101 783 94 789 q 108 779 103 782 q 114 771 108 775 q 119 766 117 768 q 125 761 122 764 q 128 757 125 760 q 131 756 131 754 q 135 751 133 753 q 139 747 138 750 q 145 741 142 743 q 149 738 149 739 q 160 729 160 735 q 169 722 165 726 q 181 711 178 718 q 187 707 185 710 q 192 703 189 704 q 201 699 199 700 q 208 696 203 699 q 218 686 208 692 q 224 683 221 685 q 228 678 228 681 q 236 675 233 678 q 242 672 239 672 q 254 661 253 665 q 261 658 258 661 q 267 654 264 656 q 274 649 272 651 q 281 643 276 646 q 288 638 285 640 q 294 633 292 636 q 301 632 297 635 q 306 626 304 629 q 316 623 313 626 q 322 617 319 619 q 330 616 326 618 q 336 611 333 614 q 342 605 339 607 q 350 600 346 603 q 358 598 354 600 q 363 594 361 596 q 371 591 368 593 q 376 588 374 589 q 393 579 383 582 q 398 574 394 576 q 404 572 401 571 q 413 567 410 569 q 421 563 417 565 q 426 560 424 560 q 435 554 429 560 q 447 546 440 556 q 461 542 456 546 q 469 540 465 542 q 476 535 472 538 q 483 530 479 532 q 489 529 488 528 q 496 524 492 526 q 503 521 500 522 q 510 519 506 521 q 517 517 514 517 q 523 513 522 514 q 528 513 524 511 q 535 508 531 508 q 540 507 540 508 q 554 503 549 500 q 561 498 558 500 q 567 496 564 496 q 574 494 572 494 q 583 490 576 493 q 588 489 585 492 q 593 488 590 486 q 607 482 596 485 q 617 481 611 483 q 622 478 619 478 q 628 476 625 478 q 634 476 632 475 q 640 474 636 476 q 644 474 642 475 q 650 475 647 472 q 654 472 653 472 q 658 468 656 472 l 658 456 l 656 435 l 657 419 l 658 421 z "},"?":{"ha":493,"x_min":40,"x_max":458,"o":"m 201 243 q 201 249 203 247 q 201 256 200 250 q 200 268 203 257 q 198 272 199 271 q 199 276 197 274 q 196 290 194 286 q 195 296 196 293 q 192 300 194 299 q 191 306 193 304 q 188 310 189 307 q 190 315 190 313 q 190 321 190 318 q 186 332 185 331 q 185 344 188 335 q 186 354 185 349 q 183 360 183 357 q 188 367 183 364 q 186 376 183 367 q 189 389 189 378 q 194 403 196 396 q 199 408 197 404 q 204 414 200 411 q 207 422 204 417 q 211 429 210 426 q 217 435 214 433 q 224 440 221 436 q 232 450 229 446 q 238 456 235 454 q 246 466 242 461 q 256 475 250 471 q 267 482 260 478 q 276 492 274 486 q 281 494 279 494 q 288 497 282 494 q 294 508 293 503 q 304 518 297 508 q 313 528 313 525 q 321 533 318 531 q 326 538 324 535 q 330 545 328 543 q 332 550 332 547 q 344 560 338 557 q 348 568 346 567 q 350 574 350 569 q 356 580 353 576 q 361 585 358 583 q 367 599 361 592 q 370 606 369 603 q 376 613 371 608 q 377 619 375 618 q 381 625 379 621 q 385 638 385 629 q 390 645 388 642 q 393 651 392 649 q 399 665 393 661 q 401 674 399 672 q 406 679 404 676 q 408 686 408 683 q 411 694 408 689 q 414 706 408 703 q 417 713 417 708 q 417 719 417 717 q 419 726 419 722 q 421 733 418 729 q 421 747 419 738 q 424 753 424 750 q 425 760 424 757 q 422 774 422 768 q 424 784 424 781 q 421 792 424 788 q 423 800 424 797 q 424 804 422 803 q 422 818 424 814 q 423 825 422 822 q 424 835 424 828 q 421 840 422 836 q 422 847 419 844 q 422 864 419 858 q 420 868 419 864 q 419 874 421 872 q 416 883 417 879 q 414 889 415 886 q 415 898 415 894 q 415 904 414 901 q 407 917 413 915 q 407 925 408 921 q 404 933 406 929 q 401 940 401 938 q 399 947 401 942 q 396 953 399 950 q 393 957 393 956 q 389 965 392 963 q 386 969 386 967 q 381 976 383 975 q 376 981 379 978 q 373 985 375 982 q 369 989 371 989 q 356 997 365 997 q 347 1007 350 1001 q 339 1010 340 1008 q 332 1010 338 1013 q 326 1015 329 1014 q 319 1019 324 1017 q 310 1020 313 1019 q 304 1019 307 1021 q 295 1019 300 1018 q 283 1019 290 1021 q 277 1019 281 1018 q 271 1018 274 1021 q 263 1018 265 1019 q 256 1019 260 1017 q 251 1016 253 1018 q 242 1014 249 1014 q 235 1013 239 1015 q 229 1013 232 1011 q 222 1008 225 1010 q 217 1003 219 1006 q 210 1002 214 1004 q 206 1000 207 1000 q 199 994 200 997 q 193 990 197 992 q 188 985 190 988 q 182 979 185 982 q 169 972 175 979 q 158 964 160 967 q 152 957 156 961 q 146 950 149 953 q 142 947 144 947 q 136 939 140 946 q 132 934 135 936 q 128 931 129 932 q 123 923 125 926 q 119 915 121 919 q 108 904 114 915 q 104 899 106 901 q 101 892 103 897 q 98 885 99 889 q 94 881 97 882 q 86 868 86 872 q 79 856 85 857 q 76 848 76 851 q 71 842 75 844 q 69 829 68 832 q 64 822 65 824 q 61 817 63 819 q 60 811 60 814 q 58 806 61 808 q 54 789 51 796 q 52 786 51 789 q 50 781 53 783 q 47 767 49 774 q 44 757 46 761 q 42 762 44 761 q 42 765 40 763 q 44 773 44 771 q 46 779 44 775 l 46 790 q 47 807 50 797 q 49 814 50 811 q 49 822 49 817 q 52 828 51 824 q 56 835 53 832 q 54 844 54 842 q 57 854 54 847 q 57 871 56 863 q 60 889 65 879 q 61 897 63 894 q 61 907 60 900 q 65 924 65 914 q 66 930 64 926 q 71 940 68 933 q 71 956 67 946 q 72 961 72 960 q 72 969 72 963 l 72 981 q 75 993 76 985 q 76 994 78 993 q 78 999 75 996 q 78 1003 81 1001 q 76 1007 76 1006 q 79 1001 79 1007 q 82 994 79 994 q 94 995 90 997 q 103 988 97 993 q 102 980 103 986 q 106 971 101 974 q 107 965 104 969 q 114 963 110 961 q 129 968 122 965 q 138 976 132 976 q 151 985 147 989 q 158 992 154 988 q 165 1000 161 997 q 182 1010 171 999 q 190 1015 185 1010 q 198 1019 194 1018 q 203 1021 201 1019 q 214 1026 211 1024 q 221 1029 217 1028 q 229 1032 225 1031 q 242 1035 239 1032 q 251 1035 247 1036 q 261 1036 254 1035 q 265 1038 263 1038 q 276 1036 272 1038 q 285 1038 279 1039 q 293 1038 290 1036 q 301 1038 299 1039 q 310 1036 303 1036 q 316 1035 313 1036 q 322 1032 319 1033 q 331 1028 325 1031 q 340 1024 336 1026 q 344 1022 342 1024 q 350 1019 347 1021 q 356 1016 353 1017 q 363 1013 360 1015 q 372 1003 365 1006 q 378 998 375 1000 q 383 993 381 996 q 388 988 386 990 q 393 981 390 986 q 401 972 390 975 q 408 958 401 963 q 413 944 413 954 q 417 942 417 944 q 419 935 417 939 q 424 928 424 932 q 428 922 425 925 q 430 915 431 918 q 432 908 429 913 q 435 899 433 903 q 439 892 438 896 q 438 885 436 889 q 440 879 440 882 q 444 872 443 874 q 446 865 446 869 q 446 851 443 854 q 449 843 447 847 q 451 836 451 839 q 451 829 453 833 q 450 822 449 825 q 451 815 451 818 q 453 808 451 811 q 452 801 451 806 q 453 793 453 796 q 454 778 458 788 q 454 769 454 772 q 456 760 454 767 q 454 753 456 757 q 454 743 453 750 q 453 736 454 740 q 453 728 453 732 q 451 720 450 724 q 450 711 451 717 q 448 704 447 707 q 446 694 449 701 q 443 685 446 688 q 440 676 442 681 q 440 667 438 672 q 437 663 439 665 q 436 657 435 660 q 429 642 429 649 q 426 635 426 639 q 421 628 425 632 q 419 624 422 625 q 417 617 417 622 q 415 612 417 613 q 408 606 413 611 q 406 599 407 601 q 401 592 404 597 q 399 589 400 590 l 394 585 q 386 572 394 575 q 385 568 388 569 q 381 564 383 567 q 371 551 376 560 q 361 542 369 547 q 358 539 360 540 q 353 535 356 538 q 350 529 353 532 q 347 524 347 526 q 339 518 340 519 q 335 513 338 517 q 328 507 331 510 q 322 501 325 504 q 317 499 318 501 q 314 493 315 496 q 307 488 311 492 q 303 482 303 485 q 297 478 300 481 q 290 475 293 475 q 285 467 289 472 q 279 460 282 463 q 275 456 276 460 q 271 450 274 453 q 258 442 264 450 q 242 421 256 432 q 236 413 238 417 q 232 403 235 410 q 226 399 228 403 q 221 389 225 394 q 219 381 218 383 q 218 375 219 378 q 213 357 213 369 q 210 353 213 356 q 208 343 208 350 q 210 338 211 340 q 211 333 210 336 q 210 323 210 326 q 211 317 211 319 q 211 304 206 310 q 212 299 211 301 q 210 294 213 297 q 211 289 213 292 q 210 285 210 286 q 211 272 207 279 q 208 260 211 268 q 209 257 211 260 q 206 254 207 254 q 203 248 203 251 q 201 242 203 244 l 201 243 m 138 33 q 138 40 139 38 q 138 46 138 43 q 143 52 142 49 q 147 58 144 56 q 151 65 150 63 q 157 69 151 67 q 164 70 161 71 q 171 71 167 69 q 180 74 175 74 q 188 76 185 74 q 196 75 192 74 q 206 74 200 76 q 222 65 217 69 q 226 64 225 65 q 232 60 226 63 q 233 53 233 57 q 236 49 233 50 q 235 40 235 42 q 239 33 236 38 q 238 26 239 29 q 236 18 236 22 q 233 15 235 17 l 229 7 q 219 1 229 1 q 204 -8 217 -4 q 198 -9 203 -10 q 185 -10 193 -8 q 177 -6 182 -7 q 168 -8 172 -6 q 163 -3 165 -4 q 154 -1 160 -3 q 150 4 154 3 q 146 8 146 6 q 144 15 144 13 q 142 21 143 18 q 140 28 140 25 q 138 33 139 31 l 138 33 z "},"@":{"ha":550,"x_min":-3,"x_max":556,"o":"m 396 235 l 413 236 l 425 233 l 442 232 l 458 235 q 465 234 463 235 q 471 235 467 233 q 483 242 475 242 q 487 243 485 240 q 496 247 489 246 q 503 258 496 247 q 508 264 507 261 q 511 269 508 267 q 516 276 515 274 q 521 282 517 279 q 524 292 524 288 q 528 299 524 296 q 530 307 526 303 q 533 314 533 311 q 538 326 536 321 q 539 333 539 331 q 542 351 542 344 q 543 368 539 363 q 544 388 549 378 q 550 406 550 393 q 549 413 551 410 q 549 418 547 415 q 551 429 551 425 q 553 438 551 433 q 554 449 549 442 q 553 458 553 456 q 553 463 553 460 q 552 470 553 467 q 551 475 551 474 q 553 482 554 478 q 551 489 551 486 q 553 493 554 490 q 556 497 553 496 q 552 504 553 500 q 553 508 551 508 q 551 517 551 515 q 554 525 551 518 q 551 531 551 528 q 549 535 550 533 q 551 543 551 540 q 551 549 550 546 q 549 557 549 553 q 550 564 550 561 q 549 572 550 567 q 549 579 549 576 q 548 585 549 583 q 549 590 547 588 q 546 600 547 596 q 546 608 544 604 q 546 616 547 613 q 547 621 544 619 q 544 631 546 628 q 544 636 542 635 q 542 654 540 640 q 540 660 539 657 q 538 665 540 664 q 540 675 540 669 q 538 683 539 681 q 535 699 532 689 q 528 713 532 701 q 526 728 532 722 q 524 735 526 732 q 524 743 522 738 q 520 749 522 747 q 518 758 518 751 q 517 764 519 761 q 517 769 515 767 q 513 778 514 776 q 511 783 513 781 q 506 793 507 790 q 503 800 506 796 q 501 814 503 807 q 496 820 497 817 q 493 825 494 824 q 492 833 492 829 q 489 838 492 838 q 482 851 483 850 q 475 864 475 856 q 468 875 467 874 q 461 886 461 879 q 455 892 458 889 q 453 900 451 894 q 443 906 449 903 q 432 919 438 914 q 428 922 429 919 q 425 928 428 925 q 417 931 419 928 q 414 935 414 933 q 401 940 406 940 q 397 946 399 944 q 393 950 394 947 q 381 957 386 950 q 374 958 378 957 q 368 958 371 958 q 357 963 357 964 q 349 965 354 964 q 340 967 344 965 q 334 969 338 969 q 328 969 331 968 q 322 971 325 972 q 313 969 318 969 q 306 971 310 971 q 299 972 303 971 q 292 972 294 971 q 285 969 290 972 q 278 969 281 969 q 269 972 275 969 q 263 971 267 971 q 257 968 260 971 q 249 967 253 965 q 243 967 246 968 q 235 963 239 965 q 226 960 231 961 q 220 957 224 958 q 214 954 217 956 q 201 947 207 954 q 194 944 197 946 q 185 940 192 943 q 181 938 183 938 q 175 933 178 938 q 169 928 172 931 q 164 925 165 926 q 153 917 156 924 q 147 912 147 914 q 139 907 146 910 q 129 899 136 903 q 126 894 128 896 q 121 890 124 893 q 117 887 119 889 q 111 878 114 885 q 108 875 110 876 q 106 868 108 874 q 94 860 106 868 q 88 851 92 856 q 85 847 86 849 q 83 843 85 844 q 82 839 82 840 q 77 833 81 836 q 75 828 74 829 q 67 815 67 818 q 65 808 67 810 q 63 801 64 806 q 57 794 60 799 q 53 786 54 790 q 52 781 51 786 q 50 774 53 776 q 46 768 47 772 q 42 761 44 764 q 42 755 40 757 q 42 750 43 753 q 38 741 39 744 q 33 733 36 738 q 32 727 33 731 q 31 719 31 724 q 29 707 26 713 q 25 694 22 699 l 18 681 q 17 672 18 678 q 15 664 15 667 q 14 651 14 664 q 10 635 15 646 q 8 622 14 633 q 8 611 7 618 q 6 603 7 608 q 7 594 4 597 q 6 579 6 590 q 4 574 6 578 q 3 567 3 571 q 2 560 4 565 q 0 551 0 554 q 1 542 6 543 q -1 528 1 531 q -1 521 0 525 q 0 513 -1 517 q 0 507 1 510 q 1 497 -1 504 q 0 493 1 496 q 0 488 -1 490 q 1 474 -3 481 q 1 458 -1 464 q 0 451 -1 454 q -1 446 1 447 q 1 437 -1 439 q 3 428 3 435 q 1 422 3 425 q 1 414 -1 419 q 2 407 1 411 q 0 400 3 403 q 2 394 0 397 q 3 388 4 390 q 1 368 3 375 q 6 356 6 367 q 6 347 6 350 q 6 339 7 343 q 10 325 6 336 q 11 311 4 319 q 12 303 13 308 q 13 296 11 299 q 14 289 15 293 q 15 281 13 285 q 17 275 15 279 q 19 269 18 271 q 17 260 17 263 q 18 253 18 257 q 22 240 24 247 q 26 233 25 238 q 28 228 28 229 q 29 221 29 225 q 31 214 29 217 q 38 199 32 203 q 39 185 39 194 q 42 179 42 183 q 44 171 42 175 q 53 164 50 171 q 56 156 54 160 q 58 147 57 153 q 60 144 57 147 q 65 140 63 142 q 66 133 64 136 q 71 128 68 131 q 75 122 74 125 q 81 115 76 118 q 88 108 85 108 q 90 101 90 101 q 93 99 90 101 q 106 86 100 90 q 108 83 104 85 q 114 81 111 82 q 124 69 115 76 q 126 65 124 67 q 131 64 129 63 q 137 60 135 61 q 144 57 139 58 q 154 50 153 49 q 168 44 165 44 q 172 40 171 42 q 176 39 174 38 q 194 35 183 38 q 200 32 199 32 q 207 29 201 32 q 213 28 210 29 q 222 28 215 26 q 231 26 228 26 q 238 24 235 26 q 244 24 240 22 q 251 24 249 26 q 260 22 256 24 q 269 22 265 21 q 278 22 275 22 q 286 26 281 22 q 293 24 289 24 q 301 26 297 25 q 317 25 311 26 q 326 28 324 28 q 333 29 328 28 q 340 32 336 32 q 346 33 343 32 q 361 39 353 32 q 367 40 364 36 q 375 44 369 43 q 385 47 382 42 q 391 51 388 49 q 397 53 394 53 q 408 60 408 58 q 422 69 414 65 q 426 73 424 71 q 433 78 428 75 q 442 89 436 81 q 445 93 443 92 q 450 100 447 94 q 456 104 453 103 q 461 111 460 106 q 468 119 465 115 q 472 128 469 125 q 479 135 475 131 q 482 140 479 136 q 483 144 485 144 q 488 153 486 150 q 493 160 490 157 l 486 175 q 482 168 483 172 q 478 163 481 164 q 468 150 475 157 q 466 147 468 149 q 463 142 464 144 q 459 133 461 135 q 454 128 457 132 q 448 122 451 125 q 442 115 444 118 q 438 112 439 113 q 435 107 438 111 q 429 103 431 104 q 425 96 428 101 q 419 92 421 94 q 415 88 418 90 q 408 85 410 88 q 401 79 406 82 q 397 76 399 76 q 389 72 394 75 q 384 69 386 71 q 378 65 382 68 q 373 61 375 64 q 367 56 371 58 q 353 51 358 56 q 340 49 350 49 q 334 45 336 46 q 326 44 332 44 q 319 42 324 43 q 313 38 315 40 q 307 38 310 40 q 297 35 304 36 q 290 36 293 35 q 282 38 286 38 q 268 36 275 33 l 256 36 q 246 35 250 33 q 236 36 242 38 q 219 36 229 39 q 215 40 217 38 q 208 44 213 43 q 193 47 199 42 q 181 49 185 44 q 167 57 175 51 q 160 59 163 57 q 153 64 158 61 q 149 66 151 64 q 146 71 146 68 q 139 73 143 71 q 132 74 135 75 q 127 78 131 78 q 125 82 124 79 q 117 89 119 86 q 114 93 115 92 q 109 98 111 96 q 106 103 107 100 q 101 106 103 106 q 99 110 99 107 q 92 115 94 113 q 88 121 90 118 q 85 126 86 124 q 83 131 85 129 q 77 138 78 135 q 72 144 76 140 q 71 149 69 147 q 69 153 72 150 q 65 161 67 157 q 63 168 63 165 q 60 173 63 169 q 57 179 58 176 q 49 190 57 185 q 48 197 49 193 q 44 203 47 201 q 42 215 46 211 q 40 224 42 219 q 36 229 39 228 q 35 237 35 233 q 36 244 36 240 q 33 261 29 251 q 30 266 29 264 q 29 275 31 268 q 27 281 26 278 q 25 288 28 285 q 23 294 24 292 q 21 301 22 296 q 20 308 21 306 q 21 318 19 311 q 19 323 19 321 q 18 329 19 325 q 17 338 15 333 q 15 346 18 342 q 16 352 15 349 q 17 358 17 356 q 15 367 17 361 q 14 375 13 372 l 14 388 q 15 403 14 399 q 13 409 11 406 q 10 415 14 413 q 11 425 11 422 q 11 432 11 428 q 12 438 11 436 q 13 447 13 440 q 11 458 14 453 q 11 474 14 467 q 12 478 13 475 q 11 483 11 481 q 10 501 13 492 q 10 504 10 503 q 10 513 13 507 q 13 525 10 519 q 14 536 10 531 q 13 544 11 540 q 13 550 14 547 q 14 563 14 557 q 15 572 14 569 q 13 581 15 575 q 17 592 17 583 q 17 608 15 600 q 18 616 17 614 q 19 619 19 618 q 19 628 19 624 q 22 636 19 633 q 23 644 21 642 q 26 653 25 646 q 25 658 25 656 q 25 664 25 661 q 31 681 28 676 q 32 694 28 689 q 34 701 32 697 q 38 707 36 704 q 38 714 39 710 q 38 721 38 718 q 42 728 40 726 q 43 738 44 731 q 46 744 46 740 q 49 753 46 749 q 53 758 51 754 q 56 764 54 763 q 58 770 56 767 q 57 776 60 774 q 61 785 60 783 q 67 792 63 786 q 68 795 68 794 q 69 799 68 796 q 71 801 69 800 q 75 808 74 806 q 76 817 76 811 q 82 828 82 824 q 88 835 88 831 q 93 839 89 839 q 95 847 92 843 q 100 853 99 850 q 103 856 101 853 q 108 863 104 860 q 112 867 110 864 q 117 872 114 869 q 121 878 117 875 q 128 883 125 881 q 131 887 129 885 q 136 892 132 889 q 141 897 139 894 q 147 899 143 900 q 151 903 149 901 q 156 908 154 906 q 162 913 160 911 q 168 915 164 915 q 174 922 171 919 q 178 921 178 924 q 185 928 183 926 q 190 933 188 929 q 199 936 196 935 q 207 940 203 938 q 218 944 208 942 q 227 947 222 946 q 236 949 232 949 q 241 953 238 953 q 247 957 244 954 q 265 957 257 954 q 271 961 268 960 q 281 963 274 963 l 294 963 q 299 963 297 964 q 307 965 301 963 q 315 963 311 963 q 324 963 319 963 q 328 962 325 964 q 333 961 331 960 q 342 959 338 961 q 350 957 347 957 q 355 956 353 958 q 360 953 357 954 q 372 946 368 949 q 386 944 381 946 q 396 936 389 936 q 401 931 400 932 q 406 926 403 929 q 411 924 408 926 q 414 922 414 921 q 419 915 417 917 q 424 911 422 913 q 429 905 426 908 q 435 899 432 901 q 439 897 438 897 q 442 890 440 896 l 454 882 q 457 874 457 878 q 461 869 457 871 q 464 863 463 864 q 465 858 465 861 q 469 851 467 856 q 474 844 472 847 q 478 833 481 840 q 481 826 481 831 q 485 817 482 821 q 490 813 488 815 q 493 808 492 810 q 500 790 493 797 q 501 785 499 788 q 501 779 503 782 q 507 764 508 772 q 509 756 510 760 q 510 751 508 753 q 515 742 513 744 q 518 736 517 739 q 521 718 514 729 q 524 706 521 711 q 526 699 525 703 q 526 689 528 696 q 529 682 529 686 q 531 675 529 678 q 530 667 529 671 q 531 660 531 663 q 534 652 535 656 q 533 646 533 649 q 539 629 536 635 q 538 623 536 626 q 538 617 540 619 q 540 600 543 608 q 540 595 539 599 q 543 588 542 592 q 544 581 544 585 q 546 575 543 578 q 544 569 543 572 q 544 558 546 565 q 544 553 543 557 q 547 549 544 550 q 547 540 547 543 q 547 532 546 538 q 546 528 547 529 q 546 524 544 526 q 545 516 544 518 q 546 511 546 514 q 545 505 546 508 q 547 497 544 501 q 547 492 544 494 q 550 485 550 490 q 547 481 547 482 q 547 474 546 479 q 546 468 546 471 q 546 464 546 465 q 547 455 547 458 q 546 450 546 451 q 546 441 544 446 q 546 432 547 436 q 546 423 546 428 q 544 415 546 418 q 542 406 542 411 q 539 399 542 401 q 538 392 539 396 q 538 385 538 388 q 532 367 538 378 q 531 359 532 364 q 526 351 529 354 q 527 344 529 349 q 522 336 525 339 q 518 328 521 333 q 517 319 515 324 q 511 318 514 321 q 507 313 508 315 q 500 305 501 308 q 493 299 499 301 q 488 295 490 296 q 479 292 486 294 l 465 285 q 459 286 463 288 q 453 285 456 285 l 443 288 l 436 283 l 418 293 q 417 315 413 306 l 410 343 l 411 357 l 410 374 l 410 386 l 414 401 l 413 415 l 410 431 l 408 442 l 413 460 l 408 475 l 411 489 l 410 504 l 411 515 l 413 533 l 411 544 l 410 561 l 411 574 l 411 588 l 410 603 l 413 619 l 413 633 q 410 649 414 640 q 412 659 411 654 q 410 667 413 664 q 410 676 411 671 q 410 685 410 681 q 408 692 407 688 q 406 701 408 697 q 407 707 408 703 q 403 713 406 711 q 400 728 400 717 q 397 733 397 731 q 393 739 397 736 q 392 743 392 742 q 388 749 392 744 q 378 758 388 756 q 375 762 376 761 q 372 765 374 763 q 366 769 368 768 q 360 771 364 771 q 347 779 356 778 q 342 780 343 779 q 336 782 340 781 q 319 785 322 788 q 309 785 314 785 q 301 786 304 785 q 283 785 294 785 q 275 785 281 786 q 267 783 269 783 q 250 782 256 783 q 244 779 246 781 q 238 781 242 778 q 229 778 232 779 q 221 774 226 776 q 210 768 217 775 q 197 763 203 769 q 186 757 186 765 q 178 755 181 757 q 172 753 176 753 q 167 748 171 750 q 163 742 164 746 q 157 737 158 739 q 153 732 156 735 q 147 727 149 729 q 143 722 146 725 q 139 719 140 721 q 133 714 138 717 q 133 706 135 710 q 131 699 132 701 q 124 689 124 696 q 123 681 124 683 q 122 671 122 678 q 118 658 111 665 q 115 651 115 656 q 115 640 115 646 q 113 626 113 635 q 113 621 113 622 q 115 617 113 619 q 113 607 114 610 q 115 597 113 604 q 117 592 115 594 q 118 583 118 589 l 129 564 l 136 558 q 140 557 138 557 q 144 563 143 557 q 147 568 144 565 q 153 582 150 571 q 154 588 156 583 q 153 596 153 593 q 150 614 156 603 q 151 622 151 617 q 147 631 150 628 q 147 639 147 636 q 149 649 147 642 q 153 653 151 651 q 157 658 154 656 q 158 663 154 661 q 160 669 161 664 q 163 672 163 669 q 167 676 163 674 q 167 681 165 679 q 169 688 169 683 q 174 692 172 690 q 181 699 175 694 q 181 703 179 703 q 185 706 183 704 q 190 712 189 711 q 193 715 192 713 q 199 722 197 719 q 204 728 201 725 q 213 731 210 728 q 215 736 215 733 q 222 740 218 738 q 232 739 225 742 q 239 745 235 742 q 244 747 243 749 q 253 750 249 750 q 264 751 257 750 q 271 756 267 756 q 278 757 275 756 q 290 758 285 758 q 299 757 296 757 q 308 760 306 758 q 314 758 311 761 q 331 756 324 761 q 343 754 333 757 q 349 749 346 751 q 354 749 351 747 q 359 743 357 746 q 367 740 361 740 q 369 736 369 738 q 374 732 369 735 q 382 719 371 725 q 386 706 381 714 q 388 702 386 704 q 388 697 389 700 q 391 688 390 693 q 393 681 392 683 q 394 672 394 675 q 396 665 394 668 q 394 647 397 658 l 399 629 l 397 613 l 399 597 l 393 583 l 388 583 q 381 583 385 583 q 374 581 376 582 q 366 582 368 582 q 360 583 364 582 q 346 582 356 582 q 338 581 342 579 q 332 581 335 582 q 323 579 325 581 q 318 579 321 578 q 310 576 315 576 q 301 576 304 576 q 294 575 299 574 q 286 576 290 576 q 276 571 281 575 q 267 568 269 569 q 261 567 265 567 q 255 565 258 567 q 244 561 251 563 q 231 557 239 561 q 227 556 231 558 q 219 554 224 554 q 206 549 211 551 q 193 542 203 542 q 189 538 190 539 q 185 535 188 538 q 178 531 182 532 q 171 526 174 531 q 167 524 168 526 q 161 521 165 521 q 149 510 154 518 q 145 510 146 511 q 140 506 144 508 q 136 500 138 501 q 132 496 135 499 q 127 491 129 493 q 121 486 125 489 q 118 479 121 482 q 114 476 115 476 q 108 461 106 468 q 104 458 106 460 q 97 450 103 456 q 94 447 96 450 q 94 442 93 444 q 90 425 89 433 q 86 415 86 421 q 81 399 81 410 q 80 393 81 397 q 76 389 79 389 q 76 381 75 385 q 75 371 78 376 q 77 364 78 368 q 76 357 76 360 q 78 339 75 349 q 78 329 76 333 q 81 321 81 325 q 79 314 78 318 q 81 304 81 310 q 83 297 82 300 q 83 290 85 293 q 89 275 88 283 q 96 264 94 271 q 100 260 99 264 q 103 258 101 257 q 107 253 107 257 q 108 250 108 251 q 115 244 111 246 q 124 240 119 243 q 125 237 122 238 q 133 232 128 236 q 143 231 143 235 q 150 226 146 228 q 157 224 154 224 q 165 224 161 222 q 172 222 168 225 q 182 221 178 219 q 193 221 186 222 q 200 219 196 218 q 211 218 204 221 q 217 220 214 221 q 225 221 219 219 q 232 222 229 221 q 239 221 235 224 q 247 225 242 225 q 253 228 251 225 q 271 232 264 229 q 286 239 281 239 q 297 250 289 244 q 302 253 300 253 q 311 256 304 254 q 326 264 321 265 q 329 271 326 268 q 335 276 332 274 q 343 280 339 278 q 349 282 347 282 l 363 290 l 381 292 l 397 288 l 399 274 l 394 263 l 399 249 l 397 232 l 396 235 m 396 551 l 394 536 l 399 525 l 399 508 l 393 497 l 393 483 l 394 469 l 394 453 l 394 442 l 396 425 l 397 413 l 396 399 q 394 392 396 396 q 394 385 393 388 q 393 379 392 381 q 392 374 394 378 q 390 363 389 365 q 383 351 381 354 q 378 344 381 347 q 374 336 375 342 q 369 333 369 335 q 365 329 368 331 q 360 323 363 325 q 354 318 357 321 q 349 312 351 315 q 344 307 346 308 q 332 296 335 301 q 326 291 329 292 q 317 289 322 290 q 311 282 314 283 q 306 281 308 281 q 299 275 300 278 q 293 272 297 272 q 285 267 289 269 q 275 264 282 264 q 270 259 275 261 q 263 257 265 257 q 251 250 251 251 q 242 249 244 249 q 236 249 239 250 q 228 245 233 246 q 219 243 224 244 q 215 241 217 243 q 211 240 214 239 q 203 241 207 242 q 196 240 199 240 q 191 238 193 238 q 185 238 189 238 q 174 238 179 243 q 165 239 168 239 q 157 242 161 239 q 153 245 156 244 q 147 247 150 246 q 142 253 144 253 q 139 256 140 253 q 132 260 135 258 q 126 265 129 263 q 123 273 126 269 q 118 279 119 276 q 116 285 118 283 q 114 293 114 288 q 109 299 111 294 q 104 306 107 303 q 101 313 101 308 q 99 321 101 317 l 99 328 q 100 332 99 329 q 97 350 96 349 q 95 356 94 353 q 93 363 96 360 q 95 373 93 369 q 99 379 97 376 q 103 389 94 389 q 103 401 101 396 q 108 408 106 406 q 110 420 108 417 q 114 431 111 424 q 122 443 117 438 q 128 451 126 446 q 135 461 131 456 q 138 467 135 463 q 140 472 140 471 q 149 480 144 478 q 156 485 153 482 q 158 492 154 489 q 161 496 161 494 q 174 504 168 503 q 179 510 176 507 q 185 517 182 514 q 199 524 194 519 q 213 532 207 529 q 219 533 218 532 q 224 535 221 533 q 240 539 232 543 q 245 542 243 542 q 251 546 247 543 q 258 547 256 544 q 267 550 261 550 q 276 551 274 546 q 283 552 282 551 q 289 551 285 553 q 295 554 292 553 q 301 557 299 556 q 314 558 307 556 q 322 556 319 558 q 326 554 324 554 q 338 554 332 557 q 343 556 340 556 q 351 557 346 556 q 356 556 354 556 q 360 554 357 557 q 365 555 363 554 q 371 554 368 556 q 374 553 371 553 q 378 553 378 554 q 382 551 379 553 q 388 551 385 550 l 396 551 l 396 551 z "}}}
